%TF.GenerationSoftware,KiCad,Pcbnew,9.0.3-9.0.3-0~ubuntu24.04.1*%
%TF.CreationDate,2025-08-12T13:47:38+09:00*%
%TF.ProjectId,2025A_visualizer,32303235-415f-4766-9973-75616c697a65,rev?*%
%TF.SameCoordinates,Original*%
%TF.FileFunction,Legend,Top*%
%TF.FilePolarity,Positive*%
%FSLAX46Y46*%
G04 Gerber Fmt 4.6, Leading zero omitted, Abs format (unit mm)*
G04 Created by KiCad (PCBNEW 9.0.3-9.0.3-0~ubuntu24.04.1) date 2025-08-12 13:47:38*
%MOMM*%
%LPD*%
G01*
G04 APERTURE LIST*
%ADD10C,0.150000*%
%ADD11C,0.120000*%
G04 APERTURE END LIST*
D10*
X87854819Y-62347619D02*
X87378628Y-62680952D01*
X87854819Y-62919047D02*
X86854819Y-62919047D01*
X86854819Y-62919047D02*
X86854819Y-62538095D01*
X86854819Y-62538095D02*
X86902438Y-62442857D01*
X86902438Y-62442857D02*
X86950057Y-62395238D01*
X86950057Y-62395238D02*
X87045295Y-62347619D01*
X87045295Y-62347619D02*
X87188152Y-62347619D01*
X87188152Y-62347619D02*
X87283390Y-62395238D01*
X87283390Y-62395238D02*
X87331009Y-62442857D01*
X87331009Y-62442857D02*
X87378628Y-62538095D01*
X87378628Y-62538095D02*
X87378628Y-62919047D01*
X87807200Y-61966666D02*
X87854819Y-61823809D01*
X87854819Y-61823809D02*
X87854819Y-61585714D01*
X87854819Y-61585714D02*
X87807200Y-61490476D01*
X87807200Y-61490476D02*
X87759580Y-61442857D01*
X87759580Y-61442857D02*
X87664342Y-61395238D01*
X87664342Y-61395238D02*
X87569104Y-61395238D01*
X87569104Y-61395238D02*
X87473866Y-61442857D01*
X87473866Y-61442857D02*
X87426247Y-61490476D01*
X87426247Y-61490476D02*
X87378628Y-61585714D01*
X87378628Y-61585714D02*
X87331009Y-61776190D01*
X87331009Y-61776190D02*
X87283390Y-61871428D01*
X87283390Y-61871428D02*
X87235771Y-61919047D01*
X87235771Y-61919047D02*
X87140533Y-61966666D01*
X87140533Y-61966666D02*
X87045295Y-61966666D01*
X87045295Y-61966666D02*
X86950057Y-61919047D01*
X86950057Y-61919047D02*
X86902438Y-61871428D01*
X86902438Y-61871428D02*
X86854819Y-61776190D01*
X86854819Y-61776190D02*
X86854819Y-61538095D01*
X86854819Y-61538095D02*
X86902438Y-61395238D01*
X86854819Y-61109523D02*
X86854819Y-60538095D01*
X87854819Y-60823809D02*
X86854819Y-60823809D01*
X74373866Y-109085713D02*
X74373866Y-108323809D01*
X74754819Y-108704761D02*
X73992914Y-108704761D01*
X73754819Y-107371428D02*
X73754819Y-107847618D01*
X73754819Y-107847618D02*
X74231009Y-107895237D01*
X74231009Y-107895237D02*
X74183390Y-107847618D01*
X74183390Y-107847618D02*
X74135771Y-107752380D01*
X74135771Y-107752380D02*
X74135771Y-107514285D01*
X74135771Y-107514285D02*
X74183390Y-107419047D01*
X74183390Y-107419047D02*
X74231009Y-107371428D01*
X74231009Y-107371428D02*
X74326247Y-107323809D01*
X74326247Y-107323809D02*
X74564342Y-107323809D01*
X74564342Y-107323809D02*
X74659580Y-107371428D01*
X74659580Y-107371428D02*
X74707200Y-107419047D01*
X74707200Y-107419047D02*
X74754819Y-107514285D01*
X74754819Y-107514285D02*
X74754819Y-107752380D01*
X74754819Y-107752380D02*
X74707200Y-107847618D01*
X74707200Y-107847618D02*
X74659580Y-107895237D01*
X73754819Y-107038094D02*
X74754819Y-106704761D01*
X74754819Y-106704761D02*
X73754819Y-106371428D01*
X72207200Y-109671428D02*
X72254819Y-109576190D01*
X72254819Y-109576190D02*
X72254819Y-109385714D01*
X72254819Y-109385714D02*
X72207200Y-109290476D01*
X72207200Y-109290476D02*
X72111961Y-109242857D01*
X72111961Y-109242857D02*
X72064342Y-109242857D01*
X72064342Y-109242857D02*
X71969104Y-109290476D01*
X71969104Y-109290476D02*
X71921485Y-109385714D01*
X71921485Y-109385714D02*
X71921485Y-109528571D01*
X71921485Y-109528571D02*
X71873866Y-109623809D01*
X71873866Y-109623809D02*
X71778628Y-109671428D01*
X71778628Y-109671428D02*
X71731009Y-109671428D01*
X71731009Y-109671428D02*
X71635771Y-109623809D01*
X71635771Y-109623809D02*
X71588152Y-109528571D01*
X71588152Y-109528571D02*
X71588152Y-109385714D01*
X71588152Y-109385714D02*
X71635771Y-109290476D01*
X72254819Y-108814285D02*
X71588152Y-108814285D01*
X71254819Y-108814285D02*
X71302438Y-108861904D01*
X71302438Y-108861904D02*
X71350057Y-108814285D01*
X71350057Y-108814285D02*
X71302438Y-108766666D01*
X71302438Y-108766666D02*
X71254819Y-108814285D01*
X71254819Y-108814285D02*
X71350057Y-108814285D01*
X71588152Y-107909524D02*
X72397676Y-107909524D01*
X72397676Y-107909524D02*
X72492914Y-107957143D01*
X72492914Y-107957143D02*
X72540533Y-108004762D01*
X72540533Y-108004762D02*
X72588152Y-108100000D01*
X72588152Y-108100000D02*
X72588152Y-108242857D01*
X72588152Y-108242857D02*
X72540533Y-108338095D01*
X72207200Y-107909524D02*
X72254819Y-108004762D01*
X72254819Y-108004762D02*
X72254819Y-108195238D01*
X72254819Y-108195238D02*
X72207200Y-108290476D01*
X72207200Y-108290476D02*
X72159580Y-108338095D01*
X72159580Y-108338095D02*
X72064342Y-108385714D01*
X72064342Y-108385714D02*
X71778628Y-108385714D01*
X71778628Y-108385714D02*
X71683390Y-108338095D01*
X71683390Y-108338095D02*
X71635771Y-108290476D01*
X71635771Y-108290476D02*
X71588152Y-108195238D01*
X71588152Y-108195238D02*
X71588152Y-108004762D01*
X71588152Y-108004762D02*
X71635771Y-107909524D01*
X71588152Y-107433333D02*
X72254819Y-107433333D01*
X71683390Y-107433333D02*
X71635771Y-107385714D01*
X71635771Y-107385714D02*
X71588152Y-107290476D01*
X71588152Y-107290476D02*
X71588152Y-107147619D01*
X71588152Y-107147619D02*
X71635771Y-107052381D01*
X71635771Y-107052381D02*
X71731009Y-107004762D01*
X71731009Y-107004762D02*
X72254819Y-107004762D01*
X72254819Y-106100000D02*
X71731009Y-106100000D01*
X71731009Y-106100000D02*
X71635771Y-106147619D01*
X71635771Y-106147619D02*
X71588152Y-106242857D01*
X71588152Y-106242857D02*
X71588152Y-106433333D01*
X71588152Y-106433333D02*
X71635771Y-106528571D01*
X72207200Y-106100000D02*
X72254819Y-106195238D01*
X72254819Y-106195238D02*
X72254819Y-106433333D01*
X72254819Y-106433333D02*
X72207200Y-106528571D01*
X72207200Y-106528571D02*
X72111961Y-106576190D01*
X72111961Y-106576190D02*
X72016723Y-106576190D01*
X72016723Y-106576190D02*
X71921485Y-106528571D01*
X71921485Y-106528571D02*
X71873866Y-106433333D01*
X71873866Y-106433333D02*
X71873866Y-106195238D01*
X71873866Y-106195238D02*
X71826247Y-106100000D01*
X72254819Y-105480952D02*
X72207200Y-105576190D01*
X72207200Y-105576190D02*
X72111961Y-105623809D01*
X72111961Y-105623809D02*
X71254819Y-105623809D01*
X84175238Y-115854819D02*
X83603810Y-115854819D01*
X83889524Y-115854819D02*
X83889524Y-114854819D01*
X83889524Y-114854819D02*
X83794286Y-114997676D01*
X83794286Y-114997676D02*
X83699048Y-115092914D01*
X83699048Y-115092914D02*
X83603810Y-115140533D01*
X84603810Y-115759580D02*
X84651429Y-115807200D01*
X84651429Y-115807200D02*
X84603810Y-115854819D01*
X84603810Y-115854819D02*
X84556191Y-115807200D01*
X84556191Y-115807200D02*
X84603810Y-115759580D01*
X84603810Y-115759580D02*
X84603810Y-115854819D01*
X85032381Y-114950057D02*
X85080000Y-114902438D01*
X85080000Y-114902438D02*
X85175238Y-114854819D01*
X85175238Y-114854819D02*
X85413333Y-114854819D01*
X85413333Y-114854819D02*
X85508571Y-114902438D01*
X85508571Y-114902438D02*
X85556190Y-114950057D01*
X85556190Y-114950057D02*
X85603809Y-115045295D01*
X85603809Y-115045295D02*
X85603809Y-115140533D01*
X85603809Y-115140533D02*
X85556190Y-115283390D01*
X85556190Y-115283390D02*
X84984762Y-115854819D01*
X84984762Y-115854819D02*
X85603809Y-115854819D01*
X86032381Y-115854819D02*
X86032381Y-114854819D01*
X86127619Y-115473866D02*
X86413333Y-115854819D01*
X86413333Y-115188152D02*
X86032381Y-115569104D01*
X86794286Y-115854819D02*
X87032381Y-115854819D01*
X87032381Y-115854819D02*
X87032381Y-115664342D01*
X87032381Y-115664342D02*
X86937143Y-115616723D01*
X86937143Y-115616723D02*
X86841905Y-115521485D01*
X86841905Y-115521485D02*
X86794286Y-115378628D01*
X86794286Y-115378628D02*
X86794286Y-115140533D01*
X86794286Y-115140533D02*
X86841905Y-114997676D01*
X86841905Y-114997676D02*
X86937143Y-114902438D01*
X86937143Y-114902438D02*
X87080000Y-114854819D01*
X87080000Y-114854819D02*
X87270476Y-114854819D01*
X87270476Y-114854819D02*
X87413333Y-114902438D01*
X87413333Y-114902438D02*
X87508571Y-114997676D01*
X87508571Y-114997676D02*
X87556190Y-115140533D01*
X87556190Y-115140533D02*
X87556190Y-115378628D01*
X87556190Y-115378628D02*
X87508571Y-115521485D01*
X87508571Y-115521485D02*
X87413333Y-115616723D01*
X87413333Y-115616723D02*
X87318095Y-115664342D01*
X87318095Y-115664342D02*
X87318095Y-115854819D01*
X87318095Y-115854819D02*
X87556190Y-115854819D01*
X82409580Y-71766666D02*
X82457200Y-71814285D01*
X82457200Y-71814285D02*
X82504819Y-71957142D01*
X82504819Y-71957142D02*
X82504819Y-72052380D01*
X82504819Y-72052380D02*
X82457200Y-72195237D01*
X82457200Y-72195237D02*
X82361961Y-72290475D01*
X82361961Y-72290475D02*
X82266723Y-72338094D01*
X82266723Y-72338094D02*
X82076247Y-72385713D01*
X82076247Y-72385713D02*
X81933390Y-72385713D01*
X81933390Y-72385713D02*
X81742914Y-72338094D01*
X81742914Y-72338094D02*
X81647676Y-72290475D01*
X81647676Y-72290475D02*
X81552438Y-72195237D01*
X81552438Y-72195237D02*
X81504819Y-72052380D01*
X81504819Y-72052380D02*
X81504819Y-71957142D01*
X81504819Y-71957142D02*
X81552438Y-71814285D01*
X81552438Y-71814285D02*
X81600057Y-71766666D01*
X81504819Y-70861904D02*
X81504819Y-71338094D01*
X81504819Y-71338094D02*
X81981009Y-71385713D01*
X81981009Y-71385713D02*
X81933390Y-71338094D01*
X81933390Y-71338094D02*
X81885771Y-71242856D01*
X81885771Y-71242856D02*
X81885771Y-71004761D01*
X81885771Y-71004761D02*
X81933390Y-70909523D01*
X81933390Y-70909523D02*
X81981009Y-70861904D01*
X81981009Y-70861904D02*
X82076247Y-70814285D01*
X82076247Y-70814285D02*
X82314342Y-70814285D01*
X82314342Y-70814285D02*
X82409580Y-70861904D01*
X82409580Y-70861904D02*
X82457200Y-70909523D01*
X82457200Y-70909523D02*
X82504819Y-71004761D01*
X82504819Y-71004761D02*
X82504819Y-71242856D01*
X82504819Y-71242856D02*
X82457200Y-71338094D01*
X82457200Y-71338094D02*
X82409580Y-71385713D01*
X56580952Y-77254819D02*
X56676190Y-77254819D01*
X56676190Y-77254819D02*
X56771428Y-77302438D01*
X56771428Y-77302438D02*
X56819047Y-77350057D01*
X56819047Y-77350057D02*
X56866666Y-77445295D01*
X56866666Y-77445295D02*
X56914285Y-77635771D01*
X56914285Y-77635771D02*
X56914285Y-77873866D01*
X56914285Y-77873866D02*
X56866666Y-78064342D01*
X56866666Y-78064342D02*
X56819047Y-78159580D01*
X56819047Y-78159580D02*
X56771428Y-78207200D01*
X56771428Y-78207200D02*
X56676190Y-78254819D01*
X56676190Y-78254819D02*
X56580952Y-78254819D01*
X56580952Y-78254819D02*
X56485714Y-78207200D01*
X56485714Y-78207200D02*
X56438095Y-78159580D01*
X56438095Y-78159580D02*
X56390476Y-78064342D01*
X56390476Y-78064342D02*
X56342857Y-77873866D01*
X56342857Y-77873866D02*
X56342857Y-77635771D01*
X56342857Y-77635771D02*
X56390476Y-77445295D01*
X56390476Y-77445295D02*
X56438095Y-77350057D01*
X56438095Y-77350057D02*
X56485714Y-77302438D01*
X56485714Y-77302438D02*
X56580952Y-77254819D01*
X57342857Y-78159580D02*
X57390476Y-78207200D01*
X57390476Y-78207200D02*
X57342857Y-78254819D01*
X57342857Y-78254819D02*
X57295238Y-78207200D01*
X57295238Y-78207200D02*
X57342857Y-78159580D01*
X57342857Y-78159580D02*
X57342857Y-78254819D01*
X57723809Y-77254819D02*
X58342856Y-77254819D01*
X58342856Y-77254819D02*
X58009523Y-77635771D01*
X58009523Y-77635771D02*
X58152380Y-77635771D01*
X58152380Y-77635771D02*
X58247618Y-77683390D01*
X58247618Y-77683390D02*
X58295237Y-77731009D01*
X58295237Y-77731009D02*
X58342856Y-77826247D01*
X58342856Y-77826247D02*
X58342856Y-78064342D01*
X58342856Y-78064342D02*
X58295237Y-78159580D01*
X58295237Y-78159580D02*
X58247618Y-78207200D01*
X58247618Y-78207200D02*
X58152380Y-78254819D01*
X58152380Y-78254819D02*
X57866666Y-78254819D01*
X57866666Y-78254819D02*
X57771428Y-78207200D01*
X57771428Y-78207200D02*
X57723809Y-78159580D01*
X58676190Y-77254819D02*
X59295237Y-77254819D01*
X59295237Y-77254819D02*
X58961904Y-77635771D01*
X58961904Y-77635771D02*
X59104761Y-77635771D01*
X59104761Y-77635771D02*
X59199999Y-77683390D01*
X59199999Y-77683390D02*
X59247618Y-77731009D01*
X59247618Y-77731009D02*
X59295237Y-77826247D01*
X59295237Y-77826247D02*
X59295237Y-78064342D01*
X59295237Y-78064342D02*
X59247618Y-78159580D01*
X59247618Y-78159580D02*
X59199999Y-78207200D01*
X59199999Y-78207200D02*
X59104761Y-78254819D01*
X59104761Y-78254819D02*
X58819047Y-78254819D01*
X58819047Y-78254819D02*
X58723809Y-78207200D01*
X58723809Y-78207200D02*
X58676190Y-78159580D01*
X60152380Y-77588152D02*
X60152380Y-78254819D01*
X59723809Y-77588152D02*
X59723809Y-78111961D01*
X59723809Y-78111961D02*
X59771428Y-78207200D01*
X59771428Y-78207200D02*
X59866666Y-78254819D01*
X59866666Y-78254819D02*
X60009523Y-78254819D01*
X60009523Y-78254819D02*
X60104761Y-78207200D01*
X60104761Y-78207200D02*
X60152380Y-78159580D01*
X60961904Y-77731009D02*
X60628571Y-77731009D01*
X60628571Y-78254819D02*
X60628571Y-77254819D01*
X60628571Y-77254819D02*
X61104761Y-77254819D01*
X112008095Y-88494819D02*
X112008095Y-89304342D01*
X112008095Y-89304342D02*
X112055714Y-89399580D01*
X112055714Y-89399580D02*
X112103333Y-89447200D01*
X112103333Y-89447200D02*
X112198571Y-89494819D01*
X112198571Y-89494819D02*
X112389047Y-89494819D01*
X112389047Y-89494819D02*
X112484285Y-89447200D01*
X112484285Y-89447200D02*
X112531904Y-89399580D01*
X112531904Y-89399580D02*
X112579523Y-89304342D01*
X112579523Y-89304342D02*
X112579523Y-88494819D01*
X113008095Y-89447200D02*
X113150952Y-89494819D01*
X113150952Y-89494819D02*
X113389047Y-89494819D01*
X113389047Y-89494819D02*
X113484285Y-89447200D01*
X113484285Y-89447200D02*
X113531904Y-89399580D01*
X113531904Y-89399580D02*
X113579523Y-89304342D01*
X113579523Y-89304342D02*
X113579523Y-89209104D01*
X113579523Y-89209104D02*
X113531904Y-89113866D01*
X113531904Y-89113866D02*
X113484285Y-89066247D01*
X113484285Y-89066247D02*
X113389047Y-89018628D01*
X113389047Y-89018628D02*
X113198571Y-88971009D01*
X113198571Y-88971009D02*
X113103333Y-88923390D01*
X113103333Y-88923390D02*
X113055714Y-88875771D01*
X113055714Y-88875771D02*
X113008095Y-88780533D01*
X113008095Y-88780533D02*
X113008095Y-88685295D01*
X113008095Y-88685295D02*
X113055714Y-88590057D01*
X113055714Y-88590057D02*
X113103333Y-88542438D01*
X113103333Y-88542438D02*
X113198571Y-88494819D01*
X113198571Y-88494819D02*
X113436666Y-88494819D01*
X113436666Y-88494819D02*
X113579523Y-88542438D01*
X114341428Y-88971009D02*
X114484285Y-89018628D01*
X114484285Y-89018628D02*
X114531904Y-89066247D01*
X114531904Y-89066247D02*
X114579523Y-89161485D01*
X114579523Y-89161485D02*
X114579523Y-89304342D01*
X114579523Y-89304342D02*
X114531904Y-89399580D01*
X114531904Y-89399580D02*
X114484285Y-89447200D01*
X114484285Y-89447200D02*
X114389047Y-89494819D01*
X114389047Y-89494819D02*
X114008095Y-89494819D01*
X114008095Y-89494819D02*
X114008095Y-88494819D01*
X114008095Y-88494819D02*
X114341428Y-88494819D01*
X114341428Y-88494819D02*
X114436666Y-88542438D01*
X114436666Y-88542438D02*
X114484285Y-88590057D01*
X114484285Y-88590057D02*
X114531904Y-88685295D01*
X114531904Y-88685295D02*
X114531904Y-88780533D01*
X114531904Y-88780533D02*
X114484285Y-88875771D01*
X114484285Y-88875771D02*
X114436666Y-88923390D01*
X114436666Y-88923390D02*
X114341428Y-88971009D01*
X114341428Y-88971009D02*
X114008095Y-88971009D01*
X85409580Y-69266666D02*
X85457200Y-69314285D01*
X85457200Y-69314285D02*
X85504819Y-69457142D01*
X85504819Y-69457142D02*
X85504819Y-69552380D01*
X85504819Y-69552380D02*
X85457200Y-69695237D01*
X85457200Y-69695237D02*
X85361961Y-69790475D01*
X85361961Y-69790475D02*
X85266723Y-69838094D01*
X85266723Y-69838094D02*
X85076247Y-69885713D01*
X85076247Y-69885713D02*
X84933390Y-69885713D01*
X84933390Y-69885713D02*
X84742914Y-69838094D01*
X84742914Y-69838094D02*
X84647676Y-69790475D01*
X84647676Y-69790475D02*
X84552438Y-69695237D01*
X84552438Y-69695237D02*
X84504819Y-69552380D01*
X84504819Y-69552380D02*
X84504819Y-69457142D01*
X84504819Y-69457142D02*
X84552438Y-69314285D01*
X84552438Y-69314285D02*
X84600057Y-69266666D01*
X84504819Y-68933332D02*
X84504819Y-68314285D01*
X84504819Y-68314285D02*
X84885771Y-68647618D01*
X84885771Y-68647618D02*
X84885771Y-68504761D01*
X84885771Y-68504761D02*
X84933390Y-68409523D01*
X84933390Y-68409523D02*
X84981009Y-68361904D01*
X84981009Y-68361904D02*
X85076247Y-68314285D01*
X85076247Y-68314285D02*
X85314342Y-68314285D01*
X85314342Y-68314285D02*
X85409580Y-68361904D01*
X85409580Y-68361904D02*
X85457200Y-68409523D01*
X85457200Y-68409523D02*
X85504819Y-68504761D01*
X85504819Y-68504761D02*
X85504819Y-68790475D01*
X85504819Y-68790475D02*
X85457200Y-68885713D01*
X85457200Y-68885713D02*
X85409580Y-68933332D01*
X64707143Y-77204819D02*
X64802381Y-77204819D01*
X64802381Y-77204819D02*
X64897619Y-77252438D01*
X64897619Y-77252438D02*
X64945238Y-77300057D01*
X64945238Y-77300057D02*
X64992857Y-77395295D01*
X64992857Y-77395295D02*
X65040476Y-77585771D01*
X65040476Y-77585771D02*
X65040476Y-77823866D01*
X65040476Y-77823866D02*
X64992857Y-78014342D01*
X64992857Y-78014342D02*
X64945238Y-78109580D01*
X64945238Y-78109580D02*
X64897619Y-78157200D01*
X64897619Y-78157200D02*
X64802381Y-78204819D01*
X64802381Y-78204819D02*
X64707143Y-78204819D01*
X64707143Y-78204819D02*
X64611905Y-78157200D01*
X64611905Y-78157200D02*
X64564286Y-78109580D01*
X64564286Y-78109580D02*
X64516667Y-78014342D01*
X64516667Y-78014342D02*
X64469048Y-77823866D01*
X64469048Y-77823866D02*
X64469048Y-77585771D01*
X64469048Y-77585771D02*
X64516667Y-77395295D01*
X64516667Y-77395295D02*
X64564286Y-77300057D01*
X64564286Y-77300057D02*
X64611905Y-77252438D01*
X64611905Y-77252438D02*
X64707143Y-77204819D01*
X65469048Y-78109580D02*
X65516667Y-78157200D01*
X65516667Y-78157200D02*
X65469048Y-78204819D01*
X65469048Y-78204819D02*
X65421429Y-78157200D01*
X65421429Y-78157200D02*
X65469048Y-78109580D01*
X65469048Y-78109580D02*
X65469048Y-78204819D01*
X66469047Y-78204819D02*
X65897619Y-78204819D01*
X66183333Y-78204819D02*
X66183333Y-77204819D01*
X66183333Y-77204819D02*
X66088095Y-77347676D01*
X66088095Y-77347676D02*
X65992857Y-77442914D01*
X65992857Y-77442914D02*
X65897619Y-77490533D01*
X67326190Y-77538152D02*
X67326190Y-78204819D01*
X66897619Y-77538152D02*
X66897619Y-78061961D01*
X66897619Y-78061961D02*
X66945238Y-78157200D01*
X66945238Y-78157200D02*
X67040476Y-78204819D01*
X67040476Y-78204819D02*
X67183333Y-78204819D01*
X67183333Y-78204819D02*
X67278571Y-78157200D01*
X67278571Y-78157200D02*
X67326190Y-78109580D01*
X68135714Y-77681009D02*
X67802381Y-77681009D01*
X67802381Y-78204819D02*
X67802381Y-77204819D01*
X67802381Y-77204819D02*
X68278571Y-77204819D01*
X71600952Y-77254819D02*
X71696190Y-77254819D01*
X71696190Y-77254819D02*
X71791428Y-77302438D01*
X71791428Y-77302438D02*
X71839047Y-77350057D01*
X71839047Y-77350057D02*
X71886666Y-77445295D01*
X71886666Y-77445295D02*
X71934285Y-77635771D01*
X71934285Y-77635771D02*
X71934285Y-77873866D01*
X71934285Y-77873866D02*
X71886666Y-78064342D01*
X71886666Y-78064342D02*
X71839047Y-78159580D01*
X71839047Y-78159580D02*
X71791428Y-78207200D01*
X71791428Y-78207200D02*
X71696190Y-78254819D01*
X71696190Y-78254819D02*
X71600952Y-78254819D01*
X71600952Y-78254819D02*
X71505714Y-78207200D01*
X71505714Y-78207200D02*
X71458095Y-78159580D01*
X71458095Y-78159580D02*
X71410476Y-78064342D01*
X71410476Y-78064342D02*
X71362857Y-77873866D01*
X71362857Y-77873866D02*
X71362857Y-77635771D01*
X71362857Y-77635771D02*
X71410476Y-77445295D01*
X71410476Y-77445295D02*
X71458095Y-77350057D01*
X71458095Y-77350057D02*
X71505714Y-77302438D01*
X71505714Y-77302438D02*
X71600952Y-77254819D01*
X72362857Y-78159580D02*
X72410476Y-78207200D01*
X72410476Y-78207200D02*
X72362857Y-78254819D01*
X72362857Y-78254819D02*
X72315238Y-78207200D01*
X72315238Y-78207200D02*
X72362857Y-78159580D01*
X72362857Y-78159580D02*
X72362857Y-78254819D01*
X72743809Y-77254819D02*
X73362856Y-77254819D01*
X73362856Y-77254819D02*
X73029523Y-77635771D01*
X73029523Y-77635771D02*
X73172380Y-77635771D01*
X73172380Y-77635771D02*
X73267618Y-77683390D01*
X73267618Y-77683390D02*
X73315237Y-77731009D01*
X73315237Y-77731009D02*
X73362856Y-77826247D01*
X73362856Y-77826247D02*
X73362856Y-78064342D01*
X73362856Y-78064342D02*
X73315237Y-78159580D01*
X73315237Y-78159580D02*
X73267618Y-78207200D01*
X73267618Y-78207200D02*
X73172380Y-78254819D01*
X73172380Y-78254819D02*
X72886666Y-78254819D01*
X72886666Y-78254819D02*
X72791428Y-78207200D01*
X72791428Y-78207200D02*
X72743809Y-78159580D01*
X73696190Y-77254819D02*
X74315237Y-77254819D01*
X74315237Y-77254819D02*
X73981904Y-77635771D01*
X73981904Y-77635771D02*
X74124761Y-77635771D01*
X74124761Y-77635771D02*
X74219999Y-77683390D01*
X74219999Y-77683390D02*
X74267618Y-77731009D01*
X74267618Y-77731009D02*
X74315237Y-77826247D01*
X74315237Y-77826247D02*
X74315237Y-78064342D01*
X74315237Y-78064342D02*
X74267618Y-78159580D01*
X74267618Y-78159580D02*
X74219999Y-78207200D01*
X74219999Y-78207200D02*
X74124761Y-78254819D01*
X74124761Y-78254819D02*
X73839047Y-78254819D01*
X73839047Y-78254819D02*
X73743809Y-78207200D01*
X73743809Y-78207200D02*
X73696190Y-78159580D01*
X75172380Y-77588152D02*
X75172380Y-78254819D01*
X74743809Y-77588152D02*
X74743809Y-78111961D01*
X74743809Y-78111961D02*
X74791428Y-78207200D01*
X74791428Y-78207200D02*
X74886666Y-78254819D01*
X74886666Y-78254819D02*
X75029523Y-78254819D01*
X75029523Y-78254819D02*
X75124761Y-78207200D01*
X75124761Y-78207200D02*
X75172380Y-78159580D01*
X75981904Y-77731009D02*
X75648571Y-77731009D01*
X75648571Y-78254819D02*
X75648571Y-77254819D01*
X75648571Y-77254819D02*
X76124761Y-77254819D01*
X99502438Y-62361904D02*
X99454819Y-62457142D01*
X99454819Y-62457142D02*
X99454819Y-62599999D01*
X99454819Y-62599999D02*
X99502438Y-62742856D01*
X99502438Y-62742856D02*
X99597676Y-62838094D01*
X99597676Y-62838094D02*
X99692914Y-62885713D01*
X99692914Y-62885713D02*
X99883390Y-62933332D01*
X99883390Y-62933332D02*
X100026247Y-62933332D01*
X100026247Y-62933332D02*
X100216723Y-62885713D01*
X100216723Y-62885713D02*
X100311961Y-62838094D01*
X100311961Y-62838094D02*
X100407200Y-62742856D01*
X100407200Y-62742856D02*
X100454819Y-62599999D01*
X100454819Y-62599999D02*
X100454819Y-62504761D01*
X100454819Y-62504761D02*
X100407200Y-62361904D01*
X100407200Y-62361904D02*
X100359580Y-62314285D01*
X100359580Y-62314285D02*
X100026247Y-62314285D01*
X100026247Y-62314285D02*
X100026247Y-62504761D01*
X100454819Y-61885713D02*
X99454819Y-61885713D01*
X99454819Y-61885713D02*
X100454819Y-61314285D01*
X100454819Y-61314285D02*
X99454819Y-61314285D01*
X100454819Y-60838094D02*
X99454819Y-60838094D01*
X99454819Y-60838094D02*
X99454819Y-60599999D01*
X99454819Y-60599999D02*
X99502438Y-60457142D01*
X99502438Y-60457142D02*
X99597676Y-60361904D01*
X99597676Y-60361904D02*
X99692914Y-60314285D01*
X99692914Y-60314285D02*
X99883390Y-60266666D01*
X99883390Y-60266666D02*
X100026247Y-60266666D01*
X100026247Y-60266666D02*
X100216723Y-60314285D01*
X100216723Y-60314285D02*
X100311961Y-60361904D01*
X100311961Y-60361904D02*
X100407200Y-60457142D01*
X100407200Y-60457142D02*
X100454819Y-60599999D01*
X100454819Y-60599999D02*
X100454819Y-60838094D01*
X110769999Y-78971009D02*
X110912856Y-79018628D01*
X110912856Y-79018628D02*
X110960475Y-79066247D01*
X110960475Y-79066247D02*
X111008094Y-79161485D01*
X111008094Y-79161485D02*
X111008094Y-79304342D01*
X111008094Y-79304342D02*
X110960475Y-79399580D01*
X110960475Y-79399580D02*
X110912856Y-79447200D01*
X110912856Y-79447200D02*
X110817618Y-79494819D01*
X110817618Y-79494819D02*
X110436666Y-79494819D01*
X110436666Y-79494819D02*
X110436666Y-78494819D01*
X110436666Y-78494819D02*
X110769999Y-78494819D01*
X110769999Y-78494819D02*
X110865237Y-78542438D01*
X110865237Y-78542438D02*
X110912856Y-78590057D01*
X110912856Y-78590057D02*
X110960475Y-78685295D01*
X110960475Y-78685295D02*
X110960475Y-78780533D01*
X110960475Y-78780533D02*
X110912856Y-78875771D01*
X110912856Y-78875771D02*
X110865237Y-78923390D01*
X110865237Y-78923390D02*
X110769999Y-78971009D01*
X110769999Y-78971009D02*
X110436666Y-78971009D01*
X111389047Y-79209104D02*
X111865237Y-79209104D01*
X111293809Y-79494819D02*
X111627142Y-78494819D01*
X111627142Y-78494819D02*
X111960475Y-79494819D01*
X112150952Y-78494819D02*
X112722380Y-78494819D01*
X112436666Y-79494819D02*
X112436666Y-78494819D01*
X112912857Y-78494819D02*
X113484285Y-78494819D01*
X113198571Y-79494819D02*
X113198571Y-78494819D01*
X113817619Y-78971009D02*
X114150952Y-78971009D01*
X114293809Y-79494819D02*
X113817619Y-79494819D01*
X113817619Y-79494819D02*
X113817619Y-78494819D01*
X113817619Y-78494819D02*
X114293809Y-78494819D01*
X115293809Y-79494819D02*
X114960476Y-79018628D01*
X114722381Y-79494819D02*
X114722381Y-78494819D01*
X114722381Y-78494819D02*
X115103333Y-78494819D01*
X115103333Y-78494819D02*
X115198571Y-78542438D01*
X115198571Y-78542438D02*
X115246190Y-78590057D01*
X115246190Y-78590057D02*
X115293809Y-78685295D01*
X115293809Y-78685295D02*
X115293809Y-78828152D01*
X115293809Y-78828152D02*
X115246190Y-78923390D01*
X115246190Y-78923390D02*
X115198571Y-78971009D01*
X115198571Y-78971009D02*
X115103333Y-79018628D01*
X115103333Y-79018628D02*
X114722381Y-79018628D01*
X115912857Y-79018628D02*
X115912857Y-79494819D01*
X115579524Y-78494819D02*
X115912857Y-79018628D01*
X115912857Y-79018628D02*
X116246190Y-78494819D01*
X115454819Y-71937142D02*
X115454819Y-71318095D01*
X115454819Y-71318095D02*
X115835771Y-71651428D01*
X115835771Y-71651428D02*
X115835771Y-71508571D01*
X115835771Y-71508571D02*
X115883390Y-71413333D01*
X115883390Y-71413333D02*
X115931009Y-71365714D01*
X115931009Y-71365714D02*
X116026247Y-71318095D01*
X116026247Y-71318095D02*
X116264342Y-71318095D01*
X116264342Y-71318095D02*
X116359580Y-71365714D01*
X116359580Y-71365714D02*
X116407200Y-71413333D01*
X116407200Y-71413333D02*
X116454819Y-71508571D01*
X116454819Y-71508571D02*
X116454819Y-71794285D01*
X116454819Y-71794285D02*
X116407200Y-71889523D01*
X116407200Y-71889523D02*
X116359580Y-71937142D01*
X115454819Y-70984761D02*
X115454819Y-70365714D01*
X115454819Y-70365714D02*
X115835771Y-70699047D01*
X115835771Y-70699047D02*
X115835771Y-70556190D01*
X115835771Y-70556190D02*
X115883390Y-70460952D01*
X115883390Y-70460952D02*
X115931009Y-70413333D01*
X115931009Y-70413333D02*
X116026247Y-70365714D01*
X116026247Y-70365714D02*
X116264342Y-70365714D01*
X116264342Y-70365714D02*
X116359580Y-70413333D01*
X116359580Y-70413333D02*
X116407200Y-70460952D01*
X116407200Y-70460952D02*
X116454819Y-70556190D01*
X116454819Y-70556190D02*
X116454819Y-70841904D01*
X116454819Y-70841904D02*
X116407200Y-70937142D01*
X116407200Y-70937142D02*
X116359580Y-70984761D01*
X115454819Y-69746666D02*
X115454819Y-69651428D01*
X115454819Y-69651428D02*
X115502438Y-69556190D01*
X115502438Y-69556190D02*
X115550057Y-69508571D01*
X115550057Y-69508571D02*
X115645295Y-69460952D01*
X115645295Y-69460952D02*
X115835771Y-69413333D01*
X115835771Y-69413333D02*
X116073866Y-69413333D01*
X116073866Y-69413333D02*
X116264342Y-69460952D01*
X116264342Y-69460952D02*
X116359580Y-69508571D01*
X116359580Y-69508571D02*
X116407200Y-69556190D01*
X116407200Y-69556190D02*
X116454819Y-69651428D01*
X116454819Y-69651428D02*
X116454819Y-69746666D01*
X116454819Y-69746666D02*
X116407200Y-69841904D01*
X116407200Y-69841904D02*
X116359580Y-69889523D01*
X116359580Y-69889523D02*
X116264342Y-69937142D01*
X116264342Y-69937142D02*
X116073866Y-69984761D01*
X116073866Y-69984761D02*
X115835771Y-69984761D01*
X115835771Y-69984761D02*
X115645295Y-69937142D01*
X115645295Y-69937142D02*
X115550057Y-69889523D01*
X115550057Y-69889523D02*
X115502438Y-69841904D01*
X115502438Y-69841904D02*
X115454819Y-69746666D01*
X116454819Y-69032380D02*
X116454819Y-68794285D01*
X116454819Y-68794285D02*
X116264342Y-68794285D01*
X116264342Y-68794285D02*
X116216723Y-68889523D01*
X116216723Y-68889523D02*
X116121485Y-68984761D01*
X116121485Y-68984761D02*
X115978628Y-69032380D01*
X115978628Y-69032380D02*
X115740533Y-69032380D01*
X115740533Y-69032380D02*
X115597676Y-68984761D01*
X115597676Y-68984761D02*
X115502438Y-68889523D01*
X115502438Y-68889523D02*
X115454819Y-68746666D01*
X115454819Y-68746666D02*
X115454819Y-68556190D01*
X115454819Y-68556190D02*
X115502438Y-68413333D01*
X115502438Y-68413333D02*
X115597676Y-68318095D01*
X115597676Y-68318095D02*
X115740533Y-68270476D01*
X115740533Y-68270476D02*
X115978628Y-68270476D01*
X115978628Y-68270476D02*
X116121485Y-68318095D01*
X116121485Y-68318095D02*
X116216723Y-68413333D01*
X116216723Y-68413333D02*
X116264342Y-68508571D01*
X116264342Y-68508571D02*
X116454819Y-68508571D01*
X116454819Y-68508571D02*
X116454819Y-68270476D01*
X91607143Y-104850057D02*
X91654762Y-104802438D01*
X91654762Y-104802438D02*
X91750000Y-104754819D01*
X91750000Y-104754819D02*
X91988095Y-104754819D01*
X91988095Y-104754819D02*
X92083333Y-104802438D01*
X92083333Y-104802438D02*
X92130952Y-104850057D01*
X92130952Y-104850057D02*
X92178571Y-104945295D01*
X92178571Y-104945295D02*
X92178571Y-105040533D01*
X92178571Y-105040533D02*
X92130952Y-105183390D01*
X92130952Y-105183390D02*
X91559524Y-105754819D01*
X91559524Y-105754819D02*
X92178571Y-105754819D01*
X92559524Y-104850057D02*
X92607143Y-104802438D01*
X92607143Y-104802438D02*
X92702381Y-104754819D01*
X92702381Y-104754819D02*
X92940476Y-104754819D01*
X92940476Y-104754819D02*
X93035714Y-104802438D01*
X93035714Y-104802438D02*
X93083333Y-104850057D01*
X93083333Y-104850057D02*
X93130952Y-104945295D01*
X93130952Y-104945295D02*
X93130952Y-105040533D01*
X93130952Y-105040533D02*
X93083333Y-105183390D01*
X93083333Y-105183390D02*
X92511905Y-105754819D01*
X92511905Y-105754819D02*
X93130952Y-105754819D01*
X93559524Y-105088152D02*
X93559524Y-106088152D01*
X93559524Y-105135771D02*
X93654762Y-105088152D01*
X93654762Y-105088152D02*
X93845238Y-105088152D01*
X93845238Y-105088152D02*
X93940476Y-105135771D01*
X93940476Y-105135771D02*
X93988095Y-105183390D01*
X93988095Y-105183390D02*
X94035714Y-105278628D01*
X94035714Y-105278628D02*
X94035714Y-105564342D01*
X94035714Y-105564342D02*
X93988095Y-105659580D01*
X93988095Y-105659580D02*
X93940476Y-105707200D01*
X93940476Y-105707200D02*
X93845238Y-105754819D01*
X93845238Y-105754819D02*
X93654762Y-105754819D01*
X93654762Y-105754819D02*
X93559524Y-105707200D01*
X94797619Y-105231009D02*
X94464286Y-105231009D01*
X94464286Y-105754819D02*
X94464286Y-104754819D01*
X94464286Y-104754819D02*
X94940476Y-104754819D01*
X71709580Y-71766666D02*
X71757200Y-71814285D01*
X71757200Y-71814285D02*
X71804819Y-71957142D01*
X71804819Y-71957142D02*
X71804819Y-72052380D01*
X71804819Y-72052380D02*
X71757200Y-72195237D01*
X71757200Y-72195237D02*
X71661961Y-72290475D01*
X71661961Y-72290475D02*
X71566723Y-72338094D01*
X71566723Y-72338094D02*
X71376247Y-72385713D01*
X71376247Y-72385713D02*
X71233390Y-72385713D01*
X71233390Y-72385713D02*
X71042914Y-72338094D01*
X71042914Y-72338094D02*
X70947676Y-72290475D01*
X70947676Y-72290475D02*
X70852438Y-72195237D01*
X70852438Y-72195237D02*
X70804819Y-72052380D01*
X70804819Y-72052380D02*
X70804819Y-71957142D01*
X70804819Y-71957142D02*
X70852438Y-71814285D01*
X70852438Y-71814285D02*
X70900057Y-71766666D01*
X70804819Y-71433332D02*
X70804819Y-70766666D01*
X70804819Y-70766666D02*
X71804819Y-71195237D01*
X91607143Y-85800057D02*
X91654762Y-85752438D01*
X91654762Y-85752438D02*
X91750000Y-85704819D01*
X91750000Y-85704819D02*
X91988095Y-85704819D01*
X91988095Y-85704819D02*
X92083333Y-85752438D01*
X92083333Y-85752438D02*
X92130952Y-85800057D01*
X92130952Y-85800057D02*
X92178571Y-85895295D01*
X92178571Y-85895295D02*
X92178571Y-85990533D01*
X92178571Y-85990533D02*
X92130952Y-86133390D01*
X92130952Y-86133390D02*
X91559524Y-86704819D01*
X91559524Y-86704819D02*
X92178571Y-86704819D01*
X92559524Y-85800057D02*
X92607143Y-85752438D01*
X92607143Y-85752438D02*
X92702381Y-85704819D01*
X92702381Y-85704819D02*
X92940476Y-85704819D01*
X92940476Y-85704819D02*
X93035714Y-85752438D01*
X93035714Y-85752438D02*
X93083333Y-85800057D01*
X93083333Y-85800057D02*
X93130952Y-85895295D01*
X93130952Y-85895295D02*
X93130952Y-85990533D01*
X93130952Y-85990533D02*
X93083333Y-86133390D01*
X93083333Y-86133390D02*
X92511905Y-86704819D01*
X92511905Y-86704819D02*
X93130952Y-86704819D01*
X93559524Y-86038152D02*
X93559524Y-87038152D01*
X93559524Y-86085771D02*
X93654762Y-86038152D01*
X93654762Y-86038152D02*
X93845238Y-86038152D01*
X93845238Y-86038152D02*
X93940476Y-86085771D01*
X93940476Y-86085771D02*
X93988095Y-86133390D01*
X93988095Y-86133390D02*
X94035714Y-86228628D01*
X94035714Y-86228628D02*
X94035714Y-86514342D01*
X94035714Y-86514342D02*
X93988095Y-86609580D01*
X93988095Y-86609580D02*
X93940476Y-86657200D01*
X93940476Y-86657200D02*
X93845238Y-86704819D01*
X93845238Y-86704819D02*
X93654762Y-86704819D01*
X93654762Y-86704819D02*
X93559524Y-86657200D01*
X94797619Y-86181009D02*
X94464286Y-86181009D01*
X94464286Y-86704819D02*
X94464286Y-85704819D01*
X94464286Y-85704819D02*
X94940476Y-85704819D01*
X68802438Y-108361904D02*
X68754819Y-108457142D01*
X68754819Y-108457142D02*
X68754819Y-108599999D01*
X68754819Y-108599999D02*
X68802438Y-108742856D01*
X68802438Y-108742856D02*
X68897676Y-108838094D01*
X68897676Y-108838094D02*
X68992914Y-108885713D01*
X68992914Y-108885713D02*
X69183390Y-108933332D01*
X69183390Y-108933332D02*
X69326247Y-108933332D01*
X69326247Y-108933332D02*
X69516723Y-108885713D01*
X69516723Y-108885713D02*
X69611961Y-108838094D01*
X69611961Y-108838094D02*
X69707200Y-108742856D01*
X69707200Y-108742856D02*
X69754819Y-108599999D01*
X69754819Y-108599999D02*
X69754819Y-108504761D01*
X69754819Y-108504761D02*
X69707200Y-108361904D01*
X69707200Y-108361904D02*
X69659580Y-108314285D01*
X69659580Y-108314285D02*
X69326247Y-108314285D01*
X69326247Y-108314285D02*
X69326247Y-108504761D01*
X69754819Y-107885713D02*
X68754819Y-107885713D01*
X68754819Y-107885713D02*
X69754819Y-107314285D01*
X69754819Y-107314285D02*
X68754819Y-107314285D01*
X69754819Y-106838094D02*
X68754819Y-106838094D01*
X68754819Y-106838094D02*
X68754819Y-106599999D01*
X68754819Y-106599999D02*
X68802438Y-106457142D01*
X68802438Y-106457142D02*
X68897676Y-106361904D01*
X68897676Y-106361904D02*
X68992914Y-106314285D01*
X68992914Y-106314285D02*
X69183390Y-106266666D01*
X69183390Y-106266666D02*
X69326247Y-106266666D01*
X69326247Y-106266666D02*
X69516723Y-106314285D01*
X69516723Y-106314285D02*
X69611961Y-106361904D01*
X69611961Y-106361904D02*
X69707200Y-106457142D01*
X69707200Y-106457142D02*
X69754819Y-106599999D01*
X69754819Y-106599999D02*
X69754819Y-106838094D01*
X112454819Y-71937142D02*
X112454819Y-71318095D01*
X112454819Y-71318095D02*
X112835771Y-71651428D01*
X112835771Y-71651428D02*
X112835771Y-71508571D01*
X112835771Y-71508571D02*
X112883390Y-71413333D01*
X112883390Y-71413333D02*
X112931009Y-71365714D01*
X112931009Y-71365714D02*
X113026247Y-71318095D01*
X113026247Y-71318095D02*
X113264342Y-71318095D01*
X113264342Y-71318095D02*
X113359580Y-71365714D01*
X113359580Y-71365714D02*
X113407200Y-71413333D01*
X113407200Y-71413333D02*
X113454819Y-71508571D01*
X113454819Y-71508571D02*
X113454819Y-71794285D01*
X113454819Y-71794285D02*
X113407200Y-71889523D01*
X113407200Y-71889523D02*
X113359580Y-71937142D01*
X112454819Y-70984761D02*
X112454819Y-70365714D01*
X112454819Y-70365714D02*
X112835771Y-70699047D01*
X112835771Y-70699047D02*
X112835771Y-70556190D01*
X112835771Y-70556190D02*
X112883390Y-70460952D01*
X112883390Y-70460952D02*
X112931009Y-70413333D01*
X112931009Y-70413333D02*
X113026247Y-70365714D01*
X113026247Y-70365714D02*
X113264342Y-70365714D01*
X113264342Y-70365714D02*
X113359580Y-70413333D01*
X113359580Y-70413333D02*
X113407200Y-70460952D01*
X113407200Y-70460952D02*
X113454819Y-70556190D01*
X113454819Y-70556190D02*
X113454819Y-70841904D01*
X113454819Y-70841904D02*
X113407200Y-70937142D01*
X113407200Y-70937142D02*
X113359580Y-70984761D01*
X112454819Y-69746666D02*
X112454819Y-69651428D01*
X112454819Y-69651428D02*
X112502438Y-69556190D01*
X112502438Y-69556190D02*
X112550057Y-69508571D01*
X112550057Y-69508571D02*
X112645295Y-69460952D01*
X112645295Y-69460952D02*
X112835771Y-69413333D01*
X112835771Y-69413333D02*
X113073866Y-69413333D01*
X113073866Y-69413333D02*
X113264342Y-69460952D01*
X113264342Y-69460952D02*
X113359580Y-69508571D01*
X113359580Y-69508571D02*
X113407200Y-69556190D01*
X113407200Y-69556190D02*
X113454819Y-69651428D01*
X113454819Y-69651428D02*
X113454819Y-69746666D01*
X113454819Y-69746666D02*
X113407200Y-69841904D01*
X113407200Y-69841904D02*
X113359580Y-69889523D01*
X113359580Y-69889523D02*
X113264342Y-69937142D01*
X113264342Y-69937142D02*
X113073866Y-69984761D01*
X113073866Y-69984761D02*
X112835771Y-69984761D01*
X112835771Y-69984761D02*
X112645295Y-69937142D01*
X112645295Y-69937142D02*
X112550057Y-69889523D01*
X112550057Y-69889523D02*
X112502438Y-69841904D01*
X112502438Y-69841904D02*
X112454819Y-69746666D01*
X113454819Y-69032380D02*
X113454819Y-68794285D01*
X113454819Y-68794285D02*
X113264342Y-68794285D01*
X113264342Y-68794285D02*
X113216723Y-68889523D01*
X113216723Y-68889523D02*
X113121485Y-68984761D01*
X113121485Y-68984761D02*
X112978628Y-69032380D01*
X112978628Y-69032380D02*
X112740533Y-69032380D01*
X112740533Y-69032380D02*
X112597676Y-68984761D01*
X112597676Y-68984761D02*
X112502438Y-68889523D01*
X112502438Y-68889523D02*
X112454819Y-68746666D01*
X112454819Y-68746666D02*
X112454819Y-68556190D01*
X112454819Y-68556190D02*
X112502438Y-68413333D01*
X112502438Y-68413333D02*
X112597676Y-68318095D01*
X112597676Y-68318095D02*
X112740533Y-68270476D01*
X112740533Y-68270476D02*
X112978628Y-68270476D01*
X112978628Y-68270476D02*
X113121485Y-68318095D01*
X113121485Y-68318095D02*
X113216723Y-68413333D01*
X113216723Y-68413333D02*
X113264342Y-68508571D01*
X113264342Y-68508571D02*
X113454819Y-68508571D01*
X113454819Y-68508571D02*
X113454819Y-68270476D01*
X79657143Y-77204819D02*
X79752381Y-77204819D01*
X79752381Y-77204819D02*
X79847619Y-77252438D01*
X79847619Y-77252438D02*
X79895238Y-77300057D01*
X79895238Y-77300057D02*
X79942857Y-77395295D01*
X79942857Y-77395295D02*
X79990476Y-77585771D01*
X79990476Y-77585771D02*
X79990476Y-77823866D01*
X79990476Y-77823866D02*
X79942857Y-78014342D01*
X79942857Y-78014342D02*
X79895238Y-78109580D01*
X79895238Y-78109580D02*
X79847619Y-78157200D01*
X79847619Y-78157200D02*
X79752381Y-78204819D01*
X79752381Y-78204819D02*
X79657143Y-78204819D01*
X79657143Y-78204819D02*
X79561905Y-78157200D01*
X79561905Y-78157200D02*
X79514286Y-78109580D01*
X79514286Y-78109580D02*
X79466667Y-78014342D01*
X79466667Y-78014342D02*
X79419048Y-77823866D01*
X79419048Y-77823866D02*
X79419048Y-77585771D01*
X79419048Y-77585771D02*
X79466667Y-77395295D01*
X79466667Y-77395295D02*
X79514286Y-77300057D01*
X79514286Y-77300057D02*
X79561905Y-77252438D01*
X79561905Y-77252438D02*
X79657143Y-77204819D01*
X80419048Y-78109580D02*
X80466667Y-78157200D01*
X80466667Y-78157200D02*
X80419048Y-78204819D01*
X80419048Y-78204819D02*
X80371429Y-78157200D01*
X80371429Y-78157200D02*
X80419048Y-78109580D01*
X80419048Y-78109580D02*
X80419048Y-78204819D01*
X81419047Y-78204819D02*
X80847619Y-78204819D01*
X81133333Y-78204819D02*
X81133333Y-77204819D01*
X81133333Y-77204819D02*
X81038095Y-77347676D01*
X81038095Y-77347676D02*
X80942857Y-77442914D01*
X80942857Y-77442914D02*
X80847619Y-77490533D01*
X82276190Y-77538152D02*
X82276190Y-78204819D01*
X81847619Y-77538152D02*
X81847619Y-78061961D01*
X81847619Y-78061961D02*
X81895238Y-78157200D01*
X81895238Y-78157200D02*
X81990476Y-78204819D01*
X81990476Y-78204819D02*
X82133333Y-78204819D01*
X82133333Y-78204819D02*
X82228571Y-78157200D01*
X82228571Y-78157200D02*
X82276190Y-78109580D01*
X83085714Y-77681009D02*
X82752381Y-77681009D01*
X82752381Y-78204819D02*
X82752381Y-77204819D01*
X82752381Y-77204819D02*
X83228571Y-77204819D01*
X110454819Y-71246666D02*
X110454819Y-71818094D01*
X110454819Y-71532380D02*
X109454819Y-71532380D01*
X109454819Y-71532380D02*
X109597676Y-71627618D01*
X109597676Y-71627618D02*
X109692914Y-71722856D01*
X109692914Y-71722856D02*
X109740533Y-71818094D01*
X109454819Y-70627618D02*
X109454819Y-70532380D01*
X109454819Y-70532380D02*
X109502438Y-70437142D01*
X109502438Y-70437142D02*
X109550057Y-70389523D01*
X109550057Y-70389523D02*
X109645295Y-70341904D01*
X109645295Y-70341904D02*
X109835771Y-70294285D01*
X109835771Y-70294285D02*
X110073866Y-70294285D01*
X110073866Y-70294285D02*
X110264342Y-70341904D01*
X110264342Y-70341904D02*
X110359580Y-70389523D01*
X110359580Y-70389523D02*
X110407200Y-70437142D01*
X110407200Y-70437142D02*
X110454819Y-70532380D01*
X110454819Y-70532380D02*
X110454819Y-70627618D01*
X110454819Y-70627618D02*
X110407200Y-70722856D01*
X110407200Y-70722856D02*
X110359580Y-70770475D01*
X110359580Y-70770475D02*
X110264342Y-70818094D01*
X110264342Y-70818094D02*
X110073866Y-70865713D01*
X110073866Y-70865713D02*
X109835771Y-70865713D01*
X109835771Y-70865713D02*
X109645295Y-70818094D01*
X109645295Y-70818094D02*
X109550057Y-70770475D01*
X109550057Y-70770475D02*
X109502438Y-70722856D01*
X109502438Y-70722856D02*
X109454819Y-70627618D01*
X110454819Y-69865713D02*
X109454819Y-69865713D01*
X110073866Y-69770475D02*
X110454819Y-69484761D01*
X109788152Y-69484761D02*
X110169104Y-69865713D01*
X110454819Y-69103808D02*
X110454819Y-68865713D01*
X110454819Y-68865713D02*
X110264342Y-68865713D01*
X110264342Y-68865713D02*
X110216723Y-68960951D01*
X110216723Y-68960951D02*
X110121485Y-69056189D01*
X110121485Y-69056189D02*
X109978628Y-69103808D01*
X109978628Y-69103808D02*
X109740533Y-69103808D01*
X109740533Y-69103808D02*
X109597676Y-69056189D01*
X109597676Y-69056189D02*
X109502438Y-68960951D01*
X109502438Y-68960951D02*
X109454819Y-68818094D01*
X109454819Y-68818094D02*
X109454819Y-68627618D01*
X109454819Y-68627618D02*
X109502438Y-68484761D01*
X109502438Y-68484761D02*
X109597676Y-68389523D01*
X109597676Y-68389523D02*
X109740533Y-68341904D01*
X109740533Y-68341904D02*
X109978628Y-68341904D01*
X109978628Y-68341904D02*
X110121485Y-68389523D01*
X110121485Y-68389523D02*
X110216723Y-68484761D01*
X110216723Y-68484761D02*
X110264342Y-68579999D01*
X110264342Y-68579999D02*
X110454819Y-68579999D01*
X110454819Y-68579999D02*
X110454819Y-68341904D01*
X84789523Y-111854819D02*
X84218095Y-111854819D01*
X84503809Y-111854819D02*
X84503809Y-110854819D01*
X84503809Y-110854819D02*
X84408571Y-110997676D01*
X84408571Y-110997676D02*
X84313333Y-111092914D01*
X84313333Y-111092914D02*
X84218095Y-111140533D01*
X85218095Y-111854819D02*
X85218095Y-110854819D01*
X85313333Y-111473866D02*
X85599047Y-111854819D01*
X85599047Y-111188152D02*
X85218095Y-111569104D01*
X85980000Y-111854819D02*
X86218095Y-111854819D01*
X86218095Y-111854819D02*
X86218095Y-111664342D01*
X86218095Y-111664342D02*
X86122857Y-111616723D01*
X86122857Y-111616723D02*
X86027619Y-111521485D01*
X86027619Y-111521485D02*
X85980000Y-111378628D01*
X85980000Y-111378628D02*
X85980000Y-111140533D01*
X85980000Y-111140533D02*
X86027619Y-110997676D01*
X86027619Y-110997676D02*
X86122857Y-110902438D01*
X86122857Y-110902438D02*
X86265714Y-110854819D01*
X86265714Y-110854819D02*
X86456190Y-110854819D01*
X86456190Y-110854819D02*
X86599047Y-110902438D01*
X86599047Y-110902438D02*
X86694285Y-110997676D01*
X86694285Y-110997676D02*
X86741904Y-111140533D01*
X86741904Y-111140533D02*
X86741904Y-111378628D01*
X86741904Y-111378628D02*
X86694285Y-111521485D01*
X86694285Y-111521485D02*
X86599047Y-111616723D01*
X86599047Y-111616723D02*
X86503809Y-111664342D01*
X86503809Y-111664342D02*
X86503809Y-111854819D01*
X86503809Y-111854819D02*
X86741904Y-111854819D01*
X73366666Y-49229819D02*
X73366666Y-49944104D01*
X73366666Y-49944104D02*
X73319047Y-50086961D01*
X73319047Y-50086961D02*
X73223809Y-50182200D01*
X73223809Y-50182200D02*
X73080952Y-50229819D01*
X73080952Y-50229819D02*
X72985714Y-50229819D01*
X73747619Y-49229819D02*
X74366666Y-49229819D01*
X74366666Y-49229819D02*
X74033333Y-49610771D01*
X74033333Y-49610771D02*
X74176190Y-49610771D01*
X74176190Y-49610771D02*
X74271428Y-49658390D01*
X74271428Y-49658390D02*
X74319047Y-49706009D01*
X74319047Y-49706009D02*
X74366666Y-49801247D01*
X74366666Y-49801247D02*
X74366666Y-50039342D01*
X74366666Y-50039342D02*
X74319047Y-50134580D01*
X74319047Y-50134580D02*
X74271428Y-50182200D01*
X74271428Y-50182200D02*
X74176190Y-50229819D01*
X74176190Y-50229819D02*
X73890476Y-50229819D01*
X73890476Y-50229819D02*
X73795238Y-50182200D01*
X73795238Y-50182200D02*
X73747619Y-50134580D01*
X67628571Y-64389700D02*
X68771429Y-64389700D01*
X68200000Y-64961128D02*
X68200000Y-63818271D01*
X78628571Y-64389700D02*
X79771429Y-64389700D01*
D11*
%TO.C,1.2k\u03A9*%
X81540000Y-115400000D02*
X82310000Y-115400000D01*
X89620000Y-115400000D02*
X88850000Y-115400000D01*
X82310000Y-114030000D02*
X88850000Y-114030000D01*
X88850000Y-116770000D01*
X82310000Y-116770000D01*
X82310000Y-114030000D01*
%TO.C,U1*%
X57430000Y-86700000D02*
X57430000Y-96170000D01*
X57430000Y-86700000D02*
X67650000Y-86700000D01*
X57430000Y-96170000D02*
X67650000Y-96170000D01*
X57430000Y-96410000D02*
X57430000Y-96770000D01*
X57430000Y-97130000D02*
X57430000Y-97490000D01*
X57430000Y-97850000D02*
X57430000Y-98210000D01*
X57430000Y-98570000D02*
X57430000Y-98930000D01*
X57430000Y-99290000D02*
X57430000Y-99650000D01*
X57430000Y-100010000D02*
X57430000Y-100370000D01*
X57430000Y-100730000D02*
X57430000Y-101090000D01*
X57430000Y-101450000D02*
X57430000Y-101810000D01*
X57430000Y-102170000D02*
X57430000Y-102530000D01*
X57430000Y-102570000D02*
X57790000Y-102570000D01*
X58150000Y-102570000D02*
X58510000Y-102570000D01*
X58870000Y-102570000D02*
X59230000Y-102570000D01*
X59515000Y-86700000D02*
X59515000Y-84260000D01*
X59590000Y-102570000D02*
X59950000Y-102570000D01*
X60310000Y-102570000D02*
X60670000Y-102570000D01*
X60485000Y-86700000D02*
X60485000Y-84260000D01*
X61030000Y-102570000D02*
X61390000Y-102570000D01*
X61750000Y-102570000D02*
X62110000Y-102570000D01*
X62055000Y-86700000D02*
X62055000Y-84260000D01*
X62470000Y-102570000D02*
X62830000Y-102570000D01*
X63025000Y-86700000D02*
X63025000Y-84260000D01*
X63190000Y-102570000D02*
X63550000Y-102570000D01*
X63910000Y-102570000D02*
X64270000Y-102570000D01*
X64595000Y-86700000D02*
X64595000Y-84260000D01*
X64630000Y-102570000D02*
X64990000Y-102570000D01*
X65350000Y-102570000D02*
X65710000Y-102570000D01*
X65565000Y-86700000D02*
X65565000Y-84260000D01*
X66070000Y-102570000D02*
X66430000Y-102570000D01*
X66790000Y-102570000D02*
X67150000Y-102570000D01*
X67510000Y-102570000D02*
X67650000Y-102570000D01*
X67650000Y-86700000D02*
X67650000Y-96170000D01*
X67650000Y-96410000D02*
X67650000Y-96770000D01*
X67650000Y-97130000D02*
X67650000Y-97490000D01*
X67650000Y-97850000D02*
X67650000Y-98210000D01*
X67650000Y-98570000D02*
X67650000Y-98930000D01*
X67650000Y-99290000D02*
X67650000Y-99650000D01*
X67650000Y-100010000D02*
X67650000Y-100370000D01*
X67650000Y-100730000D02*
X67650000Y-101090000D01*
X67650000Y-101450000D02*
X67650000Y-101810000D01*
X67650000Y-102170000D02*
X67650000Y-102530000D01*
%TO.C,C5*%
X80920000Y-71600000D02*
G75*
G02*
X70680000Y-71600000I-5120000J0D01*
G01*
X70680000Y-71600000D02*
G75*
G02*
X80920000Y-71600000I5120000J0D01*
G01*
%TO.C,0.33uF*%
X57080000Y-78880000D02*
X60320000Y-78880000D01*
X57080000Y-79028000D02*
X57080000Y-78880000D01*
X57080000Y-81120000D02*
X57080000Y-80972000D01*
X60320000Y-78880000D02*
X60320000Y-79028000D01*
X60320000Y-80972000D02*
X60320000Y-81120000D01*
X60320000Y-81120000D02*
X57080000Y-81120000D01*
%TO.C,USB*%
X111710000Y-90764000D02*
X111710000Y-90920000D01*
X111710000Y-93080000D02*
X111710000Y-93236000D01*
X111710000Y-90764484D02*
G75*
G02*
X114941437Y-90920000I1560000J-1235516D01*
G01*
X112229039Y-90920000D02*
G75*
G02*
X114310961Y-90920000I1040961J-1080000D01*
G01*
X114310961Y-93080000D02*
G75*
G02*
X112229039Y-93080000I-1040961J1080000D01*
G01*
X114941437Y-93080000D02*
G75*
G02*
X111710000Y-93235516I-1671437J1080000D01*
G01*
%TO.C,C3*%
X86180000Y-67480000D02*
X86328000Y-67480000D01*
X86180000Y-70720000D02*
X86180000Y-67480000D01*
X86328000Y-70720000D02*
X86180000Y-70720000D01*
X88272000Y-67480000D02*
X88420000Y-67480000D01*
X88420000Y-67480000D02*
X88420000Y-70720000D01*
X88420000Y-70720000D02*
X88272000Y-70720000D01*
%TO.C,Y1*%
X90465000Y-98940000D02*
X90465000Y-92540000D01*
X95335000Y-92540000D02*
X95335000Y-98940000D01*
X90465000Y-92540000D02*
G75*
G02*
X95335000Y-92540000I2435000J0D01*
G01*
X95335000Y-98940000D02*
G75*
G02*
X90465000Y-98940000I-2435000J0D01*
G01*
%TO.C,0.1uF*%
X64730000Y-78880000D02*
X67970000Y-78880000D01*
X64730000Y-79028000D02*
X64730000Y-78880000D01*
X64730000Y-81120000D02*
X64730000Y-80972000D01*
X67970000Y-78880000D02*
X67970000Y-79028000D01*
X67970000Y-80972000D02*
X67970000Y-81120000D01*
X67970000Y-81120000D02*
X64730000Y-81120000D01*
%TO.C,0.33uF*%
X72100000Y-78880000D02*
X75340000Y-78880000D01*
X72100000Y-79028000D02*
X72100000Y-78880000D01*
X72100000Y-81120000D02*
X72100000Y-80972000D01*
X75340000Y-78880000D02*
X75340000Y-79028000D01*
X75340000Y-80972000D02*
X75340000Y-81120000D01*
X75340000Y-81120000D02*
X72100000Y-81120000D01*
%TO.C,SW1*%
X87350000Y-74500000D02*
X87350000Y-76000000D01*
X88600000Y-78500000D02*
X93100000Y-78500000D01*
X93100000Y-72000000D02*
X88600000Y-72000000D01*
X94350000Y-76000000D02*
X94350000Y-74500000D01*
%TO.C,GND*%
X85970000Y-63670000D02*
X85970000Y-66330000D01*
X98730000Y-63670000D02*
X85970000Y-63670000D01*
X98730000Y-63670000D02*
X98730000Y-66330000D01*
X98730000Y-66330000D02*
X85970000Y-66330000D01*
X101330000Y-65000000D02*
X101330000Y-66330000D01*
X101330000Y-66330000D02*
X100000000Y-66330000D01*
%TO.C,BATTERY*%
X111710000Y-80764000D02*
X111710000Y-80920000D01*
X111710000Y-83080000D02*
X111710000Y-83236000D01*
X111710000Y-80764484D02*
G75*
G02*
X114941437Y-80920000I1560000J-1235516D01*
G01*
X112229039Y-80920000D02*
G75*
G02*
X114310961Y-80920000I1040961J-1080000D01*
G01*
X114310961Y-83080000D02*
G75*
G02*
X112229039Y-83080000I-1040961J1080000D01*
G01*
X114941437Y-83080000D02*
G75*
G02*
X111710000Y-83235516I-1671437J1080000D01*
G01*
%TO.C,330\u03A9*%
X116000000Y-66040000D02*
X116000000Y-66810000D01*
X116000000Y-74120000D02*
X116000000Y-73350000D01*
X117370000Y-66810000D02*
X114630000Y-66810000D01*
X114630000Y-73350000D01*
X117370000Y-73350000D01*
X117370000Y-66810000D01*
%TO.C,22pF*%
X91630000Y-101980000D02*
X94870000Y-101980000D01*
X91630000Y-102128000D02*
X91630000Y-101980000D01*
X91630000Y-104220000D02*
X91630000Y-104072000D01*
X94870000Y-101980000D02*
X94870000Y-102128000D01*
X94870000Y-104072000D02*
X94870000Y-104220000D01*
X94870000Y-104220000D02*
X91630000Y-104220000D01*
%TO.C,U2*%
X98060000Y-71670000D02*
X98060000Y-107350000D01*
X98060000Y-107350000D02*
X103360000Y-107350000D01*
X99710000Y-71670000D02*
X98060000Y-71670000D01*
X103360000Y-71670000D02*
X101710000Y-71670000D01*
X103360000Y-107350000D02*
X103360000Y-71670000D01*
X101710000Y-71670000D02*
G75*
G02*
X99710000Y-71670000I-1000000J0D01*
G01*
%TO.C,U4*%
X82945000Y-104405000D02*
X82945000Y-109605000D01*
X82945000Y-109605000D02*
X84595000Y-109605000D01*
X86595000Y-109605000D02*
X88245000Y-109605000D01*
X88245000Y-104405000D02*
X82945000Y-104405000D01*
X88245000Y-109605000D02*
X88245000Y-104405000D01*
X84595000Y-109605000D02*
G75*
G02*
X86595000Y-109605000I1000000J0D01*
G01*
%TO.C,C7*%
X70220000Y-71600000D02*
G75*
G02*
X59980000Y-71600000I-5120000J0D01*
G01*
X59980000Y-71600000D02*
G75*
G02*
X70220000Y-71600000I5120000J0D01*
G01*
%TO.C,U3*%
X72430000Y-86700000D02*
X72430000Y-96170000D01*
X72430000Y-86700000D02*
X82650000Y-86700000D01*
X72430000Y-96170000D02*
X82650000Y-96170000D01*
X72430000Y-96410000D02*
X72430000Y-96770000D01*
X72430000Y-97130000D02*
X72430000Y-97490000D01*
X72430000Y-97850000D02*
X72430000Y-98210000D01*
X72430000Y-98570000D02*
X72430000Y-98930000D01*
X72430000Y-99290000D02*
X72430000Y-99650000D01*
X72430000Y-100010000D02*
X72430000Y-100370000D01*
X72430000Y-100730000D02*
X72430000Y-101090000D01*
X72430000Y-101450000D02*
X72430000Y-101810000D01*
X72430000Y-102170000D02*
X72430000Y-102530000D01*
X72430000Y-102570000D02*
X72790000Y-102570000D01*
X73150000Y-102570000D02*
X73510000Y-102570000D01*
X73870000Y-102570000D02*
X74230000Y-102570000D01*
X74515000Y-86700000D02*
X74515000Y-84260000D01*
X74590000Y-102570000D02*
X74950000Y-102570000D01*
X75310000Y-102570000D02*
X75670000Y-102570000D01*
X75485000Y-86700000D02*
X75485000Y-84260000D01*
X76030000Y-102570000D02*
X76390000Y-102570000D01*
X76750000Y-102570000D02*
X77110000Y-102570000D01*
X77055000Y-86700000D02*
X77055000Y-84260000D01*
X77470000Y-102570000D02*
X77830000Y-102570000D01*
X78025000Y-86700000D02*
X78025000Y-84260000D01*
X78190000Y-102570000D02*
X78550000Y-102570000D01*
X78910000Y-102570000D02*
X79270000Y-102570000D01*
X79595000Y-86700000D02*
X79595000Y-84260000D01*
X79630000Y-102570000D02*
X79990000Y-102570000D01*
X80350000Y-102570000D02*
X80710000Y-102570000D01*
X80565000Y-86700000D02*
X80565000Y-84260000D01*
X81070000Y-102570000D02*
X81430000Y-102570000D01*
X81790000Y-102570000D02*
X82150000Y-102570000D01*
X82510000Y-102570000D02*
X82650000Y-102570000D01*
X82650000Y-86700000D02*
X82650000Y-96170000D01*
X82650000Y-96410000D02*
X82650000Y-96770000D01*
X82650000Y-97130000D02*
X82650000Y-97490000D01*
X82650000Y-97850000D02*
X82650000Y-98210000D01*
X82650000Y-98570000D02*
X82650000Y-98930000D01*
X82650000Y-99290000D02*
X82650000Y-99650000D01*
X82650000Y-100010000D02*
X82650000Y-100370000D01*
X82650000Y-100730000D02*
X82650000Y-101090000D01*
X82650000Y-101450000D02*
X82650000Y-101810000D01*
X82650000Y-102170000D02*
X82650000Y-102530000D01*
%TO.C,22pF*%
X91630000Y-87380000D02*
X94870000Y-87380000D01*
X91630000Y-87528000D02*
X91630000Y-87380000D01*
X91630000Y-89620000D02*
X91630000Y-89472000D01*
X94870000Y-87380000D02*
X94870000Y-87528000D01*
X94870000Y-89472000D02*
X94870000Y-89620000D01*
X94870000Y-89620000D02*
X91630000Y-89620000D01*
%TO.C,GND*%
X66740000Y-107240000D02*
X68160000Y-107240000D01*
X66740000Y-118960000D02*
X66740000Y-107240000D01*
X68160000Y-107240000D02*
X68160000Y-111740000D01*
X69000000Y-109150000D02*
X69600000Y-109150000D01*
X69050000Y-112850000D02*
X69050000Y-118350000D01*
X69050000Y-118350000D02*
X69550000Y-118350000D01*
X69300000Y-109750000D02*
X69000000Y-109150000D01*
X69550000Y-112850000D02*
X69050000Y-112850000D01*
X69550000Y-118350000D02*
X69550000Y-112850000D01*
X69600000Y-109150000D02*
X69300000Y-109750000D01*
X71550000Y-112850000D02*
X71550000Y-118350000D01*
X71550000Y-118350000D02*
X72050000Y-118350000D01*
X71800000Y-118960000D02*
X66740000Y-118960000D01*
X71800000Y-118960000D02*
X76860000Y-118960000D01*
X72050000Y-112850000D02*
X71550000Y-112850000D01*
X72050000Y-118350000D02*
X72050000Y-112850000D01*
X74050000Y-112850000D02*
X74050000Y-118350000D01*
X74050000Y-118350000D02*
X74550000Y-118350000D01*
X74550000Y-112850000D02*
X74050000Y-112850000D01*
X74550000Y-118350000D02*
X74550000Y-112850000D01*
X75440000Y-107240000D02*
X75440000Y-111740000D01*
X76860000Y-107240000D02*
X75440000Y-107240000D01*
X76860000Y-118960000D02*
X76860000Y-107240000D01*
%TO.C,330\u03A9*%
X113000000Y-66040000D02*
X113000000Y-66810000D01*
X113000000Y-74120000D02*
X113000000Y-73350000D01*
X114370000Y-66810000D02*
X111630000Y-66810000D01*
X111630000Y-73350000D01*
X114370000Y-73350000D01*
X114370000Y-66810000D01*
%TO.C,0.1uF*%
X79680000Y-78880000D02*
X82920000Y-78880000D01*
X79680000Y-79028000D02*
X79680000Y-78880000D01*
X79680000Y-81120000D02*
X79680000Y-80972000D01*
X82920000Y-78880000D02*
X82920000Y-79028000D01*
X82920000Y-80972000D02*
X82920000Y-81120000D01*
X82920000Y-81120000D02*
X79680000Y-81120000D01*
%TO.C,10k\u03A9*%
X110000000Y-66040000D02*
X110000000Y-66810000D01*
X110000000Y-74120000D02*
X110000000Y-73350000D01*
X111370000Y-73350000D02*
X108630000Y-73350000D01*
X108630000Y-66810000D01*
X111370000Y-66810000D01*
X111370000Y-73350000D01*
%TO.C,1k\u03A9*%
X81440000Y-111400000D02*
X82210000Y-111400000D01*
X89520000Y-111400000D02*
X88750000Y-111400000D01*
X82210000Y-110030000D02*
X88750000Y-110030000D01*
X88750000Y-112770000D01*
X82210000Y-112770000D01*
X82210000Y-110030000D01*
%TO.C,J3*%
X68050000Y-53165000D02*
X68640000Y-53165000D01*
X68050000Y-55385000D02*
X68640000Y-55385000D01*
X68640000Y-51065000D02*
X68640000Y-53165000D01*
X68640000Y-51065000D02*
X78760000Y-51065000D01*
X68640000Y-55385000D02*
X68640000Y-60285000D01*
X68640000Y-60285000D02*
X78760000Y-60285000D01*
X78760000Y-51065000D02*
X78760000Y-53165000D01*
X78760000Y-53165000D02*
X79350000Y-53165000D01*
X78760000Y-55385000D02*
X78760000Y-60285000D01*
X78760000Y-55385000D02*
X79350000Y-55385000D01*
X68050000Y-55385000D02*
G75*
G02*
X68050000Y-53165000I0J1110000D01*
G01*
X79350000Y-53165000D02*
G75*
G02*
X79350000Y-55385000I0J-1110000D01*
G01*
%TD*%
M02*
