M48
; DRILL file {KiCad 9.0.3-9.0.3-0~ubuntu24.04.1} date 2025-08-12T13:47:41+0900
; FORMAT={-:-/ absolute / metric / decimal}
; #@! TF.CreationDate,2025-08-12T13:47:41+09:00
; #@! TF.GenerationSoftware,Kicad,Pcbnew,9.0.3-9.0.3-0~ubuntu24.04.1
; #@! TF.FileFunction,Plated,1,2,PTH
FMAT,2
METRIC
; #@! TA.AperFunction,Plated,PTH,ComponentDrill
T1C0.800
; #@! TA.AperFunction,Plated,PTH,ComponentDrill
T2C0.900
; #@! TA.AperFunction,Plated,PTH,ComponentDrill
T3C0.950
; #@! TA.AperFunction,Plated,PTH,ComponentDrill
T4C1.000
; #@! TA.AperFunction,Plated,PTH,ComponentDrill
T5C1.100
; #@! TA.AperFunction,Plated,PTH,ComponentDrill
T6C1.900
%
G90
G05
T1
X57.45Y-80.0
X59.95Y-80.0
X65.1Y-69.1
X65.1Y-74.1
X65.1Y-80.0
X67.6Y-80.0
X72.47Y-80.0
X74.97Y-80.0
X75.8Y-69.1
X75.8Y-74.1
X80.05Y-80.0
X80.4Y-111.4
X80.5Y-115.4
X81.785Y-105.735
X81.785Y-108.275
X82.55Y-80.0
X87.3Y-67.85
X87.3Y-70.35
X89.405Y-105.735
X89.405Y-108.275
X90.56Y-111.4
X90.66Y-115.4
X92.0Y-88.5
X92.0Y-103.1
X92.9Y-93.3
X92.9Y-98.18
X94.5Y-88.5
X94.5Y-103.1
X96.9Y-73.0
X96.9Y-75.54
X96.9Y-78.08
X96.9Y-80.62
X96.9Y-83.16
X96.9Y-85.7
X96.9Y-88.24
X96.9Y-90.78
X96.9Y-93.32
X96.9Y-95.86
X96.9Y-98.4
X96.9Y-100.94
X96.9Y-103.48
X96.9Y-106.02
X104.52Y-73.0
X104.52Y-75.54
X104.52Y-78.08
X104.52Y-80.62
X104.52Y-83.16
X104.52Y-85.7
X104.52Y-88.24
X104.52Y-90.78
X104.52Y-93.32
X104.52Y-95.86
X104.52Y-98.4
X104.52Y-100.94
X104.52Y-103.48
X104.52Y-106.02
X110.0Y-65.0
X110.0Y-75.16
X113.0Y-65.0
X113.0Y-75.16
X116.0Y-65.0
X116.0Y-75.16
T2
X112.0Y-82.0
X112.0Y-92.0
X114.54Y-82.0
X114.54Y-92.0
T3
X69.3Y-111.25
X71.8Y-111.25
X74.3Y-111.25
T4
X68.2Y-54.275
X79.2Y-54.275
X87.3Y-65.0
X89.84Y-65.0
X92.38Y-65.0
X94.92Y-65.0
X97.46Y-65.0
X100.0Y-65.0
T5
X60.0Y-83.0
X62.54Y-83.0
X65.08Y-83.0
X75.0Y-83.0
X77.54Y-83.0
X80.08Y-83.0
X87.6Y-73.0
X87.6Y-77.5
X94.1Y-73.0
X94.1Y-77.5
T6
X71.2Y-64.275
X76.2Y-64.275
M30
