%TF.GenerationSoftware,KiCad,Pcbnew,9.0.3-9.0.3-0~ubuntu24.04.1*%
%TF.CreationDate,2025-08-12T13:47:38+09:00*%
%TF.ProjectId,2025A_visualizer,32303235-415f-4766-9973-75616c697a65,rev?*%
%TF.SameCoordinates,Original*%
%TF.FileFunction,Soldermask,Bot*%
%TF.FilePolarity,Negative*%
%FSLAX46Y46*%
G04 Gerber Fmt 4.6, Leading zero omitted, Abs format (unit mm)*
G04 Created by KiCad (PCBNEW 9.0.3-9.0.3-0~ubuntu24.04.1) date 2025-08-12 13:47:38*
%MOMM*%
%LPD*%
G01*
G04 APERTURE LIST*
G04 Aperture macros list*
%AMRoundRect*
0 Rectangle with rounded corners*
0 $1 Rounding radius*
0 $2 $3 $4 $5 $6 $7 $8 $9 X,Y pos of 4 corners*
0 Add a 4 corners polygon primitive as box body*
4,1,4,$2,$3,$4,$5,$6,$7,$8,$9,$2,$3,0*
0 Add four circle primitives for the rounded corners*
1,1,$1+$1,$2,$3*
1,1,$1+$1,$4,$5*
1,1,$1+$1,$6,$7*
1,1,$1+$1,$8,$9*
0 Add four rect primitives between the rounded corners*
20,1,$1+$1,$2,$3,$4,$5,0*
20,1,$1+$1,$4,$5,$6,$7,0*
20,1,$1+$1,$6,$7,$8,$9,0*
20,1,$1+$1,$8,$9,$2,$3,0*%
G04 Aperture macros list end*
%ADD10C,1.600000*%
%ADD11C,3.500000*%
%ADD12R,1.905000X2.000000*%
%ADD13O,1.905000X2.000000*%
%ADD14R,1.800000X1.800000*%
%ADD15C,1.800000*%
%ADD16C,1.500000*%
%ADD17C,2.000000*%
%ADD18R,1.700000X1.700000*%
%ADD19C,1.700000*%
%ADD20RoundRect,0.250000X-0.550000X-0.550000X0.550000X-0.550000X0.550000X0.550000X-0.550000X0.550000X0*%
%ADD21RoundRect,0.250000X0.550000X0.550000X-0.550000X0.550000X-0.550000X-0.550000X0.550000X-0.550000X0*%
%ADD22RoundRect,0.250000X-0.600000X-0.725000X0.600000X-0.725000X0.600000X0.725000X-0.600000X0.725000X0*%
%ADD23O,1.700000X1.950000*%
%ADD24C,1.400000*%
%ADD25RoundRect,0.770000X-0.980000X-0.980000X0.980000X-0.980000X0.980000X0.980000X-0.980000X0.980000X0*%
G04 APERTURE END LIST*
D10*
%TO.C,1.2k\u03A9*%
X80500000Y-115400000D03*
X90660000Y-115400000D03*
%TD*%
D11*
%TO.C,U1*%
X62540000Y-99660000D03*
D12*
X60000000Y-83000000D03*
D13*
X62540000Y-83000000D03*
X65080000Y-83000000D03*
%TD*%
D10*
%TO.C,C5*%
X75800000Y-69100000D03*
X75800000Y-74100000D03*
%TD*%
%TO.C,0.33uF*%
X59950000Y-80000000D03*
X57450000Y-80000000D03*
%TD*%
D14*
%TO.C,USB*%
X112000000Y-92000000D03*
D15*
X114540000Y-92000000D03*
%TD*%
D10*
%TO.C,C3*%
X87300000Y-70350000D03*
X87300000Y-67850000D03*
%TD*%
D16*
%TO.C,Y1*%
X92900000Y-93300000D03*
X92900000Y-98180000D03*
%TD*%
D10*
%TO.C,0.1uF*%
X65100000Y-80000000D03*
X67600000Y-80000000D03*
%TD*%
%TO.C,0.33uF*%
X74970000Y-80000000D03*
X72470000Y-80000000D03*
%TD*%
D17*
%TO.C,SW1*%
X87600000Y-73000000D03*
X94100000Y-73000000D03*
X87600000Y-77500000D03*
X94100000Y-77500000D03*
%TD*%
D18*
%TO.C,GND*%
X100000000Y-65000000D03*
D19*
X97460000Y-65000000D03*
X94920000Y-65000000D03*
X92380000Y-65000000D03*
X89840000Y-65000000D03*
X87300000Y-65000000D03*
%TD*%
D14*
%TO.C,BATTERY*%
X112000000Y-82000000D03*
D15*
X114540000Y-82000000D03*
%TD*%
D10*
%TO.C,330\u03A9*%
X116000000Y-65000000D03*
X116000000Y-75160000D03*
%TD*%
%TO.C,22pF*%
X92000000Y-103100000D03*
X94500000Y-103100000D03*
%TD*%
D20*
%TO.C,U2*%
X96900000Y-73000000D03*
D10*
X96900000Y-75540000D03*
X96900000Y-78080000D03*
X96900000Y-80620000D03*
X96900000Y-83160000D03*
X96900000Y-85700000D03*
X96900000Y-88240000D03*
X96900000Y-90780000D03*
X96900000Y-93320000D03*
X96900000Y-95860000D03*
X96900000Y-98400000D03*
X96900000Y-100940000D03*
X96900000Y-103480000D03*
X96900000Y-106020000D03*
X104520000Y-106020000D03*
X104520000Y-103480000D03*
X104520000Y-100940000D03*
X104520000Y-98400000D03*
X104520000Y-95860000D03*
X104520000Y-93320000D03*
X104520000Y-90780000D03*
X104520000Y-88240000D03*
X104520000Y-85700000D03*
X104520000Y-83160000D03*
X104520000Y-80620000D03*
X104520000Y-78080000D03*
X104520000Y-75540000D03*
X104520000Y-73000000D03*
%TD*%
D21*
%TO.C,U4*%
X89405000Y-108275000D03*
D10*
X89405000Y-105735000D03*
X81785000Y-105735000D03*
X81785000Y-108275000D03*
%TD*%
%TO.C,C7*%
X65100000Y-69100000D03*
X65100000Y-74100000D03*
%TD*%
D11*
%TO.C,U3*%
X77540000Y-99660000D03*
D12*
X75000000Y-83000000D03*
D13*
X77540000Y-83000000D03*
X80080000Y-83000000D03*
%TD*%
D10*
%TO.C,22pF*%
X92000000Y-88500000D03*
X94500000Y-88500000D03*
%TD*%
D22*
%TO.C,GND*%
X69300000Y-111250000D03*
D23*
X71800000Y-111250000D03*
X74300000Y-111250000D03*
%TD*%
D10*
%TO.C,330\u03A9*%
X113000000Y-65000000D03*
X113000000Y-75160000D03*
%TD*%
%TO.C,0.1uF*%
X80050000Y-80000000D03*
X82550000Y-80000000D03*
%TD*%
%TO.C,10k\u03A9*%
X110000000Y-75160000D03*
X110000000Y-65000000D03*
%TD*%
%TO.C,1k\u03A9*%
X80400000Y-111400000D03*
X90560000Y-111400000D03*
%TD*%
D24*
%TO.C,J3*%
X68200000Y-54275000D03*
X79200000Y-54275000D03*
D25*
X76200000Y-64275000D03*
D11*
X71200000Y-64275000D03*
%TD*%
M02*
