%TF.GenerationSoftware,KiCad,Pcbnew,8.0.9-8.0.9-0~ubuntu24.04.1*%
%TF.CreationDate,2025-04-23T22:26:13+09:00*%
%TF.ProjectId,LedController,4c656443-6f6e-4747-926f-6c6c65722e6b,rev?*%
%TF.SameCoordinates,Original*%
%TF.FileFunction,Profile,NP*%
%FSLAX46Y46*%
G04 Gerber Fmt 4.6, Leading zero omitted, Abs format (unit mm)*
G04 Created by KiCad (PCBNEW 8.0.9-8.0.9-0~ubuntu24.04.1) date 2025-04-23 22:26:13*
%MOMM*%
%LPD*%
G01*
G04 APERTURE LIST*
%TA.AperFunction,Profile*%
%ADD10C,0.050000*%
%TD*%
%ADD11C,0.150000*%
G04 APERTURE END LIST*
D10*
X49670000Y-53000000D02*
G75*
G02*
X46330000Y-53000000I-1670000J0D01*
G01*
X46330000Y-53000000D02*
G75*
G02*
X49670000Y-53000000I1670000J0D01*
G01*
X83670000Y-53000000D02*
G75*
G02*
X80330000Y-53000000I-1670000J0D01*
G01*
X80330000Y-53000000D02*
G75*
G02*
X83670000Y-53000000I1670000J0D01*
G01*
X83670000Y-107000000D02*
G75*
G02*
X80330000Y-107000000I-1670000J0D01*
G01*
X80330000Y-107000000D02*
G75*
G02*
X83670000Y-107000000I1670000J0D01*
G01*
X49670000Y-107000000D02*
G75*
G02*
X46330000Y-107000000I-1670000J0D01*
G01*
X46330000Y-107000000D02*
G75*
G02*
X49670000Y-107000000I1670000J0D01*
G01*
D11*
X88442438Y-88190476D02*
X88442438Y-89142857D01*
X88442438Y-89142857D02*
X89394819Y-89238095D01*
X89394819Y-89238095D02*
X89299580Y-89142857D01*
X89299580Y-89142857D02*
X89204342Y-88952381D01*
X89204342Y-88952381D02*
X89204342Y-88476190D01*
X89204342Y-88476190D02*
X89299580Y-88285714D01*
X89299580Y-88285714D02*
X89394819Y-88190476D01*
X89394819Y-88190476D02*
X89585295Y-88095238D01*
X89585295Y-88095238D02*
X90061485Y-88095238D01*
X90061485Y-88095238D02*
X90251961Y-88190476D01*
X90251961Y-88190476D02*
X90347200Y-88285714D01*
X90347200Y-88285714D02*
X90442438Y-88476190D01*
X90442438Y-88476190D02*
X90442438Y-88952381D01*
X90442438Y-88952381D02*
X90347200Y-89142857D01*
X90347200Y-89142857D02*
X90251961Y-89238095D01*
X89109104Y-86380952D02*
X90442438Y-86380952D01*
X88347200Y-86857143D02*
X89775771Y-87333333D01*
X89775771Y-87333333D02*
X89775771Y-86095238D01*
X90251961Y-85333333D02*
X90347200Y-85238095D01*
X90347200Y-85238095D02*
X90442438Y-85333333D01*
X90442438Y-85333333D02*
X90347200Y-85428571D01*
X90347200Y-85428571D02*
X90251961Y-85333333D01*
X90251961Y-85333333D02*
X90442438Y-85333333D01*
X88442438Y-84000000D02*
X88442438Y-83809523D01*
X88442438Y-83809523D02*
X88537676Y-83619047D01*
X88537676Y-83619047D02*
X88632914Y-83523809D01*
X88632914Y-83523809D02*
X88823390Y-83428571D01*
X88823390Y-83428571D02*
X89204342Y-83333333D01*
X89204342Y-83333333D02*
X89680533Y-83333333D01*
X89680533Y-83333333D02*
X90061485Y-83428571D01*
X90061485Y-83428571D02*
X90251961Y-83523809D01*
X90251961Y-83523809D02*
X90347200Y-83619047D01*
X90347200Y-83619047D02*
X90442438Y-83809523D01*
X90442438Y-83809523D02*
X90442438Y-84000000D01*
X90442438Y-84000000D02*
X90347200Y-84190476D01*
X90347200Y-84190476D02*
X90251961Y-84285714D01*
X90251961Y-84285714D02*
X90061485Y-84380952D01*
X90061485Y-84380952D02*
X89680533Y-84476190D01*
X89680533Y-84476190D02*
X89204342Y-84476190D01*
X89204342Y-84476190D02*
X88823390Y-84380952D01*
X88823390Y-84380952D02*
X88632914Y-84285714D01*
X88632914Y-84285714D02*
X88537676Y-84190476D01*
X88537676Y-84190476D02*
X88442438Y-84000000D01*
X88442438Y-82095238D02*
X88442438Y-81904761D01*
X88442438Y-81904761D02*
X88537676Y-81714285D01*
X88537676Y-81714285D02*
X88632914Y-81619047D01*
X88632914Y-81619047D02*
X88823390Y-81523809D01*
X88823390Y-81523809D02*
X89204342Y-81428571D01*
X89204342Y-81428571D02*
X89680533Y-81428571D01*
X89680533Y-81428571D02*
X90061485Y-81523809D01*
X90061485Y-81523809D02*
X90251961Y-81619047D01*
X90251961Y-81619047D02*
X90347200Y-81714285D01*
X90347200Y-81714285D02*
X90442438Y-81904761D01*
X90442438Y-81904761D02*
X90442438Y-82095238D01*
X90442438Y-82095238D02*
X90347200Y-82285714D01*
X90347200Y-82285714D02*
X90251961Y-82380952D01*
X90251961Y-82380952D02*
X90061485Y-82476190D01*
X90061485Y-82476190D02*
X89680533Y-82571428D01*
X89680533Y-82571428D02*
X89204342Y-82571428D01*
X89204342Y-82571428D02*
X88823390Y-82476190D01*
X88823390Y-82476190D02*
X88632914Y-82380952D01*
X88632914Y-82380952D02*
X88537676Y-82285714D01*
X88537676Y-82285714D02*
X88442438Y-82095238D01*
X88442438Y-80190476D02*
X88442438Y-79999999D01*
X88442438Y-79999999D02*
X88537676Y-79809523D01*
X88537676Y-79809523D02*
X88632914Y-79714285D01*
X88632914Y-79714285D02*
X88823390Y-79619047D01*
X88823390Y-79619047D02*
X89204342Y-79523809D01*
X89204342Y-79523809D02*
X89680533Y-79523809D01*
X89680533Y-79523809D02*
X90061485Y-79619047D01*
X90061485Y-79619047D02*
X90251961Y-79714285D01*
X90251961Y-79714285D02*
X90347200Y-79809523D01*
X90347200Y-79809523D02*
X90442438Y-79999999D01*
X90442438Y-79999999D02*
X90442438Y-80190476D01*
X90442438Y-80190476D02*
X90347200Y-80380952D01*
X90347200Y-80380952D02*
X90251961Y-80476190D01*
X90251961Y-80476190D02*
X90061485Y-80571428D01*
X90061485Y-80571428D02*
X89680533Y-80666666D01*
X89680533Y-80666666D02*
X89204342Y-80666666D01*
X89204342Y-80666666D02*
X88823390Y-80571428D01*
X88823390Y-80571428D02*
X88632914Y-80476190D01*
X88632914Y-80476190D02*
X88537676Y-80380952D01*
X88537676Y-80380952D02*
X88442438Y-80190476D01*
X88442438Y-78285714D02*
X88442438Y-78095237D01*
X88442438Y-78095237D02*
X88537676Y-77904761D01*
X88537676Y-77904761D02*
X88632914Y-77809523D01*
X88632914Y-77809523D02*
X88823390Y-77714285D01*
X88823390Y-77714285D02*
X89204342Y-77619047D01*
X89204342Y-77619047D02*
X89680533Y-77619047D01*
X89680533Y-77619047D02*
X90061485Y-77714285D01*
X90061485Y-77714285D02*
X90251961Y-77809523D01*
X90251961Y-77809523D02*
X90347200Y-77904761D01*
X90347200Y-77904761D02*
X90442438Y-78095237D01*
X90442438Y-78095237D02*
X90442438Y-78285714D01*
X90442438Y-78285714D02*
X90347200Y-78476190D01*
X90347200Y-78476190D02*
X90251961Y-78571428D01*
X90251961Y-78571428D02*
X90061485Y-78666666D01*
X90061485Y-78666666D02*
X89680533Y-78761904D01*
X89680533Y-78761904D02*
X89204342Y-78761904D01*
X89204342Y-78761904D02*
X88823390Y-78666666D01*
X88823390Y-78666666D02*
X88632914Y-78571428D01*
X88632914Y-78571428D02*
X88537676Y-78476190D01*
X88537676Y-78476190D02*
X88442438Y-78285714D01*
X90442438Y-75238094D02*
X89109104Y-75238094D01*
X89299580Y-75238094D02*
X89204342Y-75142856D01*
X89204342Y-75142856D02*
X89109104Y-74952380D01*
X89109104Y-74952380D02*
X89109104Y-74666665D01*
X89109104Y-74666665D02*
X89204342Y-74476189D01*
X89204342Y-74476189D02*
X89394819Y-74380951D01*
X89394819Y-74380951D02*
X90442438Y-74380951D01*
X89394819Y-74380951D02*
X89204342Y-74285713D01*
X89204342Y-74285713D02*
X89109104Y-74095237D01*
X89109104Y-74095237D02*
X89109104Y-73809523D01*
X89109104Y-73809523D02*
X89204342Y-73619046D01*
X89204342Y-73619046D02*
X89394819Y-73523808D01*
X89394819Y-73523808D02*
X90442438Y-73523808D01*
X90442438Y-72571427D02*
X89109104Y-72571427D01*
X89299580Y-72571427D02*
X89204342Y-72476189D01*
X89204342Y-72476189D02*
X89109104Y-72285713D01*
X89109104Y-72285713D02*
X89109104Y-71999998D01*
X89109104Y-71999998D02*
X89204342Y-71809522D01*
X89204342Y-71809522D02*
X89394819Y-71714284D01*
X89394819Y-71714284D02*
X90442438Y-71714284D01*
X89394819Y-71714284D02*
X89204342Y-71619046D01*
X89204342Y-71619046D02*
X89109104Y-71428570D01*
X89109104Y-71428570D02*
X89109104Y-71142856D01*
X89109104Y-71142856D02*
X89204342Y-70952379D01*
X89204342Y-70952379D02*
X89394819Y-70857141D01*
X89394819Y-70857141D02*
X90442438Y-70857141D01*
D10*
X82500000Y-53000000D02*
X92261420Y-53000000D01*
X82500000Y-107000000D02*
X92261420Y-107000000D01*
X91675000Y-53000000D02*
X91675000Y-107000000D01*
X91675000Y-53000000D02*
X91675000Y-107000000D01*
X91675000Y-53000000D02*
X92261421Y-54126504D01*
X91675000Y-53000000D02*
X91088579Y-54126504D01*
X91675000Y-107000000D02*
X91088579Y-105873496D01*
X91675000Y-107000000D02*
X92261421Y-105873496D01*
D11*
X38592438Y-88285714D02*
X38592438Y-88666667D01*
X38592438Y-88666667D02*
X38687676Y-88857143D01*
X38687676Y-88857143D02*
X38782914Y-88952381D01*
X38782914Y-88952381D02*
X39068628Y-89142857D01*
X39068628Y-89142857D02*
X39449580Y-89238095D01*
X39449580Y-89238095D02*
X40211485Y-89238095D01*
X40211485Y-89238095D02*
X40401961Y-89142857D01*
X40401961Y-89142857D02*
X40497200Y-89047619D01*
X40497200Y-89047619D02*
X40592438Y-88857143D01*
X40592438Y-88857143D02*
X40592438Y-88476190D01*
X40592438Y-88476190D02*
X40497200Y-88285714D01*
X40497200Y-88285714D02*
X40401961Y-88190476D01*
X40401961Y-88190476D02*
X40211485Y-88095238D01*
X40211485Y-88095238D02*
X39735295Y-88095238D01*
X39735295Y-88095238D02*
X39544819Y-88190476D01*
X39544819Y-88190476D02*
X39449580Y-88285714D01*
X39449580Y-88285714D02*
X39354342Y-88476190D01*
X39354342Y-88476190D02*
X39354342Y-88857143D01*
X39354342Y-88857143D02*
X39449580Y-89047619D01*
X39449580Y-89047619D02*
X39544819Y-89142857D01*
X39544819Y-89142857D02*
X39735295Y-89238095D01*
X38592438Y-86857143D02*
X38592438Y-86666666D01*
X38592438Y-86666666D02*
X38687676Y-86476190D01*
X38687676Y-86476190D02*
X38782914Y-86380952D01*
X38782914Y-86380952D02*
X38973390Y-86285714D01*
X38973390Y-86285714D02*
X39354342Y-86190476D01*
X39354342Y-86190476D02*
X39830533Y-86190476D01*
X39830533Y-86190476D02*
X40211485Y-86285714D01*
X40211485Y-86285714D02*
X40401961Y-86380952D01*
X40401961Y-86380952D02*
X40497200Y-86476190D01*
X40497200Y-86476190D02*
X40592438Y-86666666D01*
X40592438Y-86666666D02*
X40592438Y-86857143D01*
X40592438Y-86857143D02*
X40497200Y-87047619D01*
X40497200Y-87047619D02*
X40401961Y-87142857D01*
X40401961Y-87142857D02*
X40211485Y-87238095D01*
X40211485Y-87238095D02*
X39830533Y-87333333D01*
X39830533Y-87333333D02*
X39354342Y-87333333D01*
X39354342Y-87333333D02*
X38973390Y-87238095D01*
X38973390Y-87238095D02*
X38782914Y-87142857D01*
X38782914Y-87142857D02*
X38687676Y-87047619D01*
X38687676Y-87047619D02*
X38592438Y-86857143D01*
X40401961Y-85333333D02*
X40497200Y-85238095D01*
X40497200Y-85238095D02*
X40592438Y-85333333D01*
X40592438Y-85333333D02*
X40497200Y-85428571D01*
X40497200Y-85428571D02*
X40401961Y-85333333D01*
X40401961Y-85333333D02*
X40592438Y-85333333D01*
X38592438Y-84000000D02*
X38592438Y-83809523D01*
X38592438Y-83809523D02*
X38687676Y-83619047D01*
X38687676Y-83619047D02*
X38782914Y-83523809D01*
X38782914Y-83523809D02*
X38973390Y-83428571D01*
X38973390Y-83428571D02*
X39354342Y-83333333D01*
X39354342Y-83333333D02*
X39830533Y-83333333D01*
X39830533Y-83333333D02*
X40211485Y-83428571D01*
X40211485Y-83428571D02*
X40401961Y-83523809D01*
X40401961Y-83523809D02*
X40497200Y-83619047D01*
X40497200Y-83619047D02*
X40592438Y-83809523D01*
X40592438Y-83809523D02*
X40592438Y-84000000D01*
X40592438Y-84000000D02*
X40497200Y-84190476D01*
X40497200Y-84190476D02*
X40401961Y-84285714D01*
X40401961Y-84285714D02*
X40211485Y-84380952D01*
X40211485Y-84380952D02*
X39830533Y-84476190D01*
X39830533Y-84476190D02*
X39354342Y-84476190D01*
X39354342Y-84476190D02*
X38973390Y-84380952D01*
X38973390Y-84380952D02*
X38782914Y-84285714D01*
X38782914Y-84285714D02*
X38687676Y-84190476D01*
X38687676Y-84190476D02*
X38592438Y-84000000D01*
X38592438Y-82095238D02*
X38592438Y-81904761D01*
X38592438Y-81904761D02*
X38687676Y-81714285D01*
X38687676Y-81714285D02*
X38782914Y-81619047D01*
X38782914Y-81619047D02*
X38973390Y-81523809D01*
X38973390Y-81523809D02*
X39354342Y-81428571D01*
X39354342Y-81428571D02*
X39830533Y-81428571D01*
X39830533Y-81428571D02*
X40211485Y-81523809D01*
X40211485Y-81523809D02*
X40401961Y-81619047D01*
X40401961Y-81619047D02*
X40497200Y-81714285D01*
X40497200Y-81714285D02*
X40592438Y-81904761D01*
X40592438Y-81904761D02*
X40592438Y-82095238D01*
X40592438Y-82095238D02*
X40497200Y-82285714D01*
X40497200Y-82285714D02*
X40401961Y-82380952D01*
X40401961Y-82380952D02*
X40211485Y-82476190D01*
X40211485Y-82476190D02*
X39830533Y-82571428D01*
X39830533Y-82571428D02*
X39354342Y-82571428D01*
X39354342Y-82571428D02*
X38973390Y-82476190D01*
X38973390Y-82476190D02*
X38782914Y-82380952D01*
X38782914Y-82380952D02*
X38687676Y-82285714D01*
X38687676Y-82285714D02*
X38592438Y-82095238D01*
X38592438Y-80190476D02*
X38592438Y-79999999D01*
X38592438Y-79999999D02*
X38687676Y-79809523D01*
X38687676Y-79809523D02*
X38782914Y-79714285D01*
X38782914Y-79714285D02*
X38973390Y-79619047D01*
X38973390Y-79619047D02*
X39354342Y-79523809D01*
X39354342Y-79523809D02*
X39830533Y-79523809D01*
X39830533Y-79523809D02*
X40211485Y-79619047D01*
X40211485Y-79619047D02*
X40401961Y-79714285D01*
X40401961Y-79714285D02*
X40497200Y-79809523D01*
X40497200Y-79809523D02*
X40592438Y-79999999D01*
X40592438Y-79999999D02*
X40592438Y-80190476D01*
X40592438Y-80190476D02*
X40497200Y-80380952D01*
X40497200Y-80380952D02*
X40401961Y-80476190D01*
X40401961Y-80476190D02*
X40211485Y-80571428D01*
X40211485Y-80571428D02*
X39830533Y-80666666D01*
X39830533Y-80666666D02*
X39354342Y-80666666D01*
X39354342Y-80666666D02*
X38973390Y-80571428D01*
X38973390Y-80571428D02*
X38782914Y-80476190D01*
X38782914Y-80476190D02*
X38687676Y-80380952D01*
X38687676Y-80380952D02*
X38592438Y-80190476D01*
X38592438Y-78285714D02*
X38592438Y-78095237D01*
X38592438Y-78095237D02*
X38687676Y-77904761D01*
X38687676Y-77904761D02*
X38782914Y-77809523D01*
X38782914Y-77809523D02*
X38973390Y-77714285D01*
X38973390Y-77714285D02*
X39354342Y-77619047D01*
X39354342Y-77619047D02*
X39830533Y-77619047D01*
X39830533Y-77619047D02*
X40211485Y-77714285D01*
X40211485Y-77714285D02*
X40401961Y-77809523D01*
X40401961Y-77809523D02*
X40497200Y-77904761D01*
X40497200Y-77904761D02*
X40592438Y-78095237D01*
X40592438Y-78095237D02*
X40592438Y-78285714D01*
X40592438Y-78285714D02*
X40497200Y-78476190D01*
X40497200Y-78476190D02*
X40401961Y-78571428D01*
X40401961Y-78571428D02*
X40211485Y-78666666D01*
X40211485Y-78666666D02*
X39830533Y-78761904D01*
X39830533Y-78761904D02*
X39354342Y-78761904D01*
X39354342Y-78761904D02*
X38973390Y-78666666D01*
X38973390Y-78666666D02*
X38782914Y-78571428D01*
X38782914Y-78571428D02*
X38687676Y-78476190D01*
X38687676Y-78476190D02*
X38592438Y-78285714D01*
X40592438Y-75238094D02*
X39259104Y-75238094D01*
X39449580Y-75238094D02*
X39354342Y-75142856D01*
X39354342Y-75142856D02*
X39259104Y-74952380D01*
X39259104Y-74952380D02*
X39259104Y-74666665D01*
X39259104Y-74666665D02*
X39354342Y-74476189D01*
X39354342Y-74476189D02*
X39544819Y-74380951D01*
X39544819Y-74380951D02*
X40592438Y-74380951D01*
X39544819Y-74380951D02*
X39354342Y-74285713D01*
X39354342Y-74285713D02*
X39259104Y-74095237D01*
X39259104Y-74095237D02*
X39259104Y-73809523D01*
X39259104Y-73809523D02*
X39354342Y-73619046D01*
X39354342Y-73619046D02*
X39544819Y-73523808D01*
X39544819Y-73523808D02*
X40592438Y-73523808D01*
X40592438Y-72571427D02*
X39259104Y-72571427D01*
X39449580Y-72571427D02*
X39354342Y-72476189D01*
X39354342Y-72476189D02*
X39259104Y-72285713D01*
X39259104Y-72285713D02*
X39259104Y-71999998D01*
X39259104Y-71999998D02*
X39354342Y-71809522D01*
X39354342Y-71809522D02*
X39544819Y-71714284D01*
X39544819Y-71714284D02*
X40592438Y-71714284D01*
X39544819Y-71714284D02*
X39354342Y-71619046D01*
X39354342Y-71619046D02*
X39259104Y-71428570D01*
X39259104Y-71428570D02*
X39259104Y-71142856D01*
X39259104Y-71142856D02*
X39354342Y-70952379D01*
X39354342Y-70952379D02*
X39544819Y-70857141D01*
X39544819Y-70857141D02*
X40592438Y-70857141D01*
D10*
X44500000Y-50000000D02*
X41238580Y-50000000D01*
X44500000Y-110000000D02*
X41238580Y-110000000D01*
X41825000Y-50000000D02*
X41825000Y-110000000D01*
X41825000Y-50000000D02*
X41825000Y-110000000D01*
X41825000Y-50000000D02*
X42411421Y-51126504D01*
X41825000Y-50000000D02*
X41238579Y-51126504D01*
X41825000Y-110000000D02*
X41238579Y-108873496D01*
X41825000Y-110000000D02*
X42411421Y-108873496D01*
D11*
X55666666Y-44392438D02*
X56904761Y-44392438D01*
X56904761Y-44392438D02*
X56238094Y-45154342D01*
X56238094Y-45154342D02*
X56523809Y-45154342D01*
X56523809Y-45154342D02*
X56714285Y-45249580D01*
X56714285Y-45249580D02*
X56809523Y-45344819D01*
X56809523Y-45344819D02*
X56904761Y-45535295D01*
X56904761Y-45535295D02*
X56904761Y-46011485D01*
X56904761Y-46011485D02*
X56809523Y-46201961D01*
X56809523Y-46201961D02*
X56714285Y-46297200D01*
X56714285Y-46297200D02*
X56523809Y-46392438D01*
X56523809Y-46392438D02*
X55952380Y-46392438D01*
X55952380Y-46392438D02*
X55761904Y-46297200D01*
X55761904Y-46297200D02*
X55666666Y-46201961D01*
X58619047Y-45059104D02*
X58619047Y-46392438D01*
X58142856Y-44297200D02*
X57666666Y-45725771D01*
X57666666Y-45725771D02*
X58904761Y-45725771D01*
X59666666Y-46201961D02*
X59761904Y-46297200D01*
X59761904Y-46297200D02*
X59666666Y-46392438D01*
X59666666Y-46392438D02*
X59571428Y-46297200D01*
X59571428Y-46297200D02*
X59666666Y-46201961D01*
X59666666Y-46201961D02*
X59666666Y-46392438D01*
X60999999Y-44392438D02*
X61190476Y-44392438D01*
X61190476Y-44392438D02*
X61380952Y-44487676D01*
X61380952Y-44487676D02*
X61476190Y-44582914D01*
X61476190Y-44582914D02*
X61571428Y-44773390D01*
X61571428Y-44773390D02*
X61666666Y-45154342D01*
X61666666Y-45154342D02*
X61666666Y-45630533D01*
X61666666Y-45630533D02*
X61571428Y-46011485D01*
X61571428Y-46011485D02*
X61476190Y-46201961D01*
X61476190Y-46201961D02*
X61380952Y-46297200D01*
X61380952Y-46297200D02*
X61190476Y-46392438D01*
X61190476Y-46392438D02*
X60999999Y-46392438D01*
X60999999Y-46392438D02*
X60809523Y-46297200D01*
X60809523Y-46297200D02*
X60714285Y-46201961D01*
X60714285Y-46201961D02*
X60619047Y-46011485D01*
X60619047Y-46011485D02*
X60523809Y-45630533D01*
X60523809Y-45630533D02*
X60523809Y-45154342D01*
X60523809Y-45154342D02*
X60619047Y-44773390D01*
X60619047Y-44773390D02*
X60714285Y-44582914D01*
X60714285Y-44582914D02*
X60809523Y-44487676D01*
X60809523Y-44487676D02*
X60999999Y-44392438D01*
X62904761Y-44392438D02*
X63095238Y-44392438D01*
X63095238Y-44392438D02*
X63285714Y-44487676D01*
X63285714Y-44487676D02*
X63380952Y-44582914D01*
X63380952Y-44582914D02*
X63476190Y-44773390D01*
X63476190Y-44773390D02*
X63571428Y-45154342D01*
X63571428Y-45154342D02*
X63571428Y-45630533D01*
X63571428Y-45630533D02*
X63476190Y-46011485D01*
X63476190Y-46011485D02*
X63380952Y-46201961D01*
X63380952Y-46201961D02*
X63285714Y-46297200D01*
X63285714Y-46297200D02*
X63095238Y-46392438D01*
X63095238Y-46392438D02*
X62904761Y-46392438D01*
X62904761Y-46392438D02*
X62714285Y-46297200D01*
X62714285Y-46297200D02*
X62619047Y-46201961D01*
X62619047Y-46201961D02*
X62523809Y-46011485D01*
X62523809Y-46011485D02*
X62428571Y-45630533D01*
X62428571Y-45630533D02*
X62428571Y-45154342D01*
X62428571Y-45154342D02*
X62523809Y-44773390D01*
X62523809Y-44773390D02*
X62619047Y-44582914D01*
X62619047Y-44582914D02*
X62714285Y-44487676D01*
X62714285Y-44487676D02*
X62904761Y-44392438D01*
X64809523Y-44392438D02*
X65000000Y-44392438D01*
X65000000Y-44392438D02*
X65190476Y-44487676D01*
X65190476Y-44487676D02*
X65285714Y-44582914D01*
X65285714Y-44582914D02*
X65380952Y-44773390D01*
X65380952Y-44773390D02*
X65476190Y-45154342D01*
X65476190Y-45154342D02*
X65476190Y-45630533D01*
X65476190Y-45630533D02*
X65380952Y-46011485D01*
X65380952Y-46011485D02*
X65285714Y-46201961D01*
X65285714Y-46201961D02*
X65190476Y-46297200D01*
X65190476Y-46297200D02*
X65000000Y-46392438D01*
X65000000Y-46392438D02*
X64809523Y-46392438D01*
X64809523Y-46392438D02*
X64619047Y-46297200D01*
X64619047Y-46297200D02*
X64523809Y-46201961D01*
X64523809Y-46201961D02*
X64428571Y-46011485D01*
X64428571Y-46011485D02*
X64333333Y-45630533D01*
X64333333Y-45630533D02*
X64333333Y-45154342D01*
X64333333Y-45154342D02*
X64428571Y-44773390D01*
X64428571Y-44773390D02*
X64523809Y-44582914D01*
X64523809Y-44582914D02*
X64619047Y-44487676D01*
X64619047Y-44487676D02*
X64809523Y-44392438D01*
X66714285Y-44392438D02*
X66904762Y-44392438D01*
X66904762Y-44392438D02*
X67095238Y-44487676D01*
X67095238Y-44487676D02*
X67190476Y-44582914D01*
X67190476Y-44582914D02*
X67285714Y-44773390D01*
X67285714Y-44773390D02*
X67380952Y-45154342D01*
X67380952Y-45154342D02*
X67380952Y-45630533D01*
X67380952Y-45630533D02*
X67285714Y-46011485D01*
X67285714Y-46011485D02*
X67190476Y-46201961D01*
X67190476Y-46201961D02*
X67095238Y-46297200D01*
X67095238Y-46297200D02*
X66904762Y-46392438D01*
X66904762Y-46392438D02*
X66714285Y-46392438D01*
X66714285Y-46392438D02*
X66523809Y-46297200D01*
X66523809Y-46297200D02*
X66428571Y-46201961D01*
X66428571Y-46201961D02*
X66333333Y-46011485D01*
X66333333Y-46011485D02*
X66238095Y-45630533D01*
X66238095Y-45630533D02*
X66238095Y-45154342D01*
X66238095Y-45154342D02*
X66333333Y-44773390D01*
X66333333Y-44773390D02*
X66428571Y-44582914D01*
X66428571Y-44582914D02*
X66523809Y-44487676D01*
X66523809Y-44487676D02*
X66714285Y-44392438D01*
X69761905Y-46392438D02*
X69761905Y-45059104D01*
X69761905Y-45249580D02*
X69857143Y-45154342D01*
X69857143Y-45154342D02*
X70047619Y-45059104D01*
X70047619Y-45059104D02*
X70333334Y-45059104D01*
X70333334Y-45059104D02*
X70523810Y-45154342D01*
X70523810Y-45154342D02*
X70619048Y-45344819D01*
X70619048Y-45344819D02*
X70619048Y-46392438D01*
X70619048Y-45344819D02*
X70714286Y-45154342D01*
X70714286Y-45154342D02*
X70904762Y-45059104D01*
X70904762Y-45059104D02*
X71190476Y-45059104D01*
X71190476Y-45059104D02*
X71380953Y-45154342D01*
X71380953Y-45154342D02*
X71476191Y-45344819D01*
X71476191Y-45344819D02*
X71476191Y-46392438D01*
X72428572Y-46392438D02*
X72428572Y-45059104D01*
X72428572Y-45249580D02*
X72523810Y-45154342D01*
X72523810Y-45154342D02*
X72714286Y-45059104D01*
X72714286Y-45059104D02*
X73000001Y-45059104D01*
X73000001Y-45059104D02*
X73190477Y-45154342D01*
X73190477Y-45154342D02*
X73285715Y-45344819D01*
X73285715Y-45344819D02*
X73285715Y-46392438D01*
X73285715Y-45344819D02*
X73380953Y-45154342D01*
X73380953Y-45154342D02*
X73571429Y-45059104D01*
X73571429Y-45059104D02*
X73857143Y-45059104D01*
X73857143Y-45059104D02*
X74047620Y-45154342D01*
X74047620Y-45154342D02*
X74142858Y-45344819D01*
X74142858Y-45344819D02*
X74142858Y-46392438D01*
D10*
X48000000Y-52500000D02*
X48000000Y-47038580D01*
X82000000Y-52500000D02*
X82000000Y-47038580D01*
X48000000Y-47625000D02*
X82000000Y-47625000D01*
X48000000Y-47625000D02*
X82000000Y-47625000D01*
X48000000Y-47625000D02*
X49126504Y-47038579D01*
X48000000Y-47625000D02*
X49126504Y-48211421D01*
X82000000Y-47625000D02*
X80873496Y-48211421D01*
X82000000Y-47625000D02*
X80873496Y-47038579D01*
D11*
X56714285Y-113134104D02*
X56714285Y-114467438D01*
X56238094Y-112372200D02*
X55761904Y-113800771D01*
X55761904Y-113800771D02*
X56999999Y-113800771D01*
X58142856Y-112467438D02*
X58333333Y-112467438D01*
X58333333Y-112467438D02*
X58523809Y-112562676D01*
X58523809Y-112562676D02*
X58619047Y-112657914D01*
X58619047Y-112657914D02*
X58714285Y-112848390D01*
X58714285Y-112848390D02*
X58809523Y-113229342D01*
X58809523Y-113229342D02*
X58809523Y-113705533D01*
X58809523Y-113705533D02*
X58714285Y-114086485D01*
X58714285Y-114086485D02*
X58619047Y-114276961D01*
X58619047Y-114276961D02*
X58523809Y-114372200D01*
X58523809Y-114372200D02*
X58333333Y-114467438D01*
X58333333Y-114467438D02*
X58142856Y-114467438D01*
X58142856Y-114467438D02*
X57952380Y-114372200D01*
X57952380Y-114372200D02*
X57857142Y-114276961D01*
X57857142Y-114276961D02*
X57761904Y-114086485D01*
X57761904Y-114086485D02*
X57666666Y-113705533D01*
X57666666Y-113705533D02*
X57666666Y-113229342D01*
X57666666Y-113229342D02*
X57761904Y-112848390D01*
X57761904Y-112848390D02*
X57857142Y-112657914D01*
X57857142Y-112657914D02*
X57952380Y-112562676D01*
X57952380Y-112562676D02*
X58142856Y-112467438D01*
X59666666Y-114276961D02*
X59761904Y-114372200D01*
X59761904Y-114372200D02*
X59666666Y-114467438D01*
X59666666Y-114467438D02*
X59571428Y-114372200D01*
X59571428Y-114372200D02*
X59666666Y-114276961D01*
X59666666Y-114276961D02*
X59666666Y-114467438D01*
X60999999Y-112467438D02*
X61190476Y-112467438D01*
X61190476Y-112467438D02*
X61380952Y-112562676D01*
X61380952Y-112562676D02*
X61476190Y-112657914D01*
X61476190Y-112657914D02*
X61571428Y-112848390D01*
X61571428Y-112848390D02*
X61666666Y-113229342D01*
X61666666Y-113229342D02*
X61666666Y-113705533D01*
X61666666Y-113705533D02*
X61571428Y-114086485D01*
X61571428Y-114086485D02*
X61476190Y-114276961D01*
X61476190Y-114276961D02*
X61380952Y-114372200D01*
X61380952Y-114372200D02*
X61190476Y-114467438D01*
X61190476Y-114467438D02*
X60999999Y-114467438D01*
X60999999Y-114467438D02*
X60809523Y-114372200D01*
X60809523Y-114372200D02*
X60714285Y-114276961D01*
X60714285Y-114276961D02*
X60619047Y-114086485D01*
X60619047Y-114086485D02*
X60523809Y-113705533D01*
X60523809Y-113705533D02*
X60523809Y-113229342D01*
X60523809Y-113229342D02*
X60619047Y-112848390D01*
X60619047Y-112848390D02*
X60714285Y-112657914D01*
X60714285Y-112657914D02*
X60809523Y-112562676D01*
X60809523Y-112562676D02*
X60999999Y-112467438D01*
X62904761Y-112467438D02*
X63095238Y-112467438D01*
X63095238Y-112467438D02*
X63285714Y-112562676D01*
X63285714Y-112562676D02*
X63380952Y-112657914D01*
X63380952Y-112657914D02*
X63476190Y-112848390D01*
X63476190Y-112848390D02*
X63571428Y-113229342D01*
X63571428Y-113229342D02*
X63571428Y-113705533D01*
X63571428Y-113705533D02*
X63476190Y-114086485D01*
X63476190Y-114086485D02*
X63380952Y-114276961D01*
X63380952Y-114276961D02*
X63285714Y-114372200D01*
X63285714Y-114372200D02*
X63095238Y-114467438D01*
X63095238Y-114467438D02*
X62904761Y-114467438D01*
X62904761Y-114467438D02*
X62714285Y-114372200D01*
X62714285Y-114372200D02*
X62619047Y-114276961D01*
X62619047Y-114276961D02*
X62523809Y-114086485D01*
X62523809Y-114086485D02*
X62428571Y-113705533D01*
X62428571Y-113705533D02*
X62428571Y-113229342D01*
X62428571Y-113229342D02*
X62523809Y-112848390D01*
X62523809Y-112848390D02*
X62619047Y-112657914D01*
X62619047Y-112657914D02*
X62714285Y-112562676D01*
X62714285Y-112562676D02*
X62904761Y-112467438D01*
X64809523Y-112467438D02*
X65000000Y-112467438D01*
X65000000Y-112467438D02*
X65190476Y-112562676D01*
X65190476Y-112562676D02*
X65285714Y-112657914D01*
X65285714Y-112657914D02*
X65380952Y-112848390D01*
X65380952Y-112848390D02*
X65476190Y-113229342D01*
X65476190Y-113229342D02*
X65476190Y-113705533D01*
X65476190Y-113705533D02*
X65380952Y-114086485D01*
X65380952Y-114086485D02*
X65285714Y-114276961D01*
X65285714Y-114276961D02*
X65190476Y-114372200D01*
X65190476Y-114372200D02*
X65000000Y-114467438D01*
X65000000Y-114467438D02*
X64809523Y-114467438D01*
X64809523Y-114467438D02*
X64619047Y-114372200D01*
X64619047Y-114372200D02*
X64523809Y-114276961D01*
X64523809Y-114276961D02*
X64428571Y-114086485D01*
X64428571Y-114086485D02*
X64333333Y-113705533D01*
X64333333Y-113705533D02*
X64333333Y-113229342D01*
X64333333Y-113229342D02*
X64428571Y-112848390D01*
X64428571Y-112848390D02*
X64523809Y-112657914D01*
X64523809Y-112657914D02*
X64619047Y-112562676D01*
X64619047Y-112562676D02*
X64809523Y-112467438D01*
X66714285Y-112467438D02*
X66904762Y-112467438D01*
X66904762Y-112467438D02*
X67095238Y-112562676D01*
X67095238Y-112562676D02*
X67190476Y-112657914D01*
X67190476Y-112657914D02*
X67285714Y-112848390D01*
X67285714Y-112848390D02*
X67380952Y-113229342D01*
X67380952Y-113229342D02*
X67380952Y-113705533D01*
X67380952Y-113705533D02*
X67285714Y-114086485D01*
X67285714Y-114086485D02*
X67190476Y-114276961D01*
X67190476Y-114276961D02*
X67095238Y-114372200D01*
X67095238Y-114372200D02*
X66904762Y-114467438D01*
X66904762Y-114467438D02*
X66714285Y-114467438D01*
X66714285Y-114467438D02*
X66523809Y-114372200D01*
X66523809Y-114372200D02*
X66428571Y-114276961D01*
X66428571Y-114276961D02*
X66333333Y-114086485D01*
X66333333Y-114086485D02*
X66238095Y-113705533D01*
X66238095Y-113705533D02*
X66238095Y-113229342D01*
X66238095Y-113229342D02*
X66333333Y-112848390D01*
X66333333Y-112848390D02*
X66428571Y-112657914D01*
X66428571Y-112657914D02*
X66523809Y-112562676D01*
X66523809Y-112562676D02*
X66714285Y-112467438D01*
X69761905Y-114467438D02*
X69761905Y-113134104D01*
X69761905Y-113324580D02*
X69857143Y-113229342D01*
X69857143Y-113229342D02*
X70047619Y-113134104D01*
X70047619Y-113134104D02*
X70333334Y-113134104D01*
X70333334Y-113134104D02*
X70523810Y-113229342D01*
X70523810Y-113229342D02*
X70619048Y-113419819D01*
X70619048Y-113419819D02*
X70619048Y-114467438D01*
X70619048Y-113419819D02*
X70714286Y-113229342D01*
X70714286Y-113229342D02*
X70904762Y-113134104D01*
X70904762Y-113134104D02*
X71190476Y-113134104D01*
X71190476Y-113134104D02*
X71380953Y-113229342D01*
X71380953Y-113229342D02*
X71476191Y-113419819D01*
X71476191Y-113419819D02*
X71476191Y-114467438D01*
X72428572Y-114467438D02*
X72428572Y-113134104D01*
X72428572Y-113324580D02*
X72523810Y-113229342D01*
X72523810Y-113229342D02*
X72714286Y-113134104D01*
X72714286Y-113134104D02*
X73000001Y-113134104D01*
X73000001Y-113134104D02*
X73190477Y-113229342D01*
X73190477Y-113229342D02*
X73285715Y-113419819D01*
X73285715Y-113419819D02*
X73285715Y-114467438D01*
X73285715Y-113419819D02*
X73380953Y-113229342D01*
X73380953Y-113229342D02*
X73571429Y-113134104D01*
X73571429Y-113134104D02*
X73857143Y-113134104D01*
X73857143Y-113134104D02*
X74047620Y-113229342D01*
X74047620Y-113229342D02*
X74142858Y-113419819D01*
X74142858Y-113419819D02*
X74142858Y-114467438D01*
D10*
X45000000Y-110500000D02*
X45000000Y-116286420D01*
X85000000Y-110500000D02*
X85000000Y-116286420D01*
X45000000Y-115700000D02*
X85000000Y-115700000D01*
X45000000Y-115700000D02*
X85000000Y-115700000D01*
X45000000Y-115700000D02*
X46126504Y-115113579D01*
X45000000Y-115700000D02*
X46126504Y-116286421D01*
X85000000Y-115700000D02*
X83873496Y-116286421D01*
X85000000Y-115700000D02*
X83873496Y-115113579D01*
X45000000Y-50000000D02*
X85000000Y-50000000D01*
X85000000Y-110000000D01*
X45000000Y-110000000D01*
X45000000Y-50000000D01*
M02*
