M48
; DRILL file {KiCad 8.0.9-8.0.9-0~ubuntu24.04.1} date 2025-04-23T22:26:16+0900
; FORMAT={-:-/ absolute / inch / decimal}
; #@! TF.CreationDate,2025-04-23T22:26:16+09:00
; #@! TF.GenerationSoftware,Kicad,Pcbnew,8.0.9-8.0.9-0~ubuntu24.04.1
; #@! TF.FileFunction,Plated,1,2,PTH
FMAT,2
INCH
; #@! TA.AperFunction,Plated,PTH,ComponentDrill
T1C0.0315
; #@! TA.AperFunction,Plated,PTH,ComponentDrill
T2C0.0354
; #@! TA.AperFunction,Plated,PTH,ComponentDrill
T3C0.0374
; #@! TA.AperFunction,Plated,PTH,ComponentDrill
T4C0.0394
; #@! TA.AperFunction,Plated,PTH,ComponentDrill
T5C0.0433
; #@! TA.AperFunction,Plated,PTH,ComponentDrill
T6C0.0748
%
G90
G05
T1
X2.0492Y-2.3148
X2.0492Y-2.7148
X2.2264Y-2.7028
X2.2264Y-3.0551
X2.2654Y-3.2756
X2.2654Y-3.6535
X2.3638Y-3.2756
X2.3638Y-3.6535
X2.3642Y-2.7028
X2.3642Y-3.0551
X2.5827Y-3.6998
X2.5827Y-3.7982
X2.6526Y-2.0504
X2.6526Y-2.1504
X2.6526Y-2.2504
X2.6526Y-2.3504
X2.6526Y-2.4504
X2.6526Y-2.5504
X2.6526Y-2.6504
X2.6526Y-2.7504
X2.6526Y-2.8504
X2.6526Y-2.9504
X2.6526Y-3.0504
X2.6526Y-3.1504
X2.6526Y-3.2504
X2.6526Y-3.3504
X2.9526Y-2.0504
X2.9526Y-2.1504
X2.9526Y-2.2504
X2.9526Y-2.3504
X2.9526Y-2.4504
X2.9526Y-2.5504
X2.9526Y-2.6504
X2.9526Y-2.7504
X2.9526Y-2.8504
X2.9526Y-2.9504
X2.9526Y-3.0504
X2.9526Y-3.1504
X2.9526Y-3.2504
X2.9526Y-3.3504
X3.1122Y-2.249
X3.1122Y-2.4498
X3.1122Y-2.6427
X3.1122Y-2.8396
X3.2106Y-2.249
X3.2106Y-2.8396
X3.2146Y-3.5344
X3.2146Y-3.9344
T2
X2.0492Y-2.815
X2.0492Y-2.915
T3
X2.2382Y-2.314
X2.3366Y-2.314
X2.435Y-2.314
T4
X2.0197Y-4.1884
X2.4528Y-4.1884
X2.5236Y-3.4872
X2.5236Y-3.5872
X2.5843Y-3.9142
X2.6843Y-3.9142
X2.7843Y-3.9142
X2.8843Y-3.9142
X2.9843Y-3.9142
X3.0843Y-3.9142
T5
X3.0748Y-3.0945
X3.0748Y-3.3504
X3.252Y-3.0945
X3.252Y-3.3504
T6
X2.1378Y-3.7947
X2.3346Y-3.7947
M30
