%TF.GenerationSoftware,KiCad,Pcbnew,8.0.9-8.0.9-0~ubuntu24.04.1*%
%TF.CreationDate,2025-04-23T22:26:13+09:00*%
%TF.ProjectId,LedController,4c656443-6f6e-4747-926f-6c6c65722e6b,rev?*%
%TF.SameCoordinates,Original*%
%TF.FileFunction,Legend,Top*%
%TF.FilePolarity,Positive*%
%FSLAX46Y46*%
G04 Gerber Fmt 4.6, Leading zero omitted, Abs format (unit mm)*
G04 Created by KiCad (PCBNEW 8.0.9-8.0.9-0~ubuntu24.04.1) date 2025-04-23 22:26:13*
%MOMM*%
%LPD*%
G01*
G04 APERTURE LIST*
%ADD10C,0.150000*%
%ADD11C,0.120000*%
G04 APERTURE END LIST*
D10*
X77927438Y-97311904D02*
X77879819Y-97407142D01*
X77879819Y-97407142D02*
X77879819Y-97549999D01*
X77879819Y-97549999D02*
X77927438Y-97692856D01*
X77927438Y-97692856D02*
X78022676Y-97788094D01*
X78022676Y-97788094D02*
X78117914Y-97835713D01*
X78117914Y-97835713D02*
X78308390Y-97883332D01*
X78308390Y-97883332D02*
X78451247Y-97883332D01*
X78451247Y-97883332D02*
X78641723Y-97835713D01*
X78641723Y-97835713D02*
X78736961Y-97788094D01*
X78736961Y-97788094D02*
X78832200Y-97692856D01*
X78832200Y-97692856D02*
X78879819Y-97549999D01*
X78879819Y-97549999D02*
X78879819Y-97454761D01*
X78879819Y-97454761D02*
X78832200Y-97311904D01*
X78832200Y-97311904D02*
X78784580Y-97264285D01*
X78784580Y-97264285D02*
X78451247Y-97264285D01*
X78451247Y-97264285D02*
X78451247Y-97454761D01*
X78879819Y-96835713D02*
X77879819Y-96835713D01*
X77879819Y-96835713D02*
X78879819Y-96264285D01*
X78879819Y-96264285D02*
X77879819Y-96264285D01*
X78879819Y-95788094D02*
X77879819Y-95788094D01*
X77879819Y-95788094D02*
X77879819Y-95549999D01*
X77879819Y-95549999D02*
X77927438Y-95407142D01*
X77927438Y-95407142D02*
X78022676Y-95311904D01*
X78022676Y-95311904D02*
X78117914Y-95264285D01*
X78117914Y-95264285D02*
X78308390Y-95216666D01*
X78308390Y-95216666D02*
X78451247Y-95216666D01*
X78451247Y-95216666D02*
X78641723Y-95264285D01*
X78641723Y-95264285D02*
X78736961Y-95311904D01*
X78736961Y-95311904D02*
X78832200Y-95407142D01*
X78832200Y-95407142D02*
X78879819Y-95549999D01*
X78879819Y-95549999D02*
X78879819Y-95788094D01*
X59757200Y-64596428D02*
X59804819Y-64501190D01*
X59804819Y-64501190D02*
X59804819Y-64310714D01*
X59804819Y-64310714D02*
X59757200Y-64215476D01*
X59757200Y-64215476D02*
X59661961Y-64167857D01*
X59661961Y-64167857D02*
X59614342Y-64167857D01*
X59614342Y-64167857D02*
X59519104Y-64215476D01*
X59519104Y-64215476D02*
X59471485Y-64310714D01*
X59471485Y-64310714D02*
X59471485Y-64453571D01*
X59471485Y-64453571D02*
X59423866Y-64548809D01*
X59423866Y-64548809D02*
X59328628Y-64596428D01*
X59328628Y-64596428D02*
X59281009Y-64596428D01*
X59281009Y-64596428D02*
X59185771Y-64548809D01*
X59185771Y-64548809D02*
X59138152Y-64453571D01*
X59138152Y-64453571D02*
X59138152Y-64310714D01*
X59138152Y-64310714D02*
X59185771Y-64215476D01*
X59804819Y-63739285D02*
X59138152Y-63739285D01*
X58804819Y-63739285D02*
X58852438Y-63786904D01*
X58852438Y-63786904D02*
X58900057Y-63739285D01*
X58900057Y-63739285D02*
X58852438Y-63691666D01*
X58852438Y-63691666D02*
X58804819Y-63739285D01*
X58804819Y-63739285D02*
X58900057Y-63739285D01*
X59138152Y-62834524D02*
X59947676Y-62834524D01*
X59947676Y-62834524D02*
X60042914Y-62882143D01*
X60042914Y-62882143D02*
X60090533Y-62929762D01*
X60090533Y-62929762D02*
X60138152Y-63025000D01*
X60138152Y-63025000D02*
X60138152Y-63167857D01*
X60138152Y-63167857D02*
X60090533Y-63263095D01*
X59757200Y-62834524D02*
X59804819Y-62929762D01*
X59804819Y-62929762D02*
X59804819Y-63120238D01*
X59804819Y-63120238D02*
X59757200Y-63215476D01*
X59757200Y-63215476D02*
X59709580Y-63263095D01*
X59709580Y-63263095D02*
X59614342Y-63310714D01*
X59614342Y-63310714D02*
X59328628Y-63310714D01*
X59328628Y-63310714D02*
X59233390Y-63263095D01*
X59233390Y-63263095D02*
X59185771Y-63215476D01*
X59185771Y-63215476D02*
X59138152Y-63120238D01*
X59138152Y-63120238D02*
X59138152Y-62929762D01*
X59138152Y-62929762D02*
X59185771Y-62834524D01*
X59138152Y-62358333D02*
X59804819Y-62358333D01*
X59233390Y-62358333D02*
X59185771Y-62310714D01*
X59185771Y-62310714D02*
X59138152Y-62215476D01*
X59138152Y-62215476D02*
X59138152Y-62072619D01*
X59138152Y-62072619D02*
X59185771Y-61977381D01*
X59185771Y-61977381D02*
X59281009Y-61929762D01*
X59281009Y-61929762D02*
X59804819Y-61929762D01*
X59804819Y-61025000D02*
X59281009Y-61025000D01*
X59281009Y-61025000D02*
X59185771Y-61072619D01*
X59185771Y-61072619D02*
X59138152Y-61167857D01*
X59138152Y-61167857D02*
X59138152Y-61358333D01*
X59138152Y-61358333D02*
X59185771Y-61453571D01*
X59757200Y-61025000D02*
X59804819Y-61120238D01*
X59804819Y-61120238D02*
X59804819Y-61358333D01*
X59804819Y-61358333D02*
X59757200Y-61453571D01*
X59757200Y-61453571D02*
X59661961Y-61501190D01*
X59661961Y-61501190D02*
X59566723Y-61501190D01*
X59566723Y-61501190D02*
X59471485Y-61453571D01*
X59471485Y-61453571D02*
X59423866Y-61358333D01*
X59423866Y-61358333D02*
X59423866Y-61120238D01*
X59423866Y-61120238D02*
X59376247Y-61025000D01*
X59804819Y-60405952D02*
X59757200Y-60501190D01*
X59757200Y-60501190D02*
X59661961Y-60548809D01*
X59661961Y-60548809D02*
X58804819Y-60548809D01*
X57048866Y-63810713D02*
X57048866Y-63048809D01*
X57429819Y-63429761D02*
X56667914Y-63429761D01*
X56429819Y-62096428D02*
X56429819Y-62572618D01*
X56429819Y-62572618D02*
X56906009Y-62620237D01*
X56906009Y-62620237D02*
X56858390Y-62572618D01*
X56858390Y-62572618D02*
X56810771Y-62477380D01*
X56810771Y-62477380D02*
X56810771Y-62239285D01*
X56810771Y-62239285D02*
X56858390Y-62144047D01*
X56858390Y-62144047D02*
X56906009Y-62096428D01*
X56906009Y-62096428D02*
X57001247Y-62048809D01*
X57001247Y-62048809D02*
X57239342Y-62048809D01*
X57239342Y-62048809D02*
X57334580Y-62096428D01*
X57334580Y-62096428D02*
X57382200Y-62144047D01*
X57382200Y-62144047D02*
X57429819Y-62239285D01*
X57429819Y-62239285D02*
X57429819Y-62477380D01*
X57429819Y-62477380D02*
X57382200Y-62572618D01*
X57382200Y-62572618D02*
X57334580Y-62620237D01*
X56429819Y-61763094D02*
X57429819Y-61429761D01*
X57429819Y-61429761D02*
X56429819Y-61096428D01*
X75503628Y-65151190D02*
X75979819Y-65151190D01*
X74979819Y-65484523D02*
X75503628Y-65151190D01*
X75503628Y-65151190D02*
X74979819Y-64817857D01*
X75979819Y-63960714D02*
X75979819Y-64532142D01*
X75979819Y-64246428D02*
X74979819Y-64246428D01*
X74979819Y-64246428D02*
X75122676Y-64341666D01*
X75122676Y-64341666D02*
X75217914Y-64436904D01*
X75217914Y-64436904D02*
X75265533Y-64532142D01*
X67435714Y-94729819D02*
X67530952Y-94729819D01*
X67530952Y-94729819D02*
X67626190Y-94777438D01*
X67626190Y-94777438D02*
X67673809Y-94825057D01*
X67673809Y-94825057D02*
X67721428Y-94920295D01*
X67721428Y-94920295D02*
X67769047Y-95110771D01*
X67769047Y-95110771D02*
X67769047Y-95348866D01*
X67769047Y-95348866D02*
X67721428Y-95539342D01*
X67721428Y-95539342D02*
X67673809Y-95634580D01*
X67673809Y-95634580D02*
X67626190Y-95682200D01*
X67626190Y-95682200D02*
X67530952Y-95729819D01*
X67530952Y-95729819D02*
X67435714Y-95729819D01*
X67435714Y-95729819D02*
X67340476Y-95682200D01*
X67340476Y-95682200D02*
X67292857Y-95634580D01*
X67292857Y-95634580D02*
X67245238Y-95539342D01*
X67245238Y-95539342D02*
X67197619Y-95348866D01*
X67197619Y-95348866D02*
X67197619Y-95110771D01*
X67197619Y-95110771D02*
X67245238Y-94920295D01*
X67245238Y-94920295D02*
X67292857Y-94825057D01*
X67292857Y-94825057D02*
X67340476Y-94777438D01*
X67340476Y-94777438D02*
X67435714Y-94729819D01*
X68197619Y-95634580D02*
X68245238Y-95682200D01*
X68245238Y-95682200D02*
X68197619Y-95729819D01*
X68197619Y-95729819D02*
X68150000Y-95682200D01*
X68150000Y-95682200D02*
X68197619Y-95634580D01*
X68197619Y-95634580D02*
X68197619Y-95729819D01*
X69197618Y-95729819D02*
X68626190Y-95729819D01*
X68911904Y-95729819D02*
X68911904Y-94729819D01*
X68911904Y-94729819D02*
X68816666Y-94872676D01*
X68816666Y-94872676D02*
X68721428Y-94967914D01*
X68721428Y-94967914D02*
X68626190Y-95015533D01*
X69626190Y-95063152D02*
X69626190Y-96063152D01*
X70102380Y-95586961D02*
X70149999Y-95682200D01*
X70149999Y-95682200D02*
X70245237Y-95729819D01*
X69626190Y-95586961D02*
X69673809Y-95682200D01*
X69673809Y-95682200D02*
X69769047Y-95729819D01*
X69769047Y-95729819D02*
X69959523Y-95729819D01*
X69959523Y-95729819D02*
X70054761Y-95682200D01*
X70054761Y-95682200D02*
X70102380Y-95586961D01*
X70102380Y-95586961D02*
X70102380Y-95063152D01*
X71007142Y-95206009D02*
X70673809Y-95206009D01*
X70673809Y-95729819D02*
X70673809Y-94729819D01*
X70673809Y-94729819D02*
X71149999Y-94729819D01*
X61377438Y-63261904D02*
X61329819Y-63357142D01*
X61329819Y-63357142D02*
X61329819Y-63499999D01*
X61329819Y-63499999D02*
X61377438Y-63642856D01*
X61377438Y-63642856D02*
X61472676Y-63738094D01*
X61472676Y-63738094D02*
X61567914Y-63785713D01*
X61567914Y-63785713D02*
X61758390Y-63833332D01*
X61758390Y-63833332D02*
X61901247Y-63833332D01*
X61901247Y-63833332D02*
X62091723Y-63785713D01*
X62091723Y-63785713D02*
X62186961Y-63738094D01*
X62186961Y-63738094D02*
X62282200Y-63642856D01*
X62282200Y-63642856D02*
X62329819Y-63499999D01*
X62329819Y-63499999D02*
X62329819Y-63404761D01*
X62329819Y-63404761D02*
X62282200Y-63261904D01*
X62282200Y-63261904D02*
X62234580Y-63214285D01*
X62234580Y-63214285D02*
X61901247Y-63214285D01*
X61901247Y-63214285D02*
X61901247Y-63404761D01*
X62329819Y-62785713D02*
X61329819Y-62785713D01*
X61329819Y-62785713D02*
X62329819Y-62214285D01*
X62329819Y-62214285D02*
X61329819Y-62214285D01*
X62329819Y-61738094D02*
X61329819Y-61738094D01*
X61329819Y-61738094D02*
X61329819Y-61499999D01*
X61329819Y-61499999D02*
X61377438Y-61357142D01*
X61377438Y-61357142D02*
X61472676Y-61261904D01*
X61472676Y-61261904D02*
X61567914Y-61214285D01*
X61567914Y-61214285D02*
X61758390Y-61166666D01*
X61758390Y-61166666D02*
X61901247Y-61166666D01*
X61901247Y-61166666D02*
X62091723Y-61214285D01*
X62091723Y-61214285D02*
X62186961Y-61261904D01*
X62186961Y-61261904D02*
X62282200Y-61357142D01*
X62282200Y-61357142D02*
X62329819Y-61499999D01*
X62329819Y-61499999D02*
X62329819Y-61738094D01*
X56466666Y-110339819D02*
X56466666Y-111054104D01*
X56466666Y-111054104D02*
X56419047Y-111196961D01*
X56419047Y-111196961D02*
X56323809Y-111292200D01*
X56323809Y-111292200D02*
X56180952Y-111339819D01*
X56180952Y-111339819D02*
X56085714Y-111339819D01*
X56847619Y-110339819D02*
X57466666Y-110339819D01*
X57466666Y-110339819D02*
X57133333Y-110720771D01*
X57133333Y-110720771D02*
X57276190Y-110720771D01*
X57276190Y-110720771D02*
X57371428Y-110768390D01*
X57371428Y-110768390D02*
X57419047Y-110816009D01*
X57419047Y-110816009D02*
X57466666Y-110911247D01*
X57466666Y-110911247D02*
X57466666Y-111149342D01*
X57466666Y-111149342D02*
X57419047Y-111244580D01*
X57419047Y-111244580D02*
X57371428Y-111292200D01*
X57371428Y-111292200D02*
X57276190Y-111339819D01*
X57276190Y-111339819D02*
X56990476Y-111339819D01*
X56990476Y-111339819D02*
X56895238Y-111292200D01*
X56895238Y-111292200D02*
X56847619Y-111244580D01*
X61728571Y-96499700D02*
X62871429Y-96499700D01*
X62300000Y-97071128D02*
X62300000Y-95928271D01*
X50728571Y-96499700D02*
X51871429Y-96499700D01*
X51504819Y-65160713D02*
X51504819Y-64541666D01*
X51504819Y-64541666D02*
X51885771Y-64874999D01*
X51885771Y-64874999D02*
X51885771Y-64732142D01*
X51885771Y-64732142D02*
X51933390Y-64636904D01*
X51933390Y-64636904D02*
X51981009Y-64589285D01*
X51981009Y-64589285D02*
X52076247Y-64541666D01*
X52076247Y-64541666D02*
X52314342Y-64541666D01*
X52314342Y-64541666D02*
X52409580Y-64589285D01*
X52409580Y-64589285D02*
X52457200Y-64636904D01*
X52457200Y-64636904D02*
X52504819Y-64732142D01*
X52504819Y-64732142D02*
X52504819Y-65017856D01*
X52504819Y-65017856D02*
X52457200Y-65113094D01*
X52457200Y-65113094D02*
X52409580Y-65160713D01*
X51504819Y-64208332D02*
X51504819Y-63589285D01*
X51504819Y-63589285D02*
X51885771Y-63922618D01*
X51885771Y-63922618D02*
X51885771Y-63779761D01*
X51885771Y-63779761D02*
X51933390Y-63684523D01*
X51933390Y-63684523D02*
X51981009Y-63636904D01*
X51981009Y-63636904D02*
X52076247Y-63589285D01*
X52076247Y-63589285D02*
X52314342Y-63589285D01*
X52314342Y-63589285D02*
X52409580Y-63636904D01*
X52409580Y-63636904D02*
X52457200Y-63684523D01*
X52457200Y-63684523D02*
X52504819Y-63779761D01*
X52504819Y-63779761D02*
X52504819Y-64065475D01*
X52504819Y-64065475D02*
X52457200Y-64160713D01*
X52457200Y-64160713D02*
X52409580Y-64208332D01*
X51504819Y-62970237D02*
X51504819Y-62874999D01*
X51504819Y-62874999D02*
X51552438Y-62779761D01*
X51552438Y-62779761D02*
X51600057Y-62732142D01*
X51600057Y-62732142D02*
X51695295Y-62684523D01*
X51695295Y-62684523D02*
X51885771Y-62636904D01*
X51885771Y-62636904D02*
X52123866Y-62636904D01*
X52123866Y-62636904D02*
X52314342Y-62684523D01*
X52314342Y-62684523D02*
X52409580Y-62732142D01*
X52409580Y-62732142D02*
X52457200Y-62779761D01*
X52457200Y-62779761D02*
X52504819Y-62874999D01*
X52504819Y-62874999D02*
X52504819Y-62970237D01*
X52504819Y-62970237D02*
X52457200Y-63065475D01*
X52457200Y-63065475D02*
X52409580Y-63113094D01*
X52409580Y-63113094D02*
X52314342Y-63160713D01*
X52314342Y-63160713D02*
X52123866Y-63208332D01*
X52123866Y-63208332D02*
X51885771Y-63208332D01*
X51885771Y-63208332D02*
X51695295Y-63160713D01*
X51695295Y-63160713D02*
X51600057Y-63113094D01*
X51600057Y-63113094D02*
X51552438Y-63065475D01*
X51552438Y-63065475D02*
X51504819Y-62970237D01*
X78732143Y-54725057D02*
X78779762Y-54677438D01*
X78779762Y-54677438D02*
X78875000Y-54629819D01*
X78875000Y-54629819D02*
X79113095Y-54629819D01*
X79113095Y-54629819D02*
X79208333Y-54677438D01*
X79208333Y-54677438D02*
X79255952Y-54725057D01*
X79255952Y-54725057D02*
X79303571Y-54820295D01*
X79303571Y-54820295D02*
X79303571Y-54915533D01*
X79303571Y-54915533D02*
X79255952Y-55058390D01*
X79255952Y-55058390D02*
X78684524Y-55629819D01*
X78684524Y-55629819D02*
X79303571Y-55629819D01*
X79684524Y-54725057D02*
X79732143Y-54677438D01*
X79732143Y-54677438D02*
X79827381Y-54629819D01*
X79827381Y-54629819D02*
X80065476Y-54629819D01*
X80065476Y-54629819D02*
X80160714Y-54677438D01*
X80160714Y-54677438D02*
X80208333Y-54725057D01*
X80208333Y-54725057D02*
X80255952Y-54820295D01*
X80255952Y-54820295D02*
X80255952Y-54915533D01*
X80255952Y-54915533D02*
X80208333Y-55058390D01*
X80208333Y-55058390D02*
X79636905Y-55629819D01*
X79636905Y-55629819D02*
X80255952Y-55629819D01*
X80684524Y-54963152D02*
X80684524Y-55963152D01*
X80684524Y-55010771D02*
X80779762Y-54963152D01*
X80779762Y-54963152D02*
X80970238Y-54963152D01*
X80970238Y-54963152D02*
X81065476Y-55010771D01*
X81065476Y-55010771D02*
X81113095Y-55058390D01*
X81113095Y-55058390D02*
X81160714Y-55153628D01*
X81160714Y-55153628D02*
X81160714Y-55439342D01*
X81160714Y-55439342D02*
X81113095Y-55534580D01*
X81113095Y-55534580D02*
X81065476Y-55582200D01*
X81065476Y-55582200D02*
X80970238Y-55629819D01*
X80970238Y-55629819D02*
X80779762Y-55629819D01*
X80779762Y-55629819D02*
X80684524Y-55582200D01*
X81922619Y-55106009D02*
X81589286Y-55106009D01*
X81589286Y-55629819D02*
X81589286Y-54629819D01*
X81589286Y-54629819D02*
X82065476Y-54629819D01*
X51459524Y-92304819D02*
X51554762Y-92304819D01*
X51554762Y-92304819D02*
X51650000Y-92352438D01*
X51650000Y-92352438D02*
X51697619Y-92400057D01*
X51697619Y-92400057D02*
X51745238Y-92495295D01*
X51745238Y-92495295D02*
X51792857Y-92685771D01*
X51792857Y-92685771D02*
X51792857Y-92923866D01*
X51792857Y-92923866D02*
X51745238Y-93114342D01*
X51745238Y-93114342D02*
X51697619Y-93209580D01*
X51697619Y-93209580D02*
X51650000Y-93257200D01*
X51650000Y-93257200D02*
X51554762Y-93304819D01*
X51554762Y-93304819D02*
X51459524Y-93304819D01*
X51459524Y-93304819D02*
X51364286Y-93257200D01*
X51364286Y-93257200D02*
X51316667Y-93209580D01*
X51316667Y-93209580D02*
X51269048Y-93114342D01*
X51269048Y-93114342D02*
X51221429Y-92923866D01*
X51221429Y-92923866D02*
X51221429Y-92685771D01*
X51221429Y-92685771D02*
X51269048Y-92495295D01*
X51269048Y-92495295D02*
X51316667Y-92400057D01*
X51316667Y-92400057D02*
X51364286Y-92352438D01*
X51364286Y-92352438D02*
X51459524Y-92304819D01*
X52221429Y-93209580D02*
X52269048Y-93257200D01*
X52269048Y-93257200D02*
X52221429Y-93304819D01*
X52221429Y-93304819D02*
X52173810Y-93257200D01*
X52173810Y-93257200D02*
X52221429Y-93209580D01*
X52221429Y-93209580D02*
X52221429Y-93304819D01*
X52602381Y-92304819D02*
X53221428Y-92304819D01*
X53221428Y-92304819D02*
X52888095Y-92685771D01*
X52888095Y-92685771D02*
X53030952Y-92685771D01*
X53030952Y-92685771D02*
X53126190Y-92733390D01*
X53126190Y-92733390D02*
X53173809Y-92781009D01*
X53173809Y-92781009D02*
X53221428Y-92876247D01*
X53221428Y-92876247D02*
X53221428Y-93114342D01*
X53221428Y-93114342D02*
X53173809Y-93209580D01*
X53173809Y-93209580D02*
X53126190Y-93257200D01*
X53126190Y-93257200D02*
X53030952Y-93304819D01*
X53030952Y-93304819D02*
X52745238Y-93304819D01*
X52745238Y-93304819D02*
X52650000Y-93257200D01*
X52650000Y-93257200D02*
X52602381Y-93209580D01*
X53554762Y-92304819D02*
X54173809Y-92304819D01*
X54173809Y-92304819D02*
X53840476Y-92685771D01*
X53840476Y-92685771D02*
X53983333Y-92685771D01*
X53983333Y-92685771D02*
X54078571Y-92733390D01*
X54078571Y-92733390D02*
X54126190Y-92781009D01*
X54126190Y-92781009D02*
X54173809Y-92876247D01*
X54173809Y-92876247D02*
X54173809Y-93114342D01*
X54173809Y-93114342D02*
X54126190Y-93209580D01*
X54126190Y-93209580D02*
X54078571Y-93257200D01*
X54078571Y-93257200D02*
X53983333Y-93304819D01*
X53983333Y-93304819D02*
X53697619Y-93304819D01*
X53697619Y-93304819D02*
X53602381Y-93257200D01*
X53602381Y-93257200D02*
X53554762Y-93209580D01*
X54602381Y-92638152D02*
X54602381Y-93638152D01*
X55078571Y-93161961D02*
X55126190Y-93257200D01*
X55126190Y-93257200D02*
X55221428Y-93304819D01*
X54602381Y-93161961D02*
X54650000Y-93257200D01*
X54650000Y-93257200D02*
X54745238Y-93304819D01*
X54745238Y-93304819D02*
X54935714Y-93304819D01*
X54935714Y-93304819D02*
X55030952Y-93257200D01*
X55030952Y-93257200D02*
X55078571Y-93161961D01*
X55078571Y-93161961D02*
X55078571Y-92638152D01*
X55983333Y-92781009D02*
X55650000Y-92781009D01*
X55650000Y-93304819D02*
X55650000Y-92304819D01*
X55650000Y-92304819D02*
X56126190Y-92304819D01*
X80064819Y-104138333D02*
X80779104Y-104138333D01*
X80779104Y-104138333D02*
X80921961Y-104185952D01*
X80921961Y-104185952D02*
X81017200Y-104281190D01*
X81017200Y-104281190D02*
X81064819Y-104424047D01*
X81064819Y-104424047D02*
X81064819Y-104519285D01*
X81064819Y-103138333D02*
X81064819Y-103709761D01*
X81064819Y-103424047D02*
X80064819Y-103424047D01*
X80064819Y-103424047D02*
X80207676Y-103519285D01*
X80207676Y-103519285D02*
X80302914Y-103614523D01*
X80302914Y-103614523D02*
X80350533Y-103709761D01*
X78682143Y-73950057D02*
X78729762Y-73902438D01*
X78729762Y-73902438D02*
X78825000Y-73854819D01*
X78825000Y-73854819D02*
X79063095Y-73854819D01*
X79063095Y-73854819D02*
X79158333Y-73902438D01*
X79158333Y-73902438D02*
X79205952Y-73950057D01*
X79205952Y-73950057D02*
X79253571Y-74045295D01*
X79253571Y-74045295D02*
X79253571Y-74140533D01*
X79253571Y-74140533D02*
X79205952Y-74283390D01*
X79205952Y-74283390D02*
X78634524Y-74854819D01*
X78634524Y-74854819D02*
X79253571Y-74854819D01*
X79634524Y-73950057D02*
X79682143Y-73902438D01*
X79682143Y-73902438D02*
X79777381Y-73854819D01*
X79777381Y-73854819D02*
X80015476Y-73854819D01*
X80015476Y-73854819D02*
X80110714Y-73902438D01*
X80110714Y-73902438D02*
X80158333Y-73950057D01*
X80158333Y-73950057D02*
X80205952Y-74045295D01*
X80205952Y-74045295D02*
X80205952Y-74140533D01*
X80205952Y-74140533D02*
X80158333Y-74283390D01*
X80158333Y-74283390D02*
X79586905Y-74854819D01*
X79586905Y-74854819D02*
X80205952Y-74854819D01*
X80634524Y-74188152D02*
X80634524Y-75188152D01*
X80634524Y-74235771D02*
X80729762Y-74188152D01*
X80729762Y-74188152D02*
X80920238Y-74188152D01*
X80920238Y-74188152D02*
X81015476Y-74235771D01*
X81015476Y-74235771D02*
X81063095Y-74283390D01*
X81063095Y-74283390D02*
X81110714Y-74378628D01*
X81110714Y-74378628D02*
X81110714Y-74664342D01*
X81110714Y-74664342D02*
X81063095Y-74759580D01*
X81063095Y-74759580D02*
X81015476Y-74807200D01*
X81015476Y-74807200D02*
X80920238Y-74854819D01*
X80920238Y-74854819D02*
X80729762Y-74854819D01*
X80729762Y-74854819D02*
X80634524Y-74807200D01*
X81872619Y-74331009D02*
X81539286Y-74331009D01*
X81539286Y-74854819D02*
X81539286Y-73854819D01*
X81539286Y-73854819D02*
X82015476Y-73854819D01*
X61685714Y-82654819D02*
X61780952Y-82654819D01*
X61780952Y-82654819D02*
X61876190Y-82702438D01*
X61876190Y-82702438D02*
X61923809Y-82750057D01*
X61923809Y-82750057D02*
X61971428Y-82845295D01*
X61971428Y-82845295D02*
X62019047Y-83035771D01*
X62019047Y-83035771D02*
X62019047Y-83273866D01*
X62019047Y-83273866D02*
X61971428Y-83464342D01*
X61971428Y-83464342D02*
X61923809Y-83559580D01*
X61923809Y-83559580D02*
X61876190Y-83607200D01*
X61876190Y-83607200D02*
X61780952Y-83654819D01*
X61780952Y-83654819D02*
X61685714Y-83654819D01*
X61685714Y-83654819D02*
X61590476Y-83607200D01*
X61590476Y-83607200D02*
X61542857Y-83559580D01*
X61542857Y-83559580D02*
X61495238Y-83464342D01*
X61495238Y-83464342D02*
X61447619Y-83273866D01*
X61447619Y-83273866D02*
X61447619Y-83035771D01*
X61447619Y-83035771D02*
X61495238Y-82845295D01*
X61495238Y-82845295D02*
X61542857Y-82750057D01*
X61542857Y-82750057D02*
X61590476Y-82702438D01*
X61590476Y-82702438D02*
X61685714Y-82654819D01*
X62447619Y-83559580D02*
X62495238Y-83607200D01*
X62495238Y-83607200D02*
X62447619Y-83654819D01*
X62447619Y-83654819D02*
X62400000Y-83607200D01*
X62400000Y-83607200D02*
X62447619Y-83559580D01*
X62447619Y-83559580D02*
X62447619Y-83654819D01*
X63447618Y-83654819D02*
X62876190Y-83654819D01*
X63161904Y-83654819D02*
X63161904Y-82654819D01*
X63161904Y-82654819D02*
X63066666Y-82797676D01*
X63066666Y-82797676D02*
X62971428Y-82892914D01*
X62971428Y-82892914D02*
X62876190Y-82940533D01*
X63876190Y-82988152D02*
X63876190Y-83988152D01*
X64352380Y-83511961D02*
X64399999Y-83607200D01*
X64399999Y-83607200D02*
X64495237Y-83654819D01*
X63876190Y-83511961D02*
X63923809Y-83607200D01*
X63923809Y-83607200D02*
X64019047Y-83654819D01*
X64019047Y-83654819D02*
X64209523Y-83654819D01*
X64209523Y-83654819D02*
X64304761Y-83607200D01*
X64304761Y-83607200D02*
X64352380Y-83511961D01*
X64352380Y-83511961D02*
X64352380Y-82988152D01*
X65257142Y-83131009D02*
X64923809Y-83131009D01*
X64923809Y-83654819D02*
X64923809Y-82654819D01*
X64923809Y-82654819D02*
X65399999Y-82654819D01*
X82104819Y-96021666D02*
X82104819Y-96593094D01*
X82104819Y-96307380D02*
X81104819Y-96307380D01*
X81104819Y-96307380D02*
X81247676Y-96402618D01*
X81247676Y-96402618D02*
X81342914Y-96497856D01*
X81342914Y-96497856D02*
X81390533Y-96593094D01*
X81104819Y-95402618D02*
X81104819Y-95307380D01*
X81104819Y-95307380D02*
X81152438Y-95212142D01*
X81152438Y-95212142D02*
X81200057Y-95164523D01*
X81200057Y-95164523D02*
X81295295Y-95116904D01*
X81295295Y-95116904D02*
X81485771Y-95069285D01*
X81485771Y-95069285D02*
X81723866Y-95069285D01*
X81723866Y-95069285D02*
X81914342Y-95116904D01*
X81914342Y-95116904D02*
X82009580Y-95164523D01*
X82009580Y-95164523D02*
X82057200Y-95212142D01*
X82057200Y-95212142D02*
X82104819Y-95307380D01*
X82104819Y-95307380D02*
X82104819Y-95402618D01*
X82104819Y-95402618D02*
X82057200Y-95497856D01*
X82057200Y-95497856D02*
X82009580Y-95545475D01*
X82009580Y-95545475D02*
X81914342Y-95593094D01*
X81914342Y-95593094D02*
X81723866Y-95640713D01*
X81723866Y-95640713D02*
X81485771Y-95640713D01*
X81485771Y-95640713D02*
X81295295Y-95593094D01*
X81295295Y-95593094D02*
X81200057Y-95545475D01*
X81200057Y-95545475D02*
X81152438Y-95497856D01*
X81152438Y-95497856D02*
X81104819Y-95402618D01*
X82104819Y-94640713D02*
X81104819Y-94640713D01*
X81723866Y-94545475D02*
X82104819Y-94259761D01*
X81438152Y-94259761D02*
X81819104Y-94640713D01*
X82104819Y-93878808D02*
X82104819Y-93640713D01*
X82104819Y-93640713D02*
X81914342Y-93640713D01*
X81914342Y-93640713D02*
X81866723Y-93735951D01*
X81866723Y-93735951D02*
X81771485Y-93831189D01*
X81771485Y-93831189D02*
X81628628Y-93878808D01*
X81628628Y-93878808D02*
X81390533Y-93878808D01*
X81390533Y-93878808D02*
X81247676Y-93831189D01*
X81247676Y-93831189D02*
X81152438Y-93735951D01*
X81152438Y-93735951D02*
X81104819Y-93593094D01*
X81104819Y-93593094D02*
X81104819Y-93402618D01*
X81104819Y-93402618D02*
X81152438Y-93259761D01*
X81152438Y-93259761D02*
X81247676Y-93164523D01*
X81247676Y-93164523D02*
X81390533Y-93116904D01*
X81390533Y-93116904D02*
X81628628Y-93116904D01*
X81628628Y-93116904D02*
X81771485Y-93164523D01*
X81771485Y-93164523D02*
X81866723Y-93259761D01*
X81866723Y-93259761D02*
X81914342Y-93354999D01*
X81914342Y-93354999D02*
X82104819Y-93354999D01*
X82104819Y-93354999D02*
X82104819Y-93116904D01*
X68151666Y-85759819D02*
X68151666Y-86474104D01*
X68151666Y-86474104D02*
X68104047Y-86616961D01*
X68104047Y-86616961D02*
X68008809Y-86712200D01*
X68008809Y-86712200D02*
X67865952Y-86759819D01*
X67865952Y-86759819D02*
X67770714Y-86759819D01*
X69056428Y-86093152D02*
X69056428Y-86759819D01*
X68818333Y-85712200D02*
X68580238Y-86426485D01*
X68580238Y-86426485D02*
X69199285Y-86426485D01*
X49163866Y-74055713D02*
X49163866Y-73293809D01*
X49544819Y-73674761D02*
X48782914Y-73674761D01*
X48544819Y-72341428D02*
X48544819Y-72817618D01*
X48544819Y-72817618D02*
X49021009Y-72865237D01*
X49021009Y-72865237D02*
X48973390Y-72817618D01*
X48973390Y-72817618D02*
X48925771Y-72722380D01*
X48925771Y-72722380D02*
X48925771Y-72484285D01*
X48925771Y-72484285D02*
X48973390Y-72389047D01*
X48973390Y-72389047D02*
X49021009Y-72341428D01*
X49021009Y-72341428D02*
X49116247Y-72293809D01*
X49116247Y-72293809D02*
X49354342Y-72293809D01*
X49354342Y-72293809D02*
X49449580Y-72341428D01*
X49449580Y-72341428D02*
X49497200Y-72389047D01*
X49497200Y-72389047D02*
X49544819Y-72484285D01*
X49544819Y-72484285D02*
X49544819Y-72722380D01*
X49544819Y-72722380D02*
X49497200Y-72817618D01*
X49497200Y-72817618D02*
X49449580Y-72865237D01*
X48544819Y-72008094D02*
X49544819Y-71674761D01*
X49544819Y-71674761D02*
X48544819Y-71341428D01*
D11*
%TO.C,Y1*%
X76525000Y-67800000D02*
X76525000Y-61550000D01*
X81575000Y-67800000D02*
X81575000Y-61550000D01*
X81575000Y-67800000D02*
G75*
G02*
X76525000Y-67800000I-2525000J0D01*
G01*
X76525000Y-61550000D02*
G75*
G02*
X81575000Y-61550000I2525000J0D01*
G01*
%TO.C,SW1*%
X77100000Y-79600000D02*
X77100000Y-84100000D01*
X79600000Y-85350000D02*
X81100000Y-85350000D01*
X81100000Y-78350000D02*
X79600000Y-78350000D01*
X83600000Y-84100000D02*
X83600000Y-79600000D01*
%TO.C,0.1\u03BCF*%
X64480000Y-93605000D02*
X64480000Y-96845000D01*
X64545000Y-93605000D02*
X64480000Y-93605000D01*
X64545000Y-96845000D02*
X64480000Y-96845000D01*
X66720000Y-93605000D02*
X66655000Y-93605000D01*
X66720000Y-93605000D02*
X66720000Y-96845000D01*
X66720000Y-96845000D02*
X66655000Y-96845000D01*
%TO.C,U1*%
X51890000Y-84550000D02*
X58310000Y-84550000D01*
X51890000Y-91450000D02*
X58310000Y-91450000D01*
X58310000Y-84550000D02*
X58310000Y-84820000D01*
X58310000Y-91450000D02*
X58310000Y-91180000D01*
X60380000Y-91610000D02*
X59700000Y-91610000D01*
X60040000Y-91140000D01*
X60380000Y-91610000D01*
G36*
X60380000Y-91610000D02*
G01*
X59700000Y-91610000D01*
X60040000Y-91140000D01*
X60380000Y-91610000D01*
G37*
%TO.C,GND*%
X54290000Y-51065000D02*
X54290000Y-62785000D01*
X54290000Y-62785000D02*
X55710000Y-62785000D01*
X55710000Y-62785000D02*
X55710000Y-58285000D01*
X56600000Y-51675000D02*
X56600000Y-57175000D01*
X56600000Y-57175000D02*
X57100000Y-57175000D01*
X57100000Y-51675000D02*
X56600000Y-51675000D01*
X57100000Y-57175000D02*
X57100000Y-51675000D01*
X59100000Y-51675000D02*
X59100000Y-57175000D01*
X59100000Y-57175000D02*
X59600000Y-57175000D01*
X59350000Y-51065000D02*
X54290000Y-51065000D01*
X59350000Y-51065000D02*
X64410000Y-51065000D01*
X59600000Y-51675000D02*
X59100000Y-51675000D01*
X59600000Y-57175000D02*
X59600000Y-51675000D01*
X61550000Y-60875000D02*
X61850000Y-60275000D01*
X61600000Y-51675000D02*
X61600000Y-57175000D01*
X61600000Y-57175000D02*
X62100000Y-57175000D01*
X61850000Y-60275000D02*
X62150000Y-60875000D01*
X62100000Y-51675000D02*
X61600000Y-51675000D01*
X62100000Y-57175000D02*
X62100000Y-51675000D01*
X62150000Y-60875000D02*
X61550000Y-60875000D01*
X62990000Y-62785000D02*
X62990000Y-58285000D01*
X64410000Y-51065000D02*
X64410000Y-62785000D01*
X64410000Y-62785000D02*
X62990000Y-62785000D01*
%TO.C,J3*%
X62450000Y-105275000D02*
G75*
G02*
X62450000Y-107495000I0J-1110000D01*
G01*
X51150000Y-107495000D02*
G75*
G02*
X51150000Y-105275000I0J1110000D01*
G01*
X62450000Y-107495000D02*
X61860000Y-107495000D01*
X62450000Y-105275000D02*
X61860000Y-105275000D01*
X61860000Y-109595000D02*
X61860000Y-107495000D01*
X61860000Y-109595000D02*
X51740000Y-109595000D01*
X61860000Y-105275000D02*
X61860000Y-100375000D01*
X61860000Y-100375000D02*
X51740000Y-100375000D01*
X51740000Y-109595000D02*
X51740000Y-107495000D01*
X51740000Y-107495000D02*
X51150000Y-107495000D01*
X51740000Y-105275000D02*
X51740000Y-100375000D01*
X51740000Y-105275000D02*
X51150000Y-105275000D01*
%TO.C,330*%
X50680000Y-60605000D02*
X50680000Y-67145000D01*
X50680000Y-67145000D02*
X53420000Y-67145000D01*
X52050000Y-59835000D02*
X52050000Y-60605000D01*
X52050000Y-67915000D02*
X52050000Y-67145000D01*
X53420000Y-60605000D02*
X50680000Y-60605000D01*
X53420000Y-67145000D02*
X53420000Y-60605000D01*
%TO.C,C5*%
X62420000Y-68650000D02*
G75*
G02*
X54180000Y-68650000I-4120000J0D01*
G01*
X54180000Y-68650000D02*
G75*
G02*
X62420000Y-68650000I4120000J0D01*
G01*
%TO.C,22pF*%
X78680000Y-56005000D02*
X78680000Y-56070000D01*
X78680000Y-56005000D02*
X81920000Y-56005000D01*
X78680000Y-58180000D02*
X78680000Y-58245000D01*
X78680000Y-58245000D02*
X81920000Y-58245000D01*
X81920000Y-56005000D02*
X81920000Y-56070000D01*
X81920000Y-58180000D02*
X81920000Y-58245000D01*
%TO.C,C7*%
X62420000Y-77600000D02*
G75*
G02*
X54180000Y-77600000I-4120000J0D01*
G01*
X54180000Y-77600000D02*
G75*
G02*
X62420000Y-77600000I4120000J0D01*
G01*
%TO.C,0.33\u03BCF*%
X57170000Y-91745000D02*
X57170000Y-91680000D01*
X57170000Y-93920000D02*
X57170000Y-93855000D01*
X60410000Y-91680000D02*
X57170000Y-91680000D01*
X60410000Y-91745000D02*
X60410000Y-91680000D01*
X60410000Y-93920000D02*
X57170000Y-93920000D01*
X60410000Y-93920000D02*
X60410000Y-93855000D01*
%TO.C,J1*%
X64310000Y-100860000D02*
X64310000Y-103520000D01*
X64310000Y-103520000D02*
X79670000Y-103520000D01*
X65260000Y-100462929D02*
X65260000Y-100860000D01*
X65260000Y-109520000D02*
X65260000Y-103520000D01*
X66020000Y-100462929D02*
X66020000Y-100860000D01*
X66020000Y-103520000D02*
X66020000Y-109520000D01*
X66020000Y-109520000D02*
X65260000Y-109520000D01*
X66910000Y-100860000D02*
X66910000Y-103520000D01*
X67800000Y-100462929D02*
X67800000Y-100860000D01*
X67800000Y-109520000D02*
X67800000Y-103520000D01*
X68560000Y-100462929D02*
X68560000Y-100860000D01*
X68560000Y-103520000D02*
X68560000Y-109520000D01*
X68560000Y-109520000D02*
X67800000Y-109520000D01*
X69450000Y-100860000D02*
X69450000Y-103520000D01*
X70340000Y-100462929D02*
X70340000Y-100860000D01*
X70340000Y-109520000D02*
X70340000Y-103520000D01*
X71100000Y-100462929D02*
X71100000Y-100860000D01*
X71100000Y-103520000D02*
X71100000Y-109520000D01*
X71100000Y-109520000D02*
X70340000Y-109520000D01*
X71990000Y-100860000D02*
X71990000Y-103520000D01*
X72880000Y-100462929D02*
X72880000Y-100860000D01*
X72880000Y-109520000D02*
X72880000Y-103520000D01*
X73640000Y-100462929D02*
X73640000Y-100860000D01*
X73640000Y-103520000D02*
X73640000Y-109520000D01*
X73640000Y-109520000D02*
X72880000Y-109520000D01*
X74530000Y-100860000D02*
X74530000Y-103520000D01*
X75420000Y-100462929D02*
X75420000Y-100860000D01*
X75420000Y-109520000D02*
X75420000Y-103520000D01*
X76180000Y-100462929D02*
X76180000Y-100860000D01*
X76180000Y-103520000D02*
X76180000Y-109520000D01*
X76180000Y-109520000D02*
X75420000Y-109520000D01*
X77070000Y-100860000D02*
X77070000Y-103520000D01*
X77960000Y-100530000D02*
X77960000Y-100860000D01*
X77960000Y-109520000D02*
X77960000Y-103520000D01*
X78060000Y-103520000D02*
X78060000Y-109520000D01*
X78180000Y-103520000D02*
X78180000Y-109520000D01*
X78300000Y-103520000D02*
X78300000Y-109520000D01*
X78340000Y-98150000D02*
X79610000Y-98150000D01*
X78420000Y-103520000D02*
X78420000Y-109520000D01*
X78540000Y-103520000D02*
X78540000Y-109520000D01*
X78660000Y-103520000D02*
X78660000Y-109520000D01*
X78720000Y-100530000D02*
X78720000Y-100860000D01*
X78720000Y-103520000D02*
X78720000Y-109520000D01*
X78720000Y-109520000D02*
X77960000Y-109520000D01*
X79610000Y-98150000D02*
X79610000Y-99420000D01*
X79670000Y-100860000D02*
X64310000Y-100860000D01*
X79670000Y-103520000D02*
X79670000Y-100860000D01*
%TO.C,22pF*%
X78680000Y-71005000D02*
X78680000Y-71070000D01*
X78680000Y-71005000D02*
X81920000Y-71005000D01*
X78680000Y-73180000D02*
X78680000Y-73245000D01*
X78680000Y-73245000D02*
X81920000Y-73245000D01*
X81920000Y-71005000D02*
X81920000Y-71070000D01*
X81920000Y-73180000D02*
X81920000Y-73245000D01*
%TO.C,U2*%
X68535000Y-50750000D02*
X68535000Y-86430000D01*
X68535000Y-86430000D02*
X70185000Y-86430000D01*
X72185000Y-86430000D02*
X73835000Y-86430000D01*
X73835000Y-50750000D02*
X68535000Y-50750000D01*
X73835000Y-86430000D02*
X73835000Y-50750000D01*
X70185000Y-86430000D02*
G75*
G02*
X72185000Y-86430000I1000000J0D01*
G01*
%TO.C,0.1\u03BCF*%
X57170000Y-82145000D02*
X57170000Y-82080000D01*
X57170000Y-84320000D02*
X57170000Y-84255000D01*
X60410000Y-82080000D02*
X57170000Y-82080000D01*
X60410000Y-82145000D02*
X60410000Y-82080000D01*
X60410000Y-84320000D02*
X57170000Y-84320000D01*
X60410000Y-84320000D02*
X60410000Y-84255000D01*
%TO.C,10k\u03A9*%
X80280000Y-91585000D02*
X80280000Y-98125000D01*
X80280000Y-98125000D02*
X83020000Y-98125000D01*
X81650000Y-90815000D02*
X81650000Y-91585000D01*
X81650000Y-98895000D02*
X81650000Y-98125000D01*
X83020000Y-91585000D02*
X80280000Y-91585000D01*
X83020000Y-98125000D02*
X83020000Y-91585000D01*
%TO.C,J4*%
X62830000Y-87305000D02*
X64100000Y-87305000D01*
X62830000Y-88575000D02*
X62830000Y-87305000D01*
X65142929Y-90735000D02*
X65540000Y-90735000D01*
X65142929Y-91495000D02*
X65540000Y-91495000D01*
X65210000Y-88195000D02*
X65540000Y-88195000D01*
X65210000Y-88955000D02*
X65540000Y-88955000D01*
X65540000Y-87245000D02*
X65540000Y-92445000D01*
X65540000Y-89845000D02*
X68200000Y-89845000D01*
X65540000Y-92445000D02*
X68200000Y-92445000D01*
X68200000Y-87245000D02*
X65540000Y-87245000D01*
X68200000Y-88195000D02*
X74200000Y-88195000D01*
X68200000Y-88255000D02*
X74200000Y-88255000D01*
X68200000Y-88375000D02*
X74200000Y-88375000D01*
X68200000Y-88495000D02*
X74200000Y-88495000D01*
X68200000Y-88615000D02*
X74200000Y-88615000D01*
X68200000Y-88735000D02*
X74200000Y-88735000D01*
X68200000Y-88855000D02*
X74200000Y-88855000D01*
X68200000Y-90735000D02*
X74200000Y-90735000D01*
X68200000Y-92445000D02*
X68200000Y-87245000D01*
X74200000Y-88195000D02*
X74200000Y-88955000D01*
X74200000Y-88955000D02*
X68200000Y-88955000D01*
X74200000Y-90735000D02*
X74200000Y-91495000D01*
X74200000Y-91495000D02*
X68200000Y-91495000D01*
%TO.C,+5V*%
X50814000Y-74330000D02*
X50970000Y-74330000D01*
X53130000Y-74330000D02*
X53286000Y-74330000D01*
X50814484Y-74330000D02*
G75*
G02*
X50969939Y-71098603I1235516J1560000D01*
G01*
X50970000Y-73810961D02*
G75*
G02*
X50969951Y-71729090I1080000J1040961D01*
G01*
X53130049Y-71729090D02*
G75*
G02*
X53130000Y-73810961I-1080049J-1040910D01*
G01*
X53130061Y-71098603D02*
G75*
G02*
X53285516Y-74330000I-1080061J-1671397D01*
G01*
%TD*%
M02*
