%TF.GenerationSoftware,KiCad,Pcbnew,8.0.9-8.0.9-0~ubuntu24.04.1*%
%TF.CreationDate,2025-04-23T22:26:12+09:00*%
%TF.ProjectId,LedController,4c656443-6f6e-4747-926f-6c6c65722e6b,rev?*%
%TF.SameCoordinates,Original*%
%TF.FileFunction,Copper,L2,Bot*%
%TF.FilePolarity,Positive*%
%FSLAX46Y46*%
G04 Gerber Fmt 4.6, Leading zero omitted, Abs format (unit mm)*
G04 Created by KiCad (PCBNEW 8.0.9-8.0.9-0~ubuntu24.04.1) date 2025-04-23 22:26:12*
%MOMM*%
%LPD*%
G01*
G04 APERTURE LIST*
G04 Aperture macros list*
%AMRoundRect*
0 Rectangle with rounded corners*
0 $1 Rounding radius*
0 $2 $3 $4 $5 $6 $7 $8 $9 X,Y pos of 4 corners*
0 Add a 4 corners polygon primitive as box body*
4,1,4,$2,$3,$4,$5,$6,$7,$8,$9,$2,$3,0*
0 Add four circle primitives for the rounded corners*
1,1,$1+$1,$2,$3*
1,1,$1+$1,$4,$5*
1,1,$1+$1,$6,$7*
1,1,$1+$1,$8,$9*
0 Add four rect primitives between the rounded corners*
20,1,$1+$1,$2,$3,$4,$5,0*
20,1,$1+$1,$4,$5,$6,$7,0*
20,1,$1+$1,$6,$7,$8,$9,0*
20,1,$1+$1,$8,$9,$2,$3,0*%
G04 Aperture macros list end*
%TA.AperFunction,ComponentPad*%
%ADD10C,1.500000*%
%TD*%
%TA.AperFunction,ComponentPad*%
%ADD11C,2.000000*%
%TD*%
%TA.AperFunction,ComponentPad*%
%ADD12C,1.600000*%
%TD*%
%TA.AperFunction,ComponentPad*%
%ADD13RoundRect,0.250000X0.600000X0.725000X-0.600000X0.725000X-0.600000X-0.725000X0.600000X-0.725000X0*%
%TD*%
%TA.AperFunction,ComponentPad*%
%ADD14O,1.700000X1.950000*%
%TD*%
%TA.AperFunction,ComponentPad*%
%ADD15C,3.500000*%
%TD*%
%TA.AperFunction,ComponentPad*%
%ADD16RoundRect,0.770000X0.980000X0.980000X-0.980000X0.980000X-0.980000X-0.980000X0.980000X-0.980000X0*%
%TD*%
%TA.AperFunction,ComponentPad*%
%ADD17C,1.400000*%
%TD*%
%TA.AperFunction,ComponentPad*%
%ADD18O,1.600000X1.600000*%
%TD*%
%TA.AperFunction,ComponentPad*%
%ADD19R,1.700000X1.700000*%
%TD*%
%TA.AperFunction,ComponentPad*%
%ADD20O,1.700000X1.700000*%
%TD*%
%TA.AperFunction,ComponentPad*%
%ADD21R,1.600000X1.600000*%
%TD*%
%TA.AperFunction,ComponentPad*%
%ADD22R,1.800000X1.800000*%
%TD*%
%TA.AperFunction,ComponentPad*%
%ADD23C,1.800000*%
%TD*%
%TA.AperFunction,Conductor*%
%ADD24C,0.500000*%
%TD*%
G04 APERTURE END LIST*
D10*
%TO.P,Y1,1,1*%
%TO.N,Net-(U2-XTAL1{slash}PB6)*%
X79050000Y-67125000D03*
%TO.P,Y1,2,2*%
%TO.N,Net-(U2-XTAL2{slash}PB7)*%
X79050000Y-62225000D03*
%TD*%
D11*
%TO.P,SW1,1,1*%
%TO.N,Net-(U2-~{RESET}{slash}PC6)*%
X78100000Y-85100000D03*
X78100000Y-78600000D03*
%TO.P,SW1,2,2*%
%TO.N,GND*%
X82600000Y-85100000D03*
X82600000Y-78600000D03*
%TD*%
D12*
%TO.P,0.1\u03BCF,1*%
%TO.N,Net-(U2-~{RESET}{slash}PC6)*%
X65600000Y-93975000D03*
%TO.P,0.1\u03BCF,2*%
%TO.N,Net-(J1-Pin_6)*%
X65600000Y-96475000D03*
%TD*%
D13*
%TO.P,GND,1,Pin_1*%
%TO.N,GND*%
X61850000Y-58775000D03*
D14*
%TO.P,GND,2,Pin_2*%
%TO.N,signal*%
X59350000Y-58775000D03*
%TO.P,GND,3,Pin_3*%
%TO.N,+5V*%
X56850000Y-58775000D03*
%TD*%
D15*
%TO.P,J3,2,Pin_2*%
%TO.N,batt_in*%
X59300000Y-96385000D03*
D16*
%TO.P,J3,1,Pin_1*%
%TO.N,GND*%
X54300000Y-96385000D03*
D17*
%TO.P,J3,*%
%TO.N,*%
X51300000Y-106385000D03*
X62300000Y-106385000D03*
%TD*%
D12*
%TO.P,330,1*%
%TO.N,+5V*%
X52050000Y-58795000D03*
D18*
%TO.P,330,2*%
%TO.N,Net-(D1-A)*%
X52050000Y-68955000D03*
%TD*%
D12*
%TO.P,C5,1*%
%TO.N,+5V*%
X60050000Y-68650000D03*
%TO.P,C5,2*%
%TO.N,GND*%
X56550000Y-68650000D03*
%TD*%
%TO.P,22pF,1*%
%TO.N,Net-(U2-XTAL2{slash}PB7)*%
X79050000Y-57125000D03*
%TO.P,22pF,2*%
%TO.N,GND*%
X81550000Y-57125000D03*
%TD*%
%TO.P,C7,1*%
%TO.N,+5V*%
X60050000Y-77600000D03*
%TO.P,C7,2*%
%TO.N,GND*%
X56550000Y-77600000D03*
%TD*%
%TO.P,0.33\u03BCF,1*%
%TO.N,batt_in*%
X60040000Y-92800000D03*
%TO.P,0.33\u03BCF,2*%
%TO.N,GND*%
X57540000Y-92800000D03*
%TD*%
D19*
%TO.P,J1,1,Pin_1*%
%TO.N,GND*%
X78340000Y-99420000D03*
D20*
%TO.P,J1,2,Pin_2*%
%TO.N,unconnected-(J1-Pin_2-Pad2)*%
X75800000Y-99420000D03*
%TO.P,J1,3,Pin_3*%
%TO.N,VCC*%
X73260000Y-99420000D03*
%TO.P,J1,4,Pin_4*%
%TO.N,Net-(J1-Pin_4)*%
X70720000Y-99420000D03*
%TO.P,J1,5,Pin_5*%
%TO.N,Net-(J1-Pin_5)*%
X68180000Y-99420000D03*
%TO.P,J1,6,Pin_6*%
%TO.N,Net-(J1-Pin_6)*%
X65640000Y-99420000D03*
%TD*%
D12*
%TO.P,22pF,1*%
%TO.N,Net-(U2-XTAL1{slash}PB6)*%
X79050000Y-72125000D03*
%TO.P,22pF,2*%
%TO.N,GND*%
X81550000Y-72125000D03*
%TD*%
D21*
%TO.P,U2,1,~{RESET}/PC6*%
%TO.N,Net-(U2-~{RESET}{slash}PC6)*%
X74995000Y-85100000D03*
D18*
%TO.P,U2,2,PD0*%
%TO.N,Net-(J1-Pin_4)*%
X74995000Y-82560000D03*
%TO.P,U2,3,PD1*%
%TO.N,Net-(J1-Pin_5)*%
X74995000Y-80020000D03*
%TO.P,U2,4,PD2*%
%TO.N,unconnected-(U2-PD2-Pad4)*%
X74995000Y-77480000D03*
%TO.P,U2,5,PD3*%
%TO.N,unconnected-(U2-PD3-Pad5)*%
X74995000Y-74940000D03*
%TO.P,U2,6,PD4*%
%TO.N,unconnected-(U2-PD4-Pad6)*%
X74995000Y-72400000D03*
%TO.P,U2,7,VCC*%
%TO.N,VCC*%
X74995000Y-69860000D03*
%TO.P,U2,8,GND*%
%TO.N,GND*%
X74995000Y-67320000D03*
%TO.P,U2,9,XTAL1/PB6*%
%TO.N,Net-(U2-XTAL1{slash}PB6)*%
X74995000Y-64780000D03*
%TO.P,U2,10,XTAL2/PB7*%
%TO.N,Net-(U2-XTAL2{slash}PB7)*%
X74995000Y-62240000D03*
%TO.P,U2,11,PD5*%
%TO.N,unconnected-(U2-PD5-Pad11)*%
X74995000Y-59700000D03*
%TO.P,U2,12,PD6*%
%TO.N,signal*%
X74995000Y-57160000D03*
%TO.P,U2,13,PD7*%
%TO.N,unconnected-(U2-PD7-Pad13)*%
X74995000Y-54620000D03*
%TO.P,U2,14,PB0*%
%TO.N,unconnected-(U2-PB0-Pad14)*%
X74995000Y-52080000D03*
%TO.P,U2,15,PB1*%
%TO.N,unconnected-(U2-PB1-Pad15)*%
X67375000Y-52080000D03*
%TO.P,U2,16,PB2*%
%TO.N,unconnected-(U2-PB2-Pad16)*%
X67375000Y-54620000D03*
%TO.P,U2,17,PB3*%
%TO.N,unconnected-(U2-PB3-Pad17)*%
X67375000Y-57160000D03*
%TO.P,U2,18,PB4*%
%TO.N,unconnected-(U2-PB4-Pad18)*%
X67375000Y-59700000D03*
%TO.P,U2,19,PB5*%
%TO.N,unconnected-(U2-PB5-Pad19)*%
X67375000Y-62240000D03*
%TO.P,U2,20,AVCC*%
%TO.N,VCC*%
X67375000Y-64780000D03*
%TO.P,U2,21,AREF*%
%TO.N,unconnected-(U2-AREF-Pad21)*%
X67375000Y-67320000D03*
%TO.P,U2,22,GND*%
%TO.N,GND*%
X67375000Y-69860000D03*
%TO.P,U2,23,PC0*%
%TO.N,unconnected-(U2-PC0-Pad23)*%
X67375000Y-72400000D03*
%TO.P,U2,24,PC1*%
%TO.N,unconnected-(U2-PC1-Pad24)*%
X67375000Y-74940000D03*
%TO.P,U2,25,PC2*%
%TO.N,unconnected-(U2-PC2-Pad25)*%
X67375000Y-77480000D03*
%TO.P,U2,26,PC3*%
%TO.N,unconnected-(U2-PC3-Pad26)*%
X67375000Y-80020000D03*
%TO.P,U2,27,PC4*%
%TO.N,unconnected-(U2-PC4-Pad27)*%
X67375000Y-82560000D03*
%TO.P,U2,28,PC5*%
%TO.N,unconnected-(U2-PC5-Pad28)*%
X67375000Y-85100000D03*
%TD*%
D12*
%TO.P,0.1\u03BCF,1*%
%TO.N,+5V*%
X60040000Y-83200000D03*
%TO.P,0.1\u03BCF,2*%
%TO.N,GND*%
X57540000Y-83200000D03*
%TD*%
%TO.P,10k\u03A9,1*%
%TO.N,VCC*%
X81650000Y-99935000D03*
D18*
%TO.P,10k\u03A9,2*%
%TO.N,Net-(U2-~{RESET}{slash}PC6)*%
X81650000Y-89775000D03*
%TD*%
D19*
%TO.P,J4,1,Pin_1*%
%TO.N,+5V*%
X64100000Y-88575000D03*
D20*
%TO.P,J4,2,Pin_2*%
%TO.N,VCC*%
X64100000Y-91115000D03*
%TD*%
D22*
%TO.P,+5V,1,K*%
%TO.N,GND*%
X52050000Y-74040000D03*
D23*
%TO.P,+5V,2,A*%
%TO.N,Net-(D1-A)*%
X52050000Y-71500000D03*
%TD*%
D24*
%TO.N,Net-(J1-Pin_5)*%
X68180000Y-86755000D02*
X68175000Y-86750000D01*
X68180000Y-99420000D02*
X68180000Y-86755000D01*
X72150000Y-80025000D02*
X72450000Y-80025000D01*
X72150000Y-86750000D02*
X72150000Y-80025000D01*
X68175000Y-86750000D02*
X72150000Y-86750000D01*
X72450000Y-80025000D02*
X72455000Y-80020000D01*
X72455000Y-80020000D02*
X74995000Y-80020000D01*
%TO.N,Net-(J1-Pin_4)*%
X70720000Y-99420000D02*
X70720000Y-87630000D01*
X72925000Y-87625000D02*
X72925000Y-82575000D01*
X73075000Y-82575000D02*
X73090000Y-82560000D01*
X72925000Y-82575000D02*
X73075000Y-82575000D01*
X70720000Y-87630000D02*
X70725000Y-87625000D01*
X73090000Y-82560000D02*
X74995000Y-82560000D01*
X70725000Y-87625000D02*
X72925000Y-87625000D01*
%TD*%
%TA.AperFunction,Conductor*%
%TO.N,GND*%
G36*
X47417539Y-50520185D02*
G01*
X47463294Y-50572989D01*
X47474500Y-50624500D01*
X47474500Y-50799117D01*
X47454815Y-50866156D01*
X47402011Y-50911911D01*
X47383956Y-50918518D01*
X47271447Y-50950042D01*
X47271443Y-50950043D01*
X46999101Y-51068338D01*
X46999096Y-51068340D01*
X46745393Y-51222620D01*
X46515063Y-51410007D01*
X46515057Y-51410012D01*
X46515056Y-51410014D01*
X46405924Y-51526865D01*
X46312378Y-51627029D01*
X46141153Y-51869600D01*
X46141149Y-51869606D01*
X46004539Y-52133253D01*
X45905105Y-52413032D01*
X45905100Y-52413049D01*
X45844691Y-52703757D01*
X45844690Y-52703759D01*
X45824428Y-53000000D01*
X45844690Y-53296240D01*
X45844691Y-53296242D01*
X45905100Y-53586950D01*
X45905105Y-53586967D01*
X46004539Y-53866746D01*
X46004538Y-53866746D01*
X46141149Y-54130393D01*
X46141153Y-54130399D01*
X46312378Y-54372970D01*
X46312382Y-54372974D01*
X46312384Y-54372977D01*
X46515056Y-54589986D01*
X46515061Y-54589990D01*
X46515063Y-54589992D01*
X46551948Y-54620000D01*
X46745390Y-54777377D01*
X46745392Y-54777378D01*
X46745393Y-54777379D01*
X46999096Y-54931659D01*
X46999101Y-54931661D01*
X47271440Y-55049954D01*
X47271445Y-55049956D01*
X47557367Y-55130068D01*
X47815986Y-55165614D01*
X47851533Y-55170500D01*
X47851534Y-55170500D01*
X48148467Y-55170500D01*
X48180180Y-55166140D01*
X48442633Y-55130068D01*
X48728555Y-55049956D01*
X49000905Y-54931658D01*
X49254610Y-54777377D01*
X49484944Y-54589986D01*
X49687616Y-54372977D01*
X49858851Y-54130392D01*
X49995459Y-53866750D01*
X50094896Y-53586962D01*
X50094897Y-53586955D01*
X50094899Y-53586950D01*
X50122942Y-53451994D01*
X50155309Y-53296240D01*
X50175572Y-53000000D01*
X50155309Y-52703760D01*
X50129078Y-52577528D01*
X50094899Y-52413049D01*
X50094894Y-52413032D01*
X49995460Y-52133253D01*
X49995461Y-52133253D01*
X49858850Y-51869606D01*
X49858846Y-51869600D01*
X49687621Y-51627029D01*
X49687617Y-51627025D01*
X49687616Y-51627023D01*
X49484944Y-51410014D01*
X49484937Y-51410009D01*
X49484936Y-51410007D01*
X49254606Y-51222620D01*
X49000903Y-51068340D01*
X49000898Y-51068338D01*
X48728556Y-50950043D01*
X48728552Y-50950042D01*
X48616044Y-50918518D01*
X48556802Y-50881476D01*
X48526991Y-50818285D01*
X48525500Y-50799117D01*
X48525500Y-50624500D01*
X48545185Y-50557461D01*
X48597989Y-50511706D01*
X48649500Y-50500500D01*
X81350500Y-50500500D01*
X81417539Y-50520185D01*
X81463294Y-50572989D01*
X81474500Y-50624500D01*
X81474500Y-50799117D01*
X81454815Y-50866156D01*
X81402011Y-50911911D01*
X81383956Y-50918518D01*
X81271447Y-50950042D01*
X81271443Y-50950043D01*
X80999101Y-51068338D01*
X80999096Y-51068340D01*
X80745393Y-51222620D01*
X80515063Y-51410007D01*
X80515057Y-51410012D01*
X80515056Y-51410014D01*
X80405924Y-51526865D01*
X80312378Y-51627029D01*
X80141153Y-51869600D01*
X80141149Y-51869606D01*
X80004539Y-52133253D01*
X79905105Y-52413032D01*
X79905100Y-52413049D01*
X79844691Y-52703757D01*
X79844690Y-52703759D01*
X79824428Y-53000000D01*
X79844690Y-53296240D01*
X79844691Y-53296242D01*
X79905100Y-53586950D01*
X79905105Y-53586967D01*
X80004539Y-53866746D01*
X80004538Y-53866746D01*
X80141149Y-54130393D01*
X80141153Y-54130399D01*
X80312378Y-54372970D01*
X80312382Y-54372974D01*
X80312384Y-54372977D01*
X80515056Y-54589986D01*
X80515061Y-54589990D01*
X80515063Y-54589992D01*
X80551948Y-54620000D01*
X80745390Y-54777377D01*
X80745392Y-54777378D01*
X80745393Y-54777379D01*
X80999096Y-54931659D01*
X80999101Y-54931661D01*
X81271440Y-55049954D01*
X81271445Y-55049956D01*
X81557367Y-55130068D01*
X81815986Y-55165614D01*
X81851533Y-55170500D01*
X81851534Y-55170500D01*
X82148467Y-55170500D01*
X82180180Y-55166140D01*
X82442633Y-55130068D01*
X82728555Y-55049956D01*
X83000905Y-54931658D01*
X83254610Y-54777377D01*
X83484944Y-54589986D01*
X83687616Y-54372977D01*
X83858851Y-54130392D01*
X83995459Y-53866750D01*
X84025985Y-53780858D01*
X84087429Y-53607975D01*
X84128427Y-53551398D01*
X84193505Y-53525968D01*
X84204269Y-53525500D01*
X84375500Y-53525500D01*
X84442539Y-53545185D01*
X84488294Y-53597989D01*
X84499500Y-53649500D01*
X84499500Y-106350500D01*
X84479815Y-106417539D01*
X84427011Y-106463294D01*
X84375500Y-106474500D01*
X84204269Y-106474500D01*
X84137230Y-106454815D01*
X84091475Y-106402011D01*
X84087429Y-106392025D01*
X83995460Y-106133253D01*
X83995461Y-106133253D01*
X83858850Y-105869606D01*
X83858846Y-105869600D01*
X83687621Y-105627029D01*
X83687617Y-105627025D01*
X83687616Y-105627023D01*
X83484944Y-105410014D01*
X83484937Y-105410009D01*
X83484936Y-105410007D01*
X83254606Y-105222620D01*
X83000903Y-105068340D01*
X83000898Y-105068338D01*
X82728559Y-104950045D01*
X82442638Y-104869933D01*
X82442634Y-104869932D01*
X82442633Y-104869932D01*
X82295549Y-104849716D01*
X82148467Y-104829500D01*
X82148466Y-104829500D01*
X81851534Y-104829500D01*
X81851533Y-104829500D01*
X81557367Y-104869932D01*
X81557361Y-104869933D01*
X81271440Y-104950045D01*
X80999101Y-105068338D01*
X80999096Y-105068340D01*
X80745393Y-105222620D01*
X80515063Y-105410007D01*
X80312378Y-105627029D01*
X80141153Y-105869600D01*
X80141149Y-105869606D01*
X80004539Y-106133253D01*
X79905105Y-106413032D01*
X79905100Y-106413049D01*
X79844691Y-106703757D01*
X79844690Y-106703759D01*
X79824428Y-107000000D01*
X79844690Y-107296240D01*
X79844691Y-107296242D01*
X79905100Y-107586950D01*
X79905105Y-107586967D01*
X80004539Y-107866746D01*
X80004538Y-107866746D01*
X80141149Y-108130393D01*
X80141153Y-108130399D01*
X80312378Y-108372970D01*
X80312382Y-108372974D01*
X80312384Y-108372977D01*
X80515056Y-108589986D01*
X80745390Y-108777377D01*
X80745392Y-108777378D01*
X80745393Y-108777379D01*
X80999096Y-108931659D01*
X80999101Y-108931661D01*
X81271440Y-109049954D01*
X81271445Y-109049956D01*
X81557367Y-109130068D01*
X81815986Y-109165614D01*
X81851533Y-109170500D01*
X81851534Y-109170500D01*
X82148467Y-109170500D01*
X82180180Y-109166140D01*
X82442633Y-109130068D01*
X82728555Y-109049956D01*
X83000905Y-108931658D01*
X83254610Y-108777377D01*
X83484944Y-108589986D01*
X83687616Y-108372977D01*
X83858851Y-108130392D01*
X83995459Y-107866750D01*
X84023487Y-107787887D01*
X84087429Y-107607975D01*
X84128427Y-107551398D01*
X84193505Y-107525968D01*
X84204269Y-107525500D01*
X84375500Y-107525500D01*
X84442539Y-107545185D01*
X84488294Y-107597989D01*
X84499500Y-107649500D01*
X84499500Y-109375500D01*
X84479815Y-109442539D01*
X84427011Y-109488294D01*
X84375500Y-109499500D01*
X45624500Y-109499500D01*
X45557461Y-109479815D01*
X45511706Y-109427011D01*
X45500500Y-109375500D01*
X45500500Y-107000000D01*
X45824428Y-107000000D01*
X45844690Y-107296240D01*
X45844691Y-107296242D01*
X45905100Y-107586950D01*
X45905105Y-107586967D01*
X46004539Y-107866746D01*
X46004538Y-107866746D01*
X46141149Y-108130393D01*
X46141153Y-108130399D01*
X46312378Y-108372970D01*
X46312382Y-108372974D01*
X46312384Y-108372977D01*
X46515056Y-108589986D01*
X46745390Y-108777377D01*
X46745392Y-108777378D01*
X46745393Y-108777379D01*
X46999096Y-108931659D01*
X46999101Y-108931661D01*
X47271440Y-109049954D01*
X47271445Y-109049956D01*
X47557367Y-109130068D01*
X47815986Y-109165614D01*
X47851533Y-109170500D01*
X47851534Y-109170500D01*
X48148467Y-109170500D01*
X48180180Y-109166140D01*
X48442633Y-109130068D01*
X48728555Y-109049956D01*
X49000905Y-108931658D01*
X49254610Y-108777377D01*
X49484944Y-108589986D01*
X49687616Y-108372977D01*
X49858851Y-108130392D01*
X49995459Y-107866750D01*
X50094896Y-107586962D01*
X50094897Y-107586955D01*
X50094899Y-107586950D01*
X50122942Y-107451994D01*
X50155309Y-107296240D01*
X50159940Y-107228523D01*
X50184153Y-107162985D01*
X50239955Y-107120940D01*
X50309631Y-107115738D01*
X50371058Y-107149032D01*
X50382604Y-107162258D01*
X50409019Y-107197237D01*
X50573437Y-107347123D01*
X50573439Y-107347125D01*
X50762595Y-107464245D01*
X50762596Y-107464245D01*
X50762599Y-107464247D01*
X50970060Y-107544618D01*
X51188757Y-107585500D01*
X51188759Y-107585500D01*
X51411241Y-107585500D01*
X51411243Y-107585500D01*
X51629940Y-107544618D01*
X51837401Y-107464247D01*
X52026562Y-107347124D01*
X52190981Y-107197236D01*
X52325058Y-107019689D01*
X52424229Y-106820528D01*
X52485115Y-106606536D01*
X52505643Y-106385000D01*
X52505643Y-106384999D01*
X61094357Y-106384999D01*
X61094357Y-106385000D01*
X61114884Y-106606535D01*
X61114885Y-106606537D01*
X61175769Y-106820523D01*
X61175775Y-106820538D01*
X61274938Y-107019683D01*
X61274943Y-107019691D01*
X61409020Y-107197238D01*
X61573437Y-107347123D01*
X61573439Y-107347125D01*
X61762595Y-107464245D01*
X61762596Y-107464245D01*
X61762599Y-107464247D01*
X61970060Y-107544618D01*
X62188757Y-107585500D01*
X62188759Y-107585500D01*
X62411241Y-107585500D01*
X62411243Y-107585500D01*
X62629940Y-107544618D01*
X62837401Y-107464247D01*
X63026562Y-107347124D01*
X63190981Y-107197236D01*
X63325058Y-107019689D01*
X63424229Y-106820528D01*
X63485115Y-106606536D01*
X63505643Y-106385000D01*
X63485115Y-106163464D01*
X63424229Y-105949472D01*
X63409400Y-105919691D01*
X63325061Y-105750316D01*
X63325056Y-105750308D01*
X63190979Y-105572761D01*
X63026562Y-105422876D01*
X63026560Y-105422874D01*
X62837404Y-105305754D01*
X62837398Y-105305752D01*
X62629940Y-105225382D01*
X62411243Y-105184500D01*
X62188757Y-105184500D01*
X61970060Y-105225382D01*
X61838864Y-105276207D01*
X61762601Y-105305752D01*
X61762595Y-105305754D01*
X61573439Y-105422874D01*
X61573437Y-105422876D01*
X61409020Y-105572761D01*
X61274943Y-105750308D01*
X61274938Y-105750316D01*
X61175775Y-105949461D01*
X61175769Y-105949476D01*
X61114885Y-106163462D01*
X61114884Y-106163464D01*
X61094357Y-106384999D01*
X52505643Y-106384999D01*
X52485115Y-106163464D01*
X52424229Y-105949472D01*
X52409400Y-105919691D01*
X52325061Y-105750316D01*
X52325056Y-105750308D01*
X52190979Y-105572761D01*
X52026562Y-105422876D01*
X52026560Y-105422874D01*
X51837404Y-105305754D01*
X51837398Y-105305752D01*
X51629940Y-105225382D01*
X51411243Y-105184500D01*
X51188757Y-105184500D01*
X50970060Y-105225382D01*
X50838864Y-105276207D01*
X50762601Y-105305752D01*
X50762595Y-105305754D01*
X50573439Y-105422874D01*
X50573437Y-105422876D01*
X50409020Y-105572761D01*
X50274943Y-105750308D01*
X50274938Y-105750316D01*
X50175775Y-105949461D01*
X50175770Y-105949474D01*
X50163649Y-105992076D01*
X50126369Y-106051169D01*
X50063059Y-106080726D01*
X49993820Y-106071364D01*
X49940634Y-106026053D01*
X49934285Y-106015189D01*
X49858850Y-105869606D01*
X49858846Y-105869600D01*
X49687621Y-105627029D01*
X49687617Y-105627025D01*
X49687616Y-105627023D01*
X49484944Y-105410014D01*
X49484937Y-105410009D01*
X49484936Y-105410007D01*
X49254606Y-105222620D01*
X49000903Y-105068340D01*
X49000898Y-105068338D01*
X48728559Y-104950045D01*
X48442638Y-104869933D01*
X48442634Y-104869932D01*
X48442633Y-104869932D01*
X48295549Y-104849716D01*
X48148467Y-104829500D01*
X48148466Y-104829500D01*
X47851534Y-104829500D01*
X47851533Y-104829500D01*
X47557367Y-104869932D01*
X47557361Y-104869933D01*
X47271440Y-104950045D01*
X46999101Y-105068338D01*
X46999096Y-105068340D01*
X46745393Y-105222620D01*
X46515063Y-105410007D01*
X46312378Y-105627029D01*
X46141153Y-105869600D01*
X46141149Y-105869606D01*
X46004539Y-106133253D01*
X45905105Y-106413032D01*
X45905100Y-106413049D01*
X45844691Y-106703757D01*
X45844690Y-106703759D01*
X45824428Y-107000000D01*
X45500500Y-107000000D01*
X45500500Y-99419999D01*
X64284341Y-99419999D01*
X64284341Y-99420000D01*
X64304936Y-99655403D01*
X64304938Y-99655413D01*
X64366094Y-99883655D01*
X64366096Y-99883659D01*
X64366097Y-99883663D01*
X64446004Y-100055023D01*
X64465965Y-100097830D01*
X64465967Y-100097834D01*
X64510685Y-100161697D01*
X64601505Y-100291401D01*
X64768599Y-100458495D01*
X64845135Y-100512086D01*
X64962165Y-100594032D01*
X64962167Y-100594033D01*
X64962170Y-100594035D01*
X65176337Y-100693903D01*
X65404592Y-100755063D01*
X65575319Y-100770000D01*
X65639999Y-100775659D01*
X65640000Y-100775659D01*
X65640001Y-100775659D01*
X65704681Y-100770000D01*
X65875408Y-100755063D01*
X66103663Y-100693903D01*
X66317830Y-100594035D01*
X66511401Y-100458495D01*
X66678495Y-100291401D01*
X66808425Y-100105842D01*
X66863002Y-100062217D01*
X66932500Y-100055023D01*
X66994855Y-100086546D01*
X67011575Y-100105842D01*
X67141500Y-100291395D01*
X67141505Y-100291401D01*
X67308599Y-100458495D01*
X67385135Y-100512086D01*
X67502165Y-100594032D01*
X67502167Y-100594033D01*
X67502170Y-100594035D01*
X67716337Y-100693903D01*
X67944592Y-100755063D01*
X68115319Y-100770000D01*
X68179999Y-100775659D01*
X68180000Y-100775659D01*
X68180001Y-100775659D01*
X68244681Y-100770000D01*
X68415408Y-100755063D01*
X68643663Y-100693903D01*
X68857830Y-100594035D01*
X69051401Y-100458495D01*
X69218495Y-100291401D01*
X69348425Y-100105842D01*
X69403002Y-100062217D01*
X69472500Y-100055023D01*
X69534855Y-100086546D01*
X69551575Y-100105842D01*
X69681500Y-100291395D01*
X69681505Y-100291401D01*
X69848599Y-100458495D01*
X69925135Y-100512086D01*
X70042165Y-100594032D01*
X70042167Y-100594033D01*
X70042170Y-100594035D01*
X70256337Y-100693903D01*
X70484592Y-100755063D01*
X70655319Y-100770000D01*
X70719999Y-100775659D01*
X70720000Y-100775659D01*
X70720001Y-100775659D01*
X70784681Y-100770000D01*
X70955408Y-100755063D01*
X71183663Y-100693903D01*
X71397830Y-100594035D01*
X71591401Y-100458495D01*
X71758495Y-100291401D01*
X71888425Y-100105842D01*
X71943002Y-100062217D01*
X72012500Y-100055023D01*
X72074855Y-100086546D01*
X72091575Y-100105842D01*
X72221500Y-100291395D01*
X72221505Y-100291401D01*
X72388599Y-100458495D01*
X72465135Y-100512086D01*
X72582165Y-100594032D01*
X72582167Y-100594033D01*
X72582170Y-100594035D01*
X72796337Y-100693903D01*
X73024592Y-100755063D01*
X73195319Y-100770000D01*
X73259999Y-100775659D01*
X73260000Y-100775659D01*
X73260001Y-100775659D01*
X73324681Y-100770000D01*
X73495408Y-100755063D01*
X73723663Y-100693903D01*
X73937830Y-100594035D01*
X74131401Y-100458495D01*
X74298495Y-100291401D01*
X74428425Y-100105842D01*
X74483002Y-100062217D01*
X74552500Y-100055023D01*
X74614855Y-100086546D01*
X74631575Y-100105842D01*
X74761500Y-100291395D01*
X74761505Y-100291401D01*
X74928599Y-100458495D01*
X75005135Y-100512086D01*
X75122165Y-100594032D01*
X75122167Y-100594033D01*
X75122170Y-100594035D01*
X75336337Y-100693903D01*
X75564592Y-100755063D01*
X75735319Y-100770000D01*
X75799999Y-100775659D01*
X75800000Y-100775659D01*
X75800001Y-100775659D01*
X75864681Y-100770000D01*
X76035408Y-100755063D01*
X76263663Y-100693903D01*
X76477830Y-100594035D01*
X76671401Y-100458495D01*
X76793717Y-100336178D01*
X76855036Y-100302696D01*
X76924728Y-100307680D01*
X76980662Y-100349551D01*
X76997577Y-100380528D01*
X77046646Y-100512088D01*
X77046649Y-100512093D01*
X77132809Y-100627187D01*
X77132812Y-100627190D01*
X77247906Y-100713350D01*
X77247913Y-100713354D01*
X77382620Y-100763596D01*
X77382627Y-100763598D01*
X77442155Y-100769999D01*
X77442172Y-100770000D01*
X78090000Y-100770000D01*
X78090000Y-99853012D01*
X78147007Y-99885925D01*
X78274174Y-99920000D01*
X78405826Y-99920000D01*
X78532993Y-99885925D01*
X78590000Y-99853012D01*
X78590000Y-100770000D01*
X79237828Y-100770000D01*
X79237844Y-100769999D01*
X79297372Y-100763598D01*
X79297379Y-100763596D01*
X79432086Y-100713354D01*
X79432093Y-100713350D01*
X79547187Y-100627190D01*
X79547190Y-100627187D01*
X79633350Y-100512093D01*
X79633354Y-100512086D01*
X79683596Y-100377379D01*
X79683598Y-100377372D01*
X79689999Y-100317844D01*
X79690000Y-100317827D01*
X79690000Y-99934998D01*
X80344532Y-99934998D01*
X80344532Y-99935001D01*
X80364364Y-100161686D01*
X80364366Y-100161697D01*
X80423258Y-100381488D01*
X80423261Y-100381497D01*
X80519431Y-100587732D01*
X80519432Y-100587734D01*
X80649954Y-100774141D01*
X80810858Y-100935045D01*
X80810861Y-100935047D01*
X80997266Y-101065568D01*
X81203504Y-101161739D01*
X81423308Y-101220635D01*
X81585230Y-101234801D01*
X81649998Y-101240468D01*
X81650000Y-101240468D01*
X81650002Y-101240468D01*
X81706673Y-101235509D01*
X81876692Y-101220635D01*
X82096496Y-101161739D01*
X82302734Y-101065568D01*
X82489139Y-100935047D01*
X82650047Y-100774139D01*
X82780568Y-100587734D01*
X82876739Y-100381496D01*
X82935635Y-100161692D01*
X82955468Y-99935000D01*
X82951174Y-99885925D01*
X82935635Y-99708313D01*
X82935635Y-99708308D01*
X82876739Y-99488504D01*
X82780568Y-99282266D01*
X82650047Y-99095861D01*
X82650045Y-99095858D01*
X82489141Y-98934954D01*
X82302734Y-98804432D01*
X82302732Y-98804431D01*
X82096497Y-98708261D01*
X82096488Y-98708258D01*
X81876697Y-98649366D01*
X81876693Y-98649365D01*
X81876692Y-98649365D01*
X81876691Y-98649364D01*
X81876686Y-98649364D01*
X81650002Y-98629532D01*
X81649998Y-98629532D01*
X81423313Y-98649364D01*
X81423302Y-98649366D01*
X81203511Y-98708258D01*
X81203502Y-98708261D01*
X80997267Y-98804431D01*
X80997265Y-98804432D01*
X80810858Y-98934954D01*
X80649954Y-99095858D01*
X80519432Y-99282265D01*
X80519431Y-99282267D01*
X80423261Y-99488502D01*
X80423258Y-99488511D01*
X80364366Y-99708302D01*
X80364364Y-99708313D01*
X80344532Y-99934998D01*
X79690000Y-99934998D01*
X79690000Y-99670000D01*
X78773012Y-99670000D01*
X78805925Y-99612993D01*
X78840000Y-99485826D01*
X78840000Y-99354174D01*
X78805925Y-99227007D01*
X78773012Y-99170000D01*
X79690000Y-99170000D01*
X79690000Y-98522172D01*
X79689999Y-98522155D01*
X79683598Y-98462627D01*
X79683596Y-98462620D01*
X79633354Y-98327913D01*
X79633350Y-98327906D01*
X79547190Y-98212812D01*
X79547187Y-98212809D01*
X79432093Y-98126649D01*
X79432086Y-98126645D01*
X79297379Y-98076403D01*
X79297372Y-98076401D01*
X79237844Y-98070000D01*
X78590000Y-98070000D01*
X78590000Y-98986988D01*
X78532993Y-98954075D01*
X78405826Y-98920000D01*
X78274174Y-98920000D01*
X78147007Y-98954075D01*
X78090000Y-98986988D01*
X78090000Y-98070000D01*
X77442155Y-98070000D01*
X77382627Y-98076401D01*
X77382620Y-98076403D01*
X77247913Y-98126645D01*
X77247906Y-98126649D01*
X77132812Y-98212809D01*
X77132809Y-98212812D01*
X77046649Y-98327906D01*
X77046645Y-98327913D01*
X76997578Y-98459470D01*
X76955707Y-98515404D01*
X76890242Y-98539821D01*
X76821969Y-98524969D01*
X76793715Y-98503819D01*
X76749366Y-98459470D01*
X76671401Y-98381505D01*
X76671397Y-98381502D01*
X76671396Y-98381501D01*
X76477834Y-98245967D01*
X76477830Y-98245965D01*
X76341092Y-98182203D01*
X76263663Y-98146097D01*
X76263659Y-98146096D01*
X76263655Y-98146094D01*
X76035413Y-98084938D01*
X76035403Y-98084936D01*
X75800001Y-98064341D01*
X75799999Y-98064341D01*
X75564596Y-98084936D01*
X75564586Y-98084938D01*
X75336344Y-98146094D01*
X75336335Y-98146098D01*
X75122171Y-98245964D01*
X75122169Y-98245965D01*
X74928597Y-98381505D01*
X74761505Y-98548597D01*
X74631575Y-98734158D01*
X74576998Y-98777783D01*
X74507500Y-98784977D01*
X74445145Y-98753454D01*
X74428425Y-98734158D01*
X74298494Y-98548597D01*
X74131402Y-98381506D01*
X74131395Y-98381501D01*
X73937834Y-98245967D01*
X73937830Y-98245965D01*
X73801092Y-98182203D01*
X73723663Y-98146097D01*
X73723659Y-98146096D01*
X73723655Y-98146094D01*
X73495413Y-98084938D01*
X73495403Y-98084936D01*
X73260001Y-98064341D01*
X73259999Y-98064341D01*
X73024596Y-98084936D01*
X73024586Y-98084938D01*
X72796344Y-98146094D01*
X72796335Y-98146098D01*
X72582171Y-98245964D01*
X72582169Y-98245965D01*
X72388597Y-98381505D01*
X72221505Y-98548597D01*
X72091575Y-98734158D01*
X72036998Y-98777783D01*
X71967500Y-98784977D01*
X71905145Y-98753454D01*
X71888425Y-98734158D01*
X71758494Y-98548597D01*
X71591404Y-98381507D01*
X71523375Y-98333872D01*
X71479751Y-98279294D01*
X71470500Y-98232298D01*
X71470500Y-89774998D01*
X80344532Y-89774998D01*
X80344532Y-89775001D01*
X80364364Y-90001686D01*
X80364366Y-90001697D01*
X80423258Y-90221488D01*
X80423261Y-90221497D01*
X80519431Y-90427732D01*
X80519432Y-90427734D01*
X80649954Y-90614141D01*
X80810858Y-90775045D01*
X80810861Y-90775047D01*
X80997266Y-90905568D01*
X81203504Y-91001739D01*
X81423308Y-91060635D01*
X81585230Y-91074801D01*
X81649998Y-91080468D01*
X81650000Y-91080468D01*
X81650002Y-91080468D01*
X81706673Y-91075509D01*
X81876692Y-91060635D01*
X82096496Y-91001739D01*
X82302734Y-90905568D01*
X82489139Y-90775047D01*
X82650047Y-90614139D01*
X82780568Y-90427734D01*
X82876739Y-90221496D01*
X82935635Y-90001692D01*
X82955468Y-89775000D01*
X82935635Y-89548308D01*
X82876739Y-89328504D01*
X82780568Y-89122266D01*
X82650047Y-88935861D01*
X82650045Y-88935858D01*
X82489141Y-88774954D01*
X82302734Y-88644432D01*
X82302732Y-88644431D01*
X82096497Y-88548261D01*
X82096488Y-88548258D01*
X81876697Y-88489366D01*
X81876693Y-88489365D01*
X81876692Y-88489365D01*
X81876691Y-88489364D01*
X81876686Y-88489364D01*
X81650002Y-88469532D01*
X81649998Y-88469532D01*
X81423313Y-88489364D01*
X81423302Y-88489366D01*
X81203511Y-88548258D01*
X81203502Y-88548261D01*
X80997267Y-88644431D01*
X80997265Y-88644432D01*
X80810858Y-88774954D01*
X80649954Y-88935858D01*
X80519432Y-89122265D01*
X80519431Y-89122267D01*
X80423261Y-89328502D01*
X80423258Y-89328511D01*
X80364366Y-89548302D01*
X80364364Y-89548313D01*
X80344532Y-89774998D01*
X71470500Y-89774998D01*
X71470500Y-88499500D01*
X71490185Y-88432461D01*
X71542989Y-88386706D01*
X71594500Y-88375500D01*
X72998920Y-88375500D01*
X73096462Y-88356096D01*
X73143913Y-88346658D01*
X73280495Y-88290084D01*
X73403416Y-88207951D01*
X73507951Y-88103416D01*
X73590084Y-87980495D01*
X73646658Y-87843913D01*
X73675500Y-87698918D01*
X73675500Y-86384029D01*
X73695185Y-86316990D01*
X73747989Y-86271235D01*
X73817147Y-86261291D01*
X73873810Y-86284762D01*
X73952665Y-86343793D01*
X73952668Y-86343795D01*
X73952671Y-86343797D01*
X74087517Y-86394091D01*
X74087516Y-86394091D01*
X74094444Y-86394835D01*
X74147127Y-86400500D01*
X75842872Y-86400499D01*
X75902483Y-86394091D01*
X76037331Y-86343796D01*
X76152546Y-86257546D01*
X76238796Y-86142331D01*
X76289091Y-86007483D01*
X76295500Y-85947873D01*
X76295499Y-85099994D01*
X76594357Y-85099994D01*
X76594357Y-85100005D01*
X76614890Y-85347812D01*
X76614892Y-85347824D01*
X76675936Y-85588881D01*
X76775826Y-85816606D01*
X76911833Y-86024782D01*
X76911836Y-86024785D01*
X77080256Y-86207738D01*
X77276491Y-86360474D01*
X77337725Y-86393612D01*
X77494332Y-86478364D01*
X77495190Y-86478828D01*
X77647415Y-86531087D01*
X77728964Y-86559083D01*
X77730386Y-86559571D01*
X77975665Y-86600500D01*
X78224335Y-86600500D01*
X78469614Y-86559571D01*
X78704810Y-86478828D01*
X78923509Y-86360474D01*
X79119744Y-86207738D01*
X79288164Y-86024785D01*
X79424173Y-85816607D01*
X79524063Y-85588881D01*
X79585108Y-85347821D01*
X79585116Y-85347729D01*
X79605643Y-85100005D01*
X79605643Y-85099994D01*
X81094859Y-85099994D01*
X81094859Y-85100005D01*
X81115385Y-85347729D01*
X81115387Y-85347738D01*
X81176412Y-85588717D01*
X81276267Y-85816367D01*
X81376562Y-85969881D01*
X82076212Y-85270233D01*
X82087482Y-85312292D01*
X82159890Y-85437708D01*
X82262292Y-85540110D01*
X82387708Y-85612518D01*
X82429766Y-85623787D01*
X81729943Y-86323609D01*
X81776768Y-86360055D01*
X81776771Y-86360057D01*
X81995385Y-86478364D01*
X81995396Y-86478369D01*
X82230506Y-86559083D01*
X82475707Y-86600000D01*
X82724293Y-86600000D01*
X82969493Y-86559083D01*
X83204603Y-86478369D01*
X83204614Y-86478364D01*
X83423230Y-86360056D01*
X83423236Y-86360051D01*
X83470055Y-86323610D01*
X83470056Y-86323609D01*
X82770233Y-85623787D01*
X82812292Y-85612518D01*
X82937708Y-85540110D01*
X83040110Y-85437708D01*
X83112518Y-85312292D01*
X83123787Y-85270234D01*
X83823435Y-85969882D01*
X83923733Y-85816364D01*
X84023587Y-85588717D01*
X84084612Y-85347738D01*
X84084614Y-85347729D01*
X84105141Y-85100005D01*
X84105141Y-85099994D01*
X84084614Y-84852270D01*
X84084612Y-84852261D01*
X84023587Y-84611282D01*
X83923732Y-84383632D01*
X83823435Y-84230116D01*
X83123787Y-84929765D01*
X83112518Y-84887708D01*
X83040110Y-84762292D01*
X82937708Y-84659890D01*
X82812292Y-84587482D01*
X82770233Y-84576212D01*
X83470055Y-83876389D01*
X83470055Y-83876388D01*
X83423236Y-83839947D01*
X83423231Y-83839944D01*
X83204614Y-83721635D01*
X83204603Y-83721630D01*
X82969493Y-83640916D01*
X82724293Y-83600000D01*
X82475707Y-83600000D01*
X82230506Y-83640916D01*
X81995396Y-83721630D01*
X81995385Y-83721635D01*
X81776770Y-83839943D01*
X81729943Y-83876389D01*
X82429766Y-84576212D01*
X82387708Y-84587482D01*
X82262292Y-84659890D01*
X82159890Y-84762292D01*
X82087482Y-84887708D01*
X82076212Y-84929766D01*
X81376563Y-84230117D01*
X81276267Y-84383633D01*
X81276265Y-84383637D01*
X81176412Y-84611282D01*
X81115387Y-84852261D01*
X81115385Y-84852270D01*
X81094859Y-85099994D01*
X79605643Y-85099994D01*
X79585109Y-84852187D01*
X79585107Y-84852175D01*
X79524063Y-84611118D01*
X79424173Y-84383393D01*
X79288166Y-84175217D01*
X79179955Y-84057669D01*
X79119744Y-83992262D01*
X78923509Y-83839526D01*
X78923507Y-83839525D01*
X78923506Y-83839524D01*
X78704811Y-83721172D01*
X78704802Y-83721169D01*
X78469616Y-83640429D01*
X78224335Y-83599500D01*
X77975665Y-83599500D01*
X77730383Y-83640429D01*
X77495197Y-83721169D01*
X77495188Y-83721172D01*
X77276493Y-83839524D01*
X77080257Y-83992261D01*
X76911833Y-84175217D01*
X76775826Y-84383393D01*
X76675936Y-84611118D01*
X76614892Y-84852175D01*
X76614890Y-84852187D01*
X76594357Y-85099994D01*
X76295499Y-85099994D01*
X76295499Y-84252128D01*
X76289091Y-84192517D01*
X76254567Y-84099954D01*
X76238797Y-84057671D01*
X76238793Y-84057664D01*
X76152547Y-83942455D01*
X76152544Y-83942452D01*
X76037335Y-83856206D01*
X76037328Y-83856202D01*
X75902482Y-83805908D01*
X75902483Y-83805908D01*
X75867404Y-83802137D01*
X75802853Y-83775399D01*
X75763005Y-83718006D01*
X75760512Y-83648181D01*
X75796165Y-83588092D01*
X75809539Y-83577272D01*
X75834140Y-83560046D01*
X75995045Y-83399141D01*
X75995047Y-83399139D01*
X76125568Y-83212734D01*
X76221739Y-83006496D01*
X76280635Y-82786692D01*
X76300468Y-82560000D01*
X76299375Y-82547512D01*
X76292990Y-82474526D01*
X76280635Y-82333308D01*
X76221739Y-82113504D01*
X76125568Y-81907266D01*
X75995047Y-81720861D01*
X75995045Y-81720858D01*
X75834141Y-81559954D01*
X75647734Y-81429432D01*
X75647728Y-81429429D01*
X75589725Y-81402382D01*
X75537285Y-81356210D01*
X75518133Y-81289017D01*
X75538348Y-81222135D01*
X75589725Y-81177618D01*
X75647734Y-81150568D01*
X75834139Y-81020047D01*
X75995047Y-80859139D01*
X76125568Y-80672734D01*
X76221739Y-80466496D01*
X76280635Y-80246692D01*
X76300468Y-80020000D01*
X76280635Y-79793308D01*
X76221739Y-79573504D01*
X76125568Y-79367266D01*
X75995047Y-79180861D01*
X75995045Y-79180858D01*
X75834141Y-79019954D01*
X75647734Y-78889432D01*
X75647728Y-78889429D01*
X75589725Y-78862382D01*
X75537285Y-78816210D01*
X75518133Y-78749017D01*
X75538348Y-78682135D01*
X75589725Y-78637618D01*
X75647734Y-78610568D01*
X75662835Y-78599994D01*
X76594357Y-78599994D01*
X76594357Y-78600005D01*
X76614890Y-78847812D01*
X76614892Y-78847824D01*
X76675936Y-79088881D01*
X76775826Y-79316606D01*
X76911833Y-79524782D01*
X76911836Y-79524785D01*
X77080256Y-79707738D01*
X77276491Y-79860474D01*
X77276493Y-79860475D01*
X77494332Y-79978364D01*
X77495190Y-79978828D01*
X77615114Y-80019998D01*
X77728964Y-80059083D01*
X77730386Y-80059571D01*
X77975665Y-80100500D01*
X78224335Y-80100500D01*
X78469614Y-80059571D01*
X78704810Y-79978828D01*
X78923509Y-79860474D01*
X79119744Y-79707738D01*
X79288164Y-79524785D01*
X79424173Y-79316607D01*
X79524063Y-79088881D01*
X79585108Y-78847821D01*
X79586894Y-78826269D01*
X79605643Y-78600005D01*
X79605643Y-78599994D01*
X81094859Y-78599994D01*
X81094859Y-78600005D01*
X81115385Y-78847729D01*
X81115387Y-78847738D01*
X81176412Y-79088717D01*
X81276267Y-79316367D01*
X81376562Y-79469881D01*
X82076212Y-78770233D01*
X82087482Y-78812292D01*
X82159890Y-78937708D01*
X82262292Y-79040110D01*
X82387708Y-79112518D01*
X82429766Y-79123787D01*
X81729943Y-79823609D01*
X81776768Y-79860055D01*
X81776771Y-79860057D01*
X81995385Y-79978364D01*
X81995396Y-79978369D01*
X82230506Y-80059083D01*
X82475707Y-80100000D01*
X82724293Y-80100000D01*
X82969493Y-80059083D01*
X83204603Y-79978369D01*
X83204614Y-79978364D01*
X83423230Y-79860056D01*
X83423236Y-79860051D01*
X83470055Y-79823610D01*
X83470056Y-79823609D01*
X82770233Y-79123787D01*
X82812292Y-79112518D01*
X82937708Y-79040110D01*
X83040110Y-78937708D01*
X83112518Y-78812292D01*
X83123787Y-78770234D01*
X83823435Y-79469882D01*
X83923733Y-79316364D01*
X84023587Y-79088717D01*
X84084612Y-78847738D01*
X84084614Y-78847729D01*
X84105141Y-78600005D01*
X84105141Y-78599994D01*
X84084614Y-78352270D01*
X84084612Y-78352261D01*
X84023587Y-78111282D01*
X83923732Y-77883632D01*
X83823435Y-77730116D01*
X83123787Y-78429765D01*
X83112518Y-78387708D01*
X83040110Y-78262292D01*
X82937708Y-78159890D01*
X82812292Y-78087482D01*
X82770233Y-78076212D01*
X83470055Y-77376389D01*
X83470055Y-77376388D01*
X83423236Y-77339947D01*
X83423231Y-77339944D01*
X83204614Y-77221635D01*
X83204603Y-77221630D01*
X82969493Y-77140916D01*
X82724293Y-77100000D01*
X82475707Y-77100000D01*
X82230506Y-77140916D01*
X81995396Y-77221630D01*
X81995385Y-77221635D01*
X81776770Y-77339943D01*
X81729943Y-77376389D01*
X82429766Y-78076212D01*
X82387708Y-78087482D01*
X82262292Y-78159890D01*
X82159890Y-78262292D01*
X82087482Y-78387708D01*
X82076212Y-78429766D01*
X81376563Y-77730117D01*
X81276267Y-77883633D01*
X81276265Y-77883637D01*
X81176412Y-78111282D01*
X81115387Y-78352261D01*
X81115385Y-78352270D01*
X81094859Y-78599994D01*
X79605643Y-78599994D01*
X79585109Y-78352187D01*
X79585107Y-78352175D01*
X79524063Y-78111118D01*
X79424173Y-77883393D01*
X79288166Y-77675217D01*
X79266557Y-77651744D01*
X79119744Y-77492262D01*
X78923509Y-77339526D01*
X78923507Y-77339525D01*
X78923506Y-77339524D01*
X78704811Y-77221172D01*
X78704802Y-77221169D01*
X78469616Y-77140429D01*
X78224335Y-77099500D01*
X77975665Y-77099500D01*
X77730383Y-77140429D01*
X77495197Y-77221169D01*
X77495188Y-77221172D01*
X77276493Y-77339524D01*
X77080257Y-77492261D01*
X76911833Y-77675217D01*
X76775826Y-77883393D01*
X76675936Y-78111118D01*
X76614892Y-78352175D01*
X76614890Y-78352187D01*
X76594357Y-78599994D01*
X75662835Y-78599994D01*
X75834139Y-78480047D01*
X75995047Y-78319139D01*
X76125568Y-78132734D01*
X76221739Y-77926496D01*
X76280635Y-77706692D01*
X76300468Y-77480000D01*
X76280635Y-77253308D01*
X76221739Y-77033504D01*
X76125568Y-76827266D01*
X75995047Y-76640861D01*
X75995045Y-76640858D01*
X75834141Y-76479954D01*
X75647734Y-76349432D01*
X75647728Y-76349429D01*
X75589725Y-76322382D01*
X75537285Y-76276210D01*
X75518133Y-76209017D01*
X75538348Y-76142135D01*
X75589725Y-76097618D01*
X75647734Y-76070568D01*
X75834139Y-75940047D01*
X75995047Y-75779139D01*
X76125568Y-75592734D01*
X76221739Y-75386496D01*
X76280635Y-75166692D01*
X76300468Y-74940000D01*
X76280635Y-74713308D01*
X76221739Y-74493504D01*
X76125568Y-74287266D01*
X75995047Y-74100861D01*
X75995045Y-74100858D01*
X75834141Y-73939954D01*
X75647734Y-73809432D01*
X75647728Y-73809429D01*
X75589725Y-73782382D01*
X75537285Y-73736210D01*
X75518133Y-73669017D01*
X75538348Y-73602135D01*
X75589725Y-73557618D01*
X75647734Y-73530568D01*
X75834139Y-73400047D01*
X75995047Y-73239139D01*
X76125568Y-73052734D01*
X76221739Y-72846496D01*
X76280635Y-72626692D01*
X76300468Y-72400000D01*
X76296233Y-72351599D01*
X76289916Y-72279394D01*
X76280635Y-72173308D01*
X76267690Y-72124998D01*
X77744532Y-72124998D01*
X77744532Y-72125001D01*
X77764364Y-72351686D01*
X77764366Y-72351697D01*
X77823258Y-72571488D01*
X77823261Y-72571497D01*
X77919431Y-72777732D01*
X77919432Y-72777734D01*
X78049954Y-72964141D01*
X78210858Y-73125045D01*
X78210861Y-73125047D01*
X78397266Y-73255568D01*
X78603504Y-73351739D01*
X78823308Y-73410635D01*
X78985230Y-73424801D01*
X79049998Y-73430468D01*
X79050000Y-73430468D01*
X79050002Y-73430468D01*
X79106673Y-73425509D01*
X79276692Y-73410635D01*
X79496496Y-73351739D01*
X79702734Y-73255568D01*
X79889139Y-73125047D01*
X80050047Y-72964139D01*
X80180568Y-72777734D01*
X80187893Y-72762024D01*
X80234064Y-72709586D01*
X80301257Y-72690433D01*
X80368138Y-72710648D01*
X80412657Y-72762024D01*
X80419864Y-72777480D01*
X80470974Y-72850472D01*
X81150000Y-72171446D01*
X81150000Y-72177661D01*
X81177259Y-72279394D01*
X81229920Y-72370606D01*
X81304394Y-72445080D01*
X81395606Y-72497741D01*
X81497339Y-72525000D01*
X81503553Y-72525000D01*
X80824526Y-73204025D01*
X80897513Y-73255132D01*
X80897521Y-73255136D01*
X81103668Y-73351264D01*
X81103682Y-73351269D01*
X81323389Y-73410139D01*
X81323400Y-73410141D01*
X81549998Y-73429966D01*
X81550002Y-73429966D01*
X81776599Y-73410141D01*
X81776610Y-73410139D01*
X81996317Y-73351269D01*
X81996331Y-73351264D01*
X82202478Y-73255136D01*
X82275471Y-73204024D01*
X81596447Y-72525000D01*
X81602661Y-72525000D01*
X81704394Y-72497741D01*
X81795606Y-72445080D01*
X81870080Y-72370606D01*
X81922741Y-72279394D01*
X81950000Y-72177661D01*
X81950000Y-72171447D01*
X82629024Y-72850471D01*
X82680136Y-72777478D01*
X82776264Y-72571331D01*
X82776269Y-72571317D01*
X82835139Y-72351610D01*
X82835141Y-72351599D01*
X82854966Y-72125002D01*
X82854966Y-72124997D01*
X82835141Y-71898400D01*
X82835139Y-71898389D01*
X82776269Y-71678682D01*
X82776264Y-71678668D01*
X82680136Y-71472521D01*
X82680132Y-71472513D01*
X82629025Y-71399526D01*
X81950000Y-72078551D01*
X81950000Y-72072339D01*
X81922741Y-71970606D01*
X81870080Y-71879394D01*
X81795606Y-71804920D01*
X81704394Y-71752259D01*
X81602661Y-71725000D01*
X81596445Y-71725000D01*
X82275472Y-71045974D01*
X82202478Y-70994863D01*
X81996331Y-70898735D01*
X81996317Y-70898730D01*
X81776610Y-70839860D01*
X81776599Y-70839858D01*
X81550002Y-70820034D01*
X81549998Y-70820034D01*
X81323400Y-70839858D01*
X81323389Y-70839860D01*
X81103682Y-70898730D01*
X81103673Y-70898734D01*
X80897516Y-70994866D01*
X80897512Y-70994868D01*
X80824526Y-71045973D01*
X80824526Y-71045974D01*
X81503553Y-71725000D01*
X81497339Y-71725000D01*
X81395606Y-71752259D01*
X81304394Y-71804920D01*
X81229920Y-71879394D01*
X81177259Y-71970606D01*
X81150000Y-72072339D01*
X81150000Y-72078552D01*
X80470974Y-71399526D01*
X80470973Y-71399526D01*
X80419868Y-71472512D01*
X80419867Y-71472514D01*
X80412656Y-71487979D01*
X80366482Y-71540417D01*
X80299288Y-71559567D01*
X80232407Y-71539350D01*
X80187893Y-71487976D01*
X80180568Y-71472266D01*
X80050047Y-71285861D01*
X80050045Y-71285858D01*
X79889141Y-71124954D01*
X79702734Y-70994432D01*
X79702732Y-70994431D01*
X79496497Y-70898261D01*
X79496488Y-70898258D01*
X79276697Y-70839366D01*
X79276693Y-70839365D01*
X79276692Y-70839365D01*
X79276691Y-70839364D01*
X79276686Y-70839364D01*
X79050002Y-70819532D01*
X79049998Y-70819532D01*
X78823313Y-70839364D01*
X78823302Y-70839366D01*
X78603511Y-70898258D01*
X78603502Y-70898261D01*
X78397267Y-70994431D01*
X78397265Y-70994432D01*
X78210858Y-71124954D01*
X78049954Y-71285858D01*
X77919432Y-71472265D01*
X77919431Y-71472267D01*
X77823261Y-71678502D01*
X77823258Y-71678511D01*
X77764366Y-71898302D01*
X77764364Y-71898313D01*
X77744532Y-72124998D01*
X76267690Y-72124998D01*
X76235916Y-72006415D01*
X76221741Y-71953511D01*
X76221738Y-71953502D01*
X76196003Y-71898313D01*
X76125568Y-71747266D01*
X75995047Y-71560861D01*
X75995045Y-71560858D01*
X75834141Y-71399954D01*
X75647734Y-71269432D01*
X75647728Y-71269429D01*
X75589725Y-71242382D01*
X75537285Y-71196210D01*
X75518133Y-71129017D01*
X75538348Y-71062135D01*
X75589725Y-71017618D01*
X75590319Y-71017341D01*
X75647734Y-70990568D01*
X75834139Y-70860047D01*
X75995047Y-70699139D01*
X76125568Y-70512734D01*
X76221739Y-70306496D01*
X76280635Y-70086692D01*
X76300468Y-69860000D01*
X76280635Y-69633308D01*
X76221739Y-69413504D01*
X76125568Y-69207266D01*
X75995047Y-69020861D01*
X75995045Y-69020858D01*
X75834141Y-68859954D01*
X75647734Y-68729432D01*
X75647732Y-68729431D01*
X75636275Y-68724088D01*
X75589132Y-68702105D01*
X75536694Y-68655934D01*
X75517542Y-68588740D01*
X75537758Y-68521859D01*
X75589134Y-68477341D01*
X75647484Y-68450132D01*
X75833820Y-68319657D01*
X75994657Y-68158820D01*
X76125134Y-67972482D01*
X76221265Y-67766326D01*
X76221269Y-67766317D01*
X76273872Y-67570000D01*
X75310686Y-67570000D01*
X75315080Y-67565606D01*
X75367741Y-67474394D01*
X75395000Y-67372661D01*
X75395000Y-67267339D01*
X75367741Y-67165606D01*
X75344296Y-67124997D01*
X77794723Y-67124997D01*
X77794723Y-67125002D01*
X77813793Y-67342975D01*
X77813793Y-67342979D01*
X77870422Y-67554322D01*
X77870424Y-67554326D01*
X77870425Y-67554330D01*
X77910411Y-67640080D01*
X77962897Y-67752638D01*
X77962898Y-67752639D01*
X78088402Y-67931877D01*
X78243123Y-68086598D01*
X78422361Y-68212102D01*
X78620670Y-68304575D01*
X78832023Y-68361207D01*
X79014926Y-68377208D01*
X79049998Y-68380277D01*
X79050000Y-68380277D01*
X79050002Y-68380277D01*
X79078254Y-68377805D01*
X79267977Y-68361207D01*
X79479330Y-68304575D01*
X79677639Y-68212102D01*
X79856877Y-68086598D01*
X80011598Y-67931877D01*
X80137102Y-67752639D01*
X80229575Y-67554330D01*
X80286207Y-67342977D01*
X80305277Y-67125000D01*
X80286207Y-66907023D01*
X80229575Y-66695670D01*
X80137102Y-66497362D01*
X80137100Y-66497359D01*
X80137099Y-66497357D01*
X80011599Y-66318124D01*
X80011596Y-66318121D01*
X79856877Y-66163402D01*
X79696328Y-66050984D01*
X79677638Y-66037897D01*
X79561606Y-65983791D01*
X79479330Y-65945425D01*
X79479326Y-65945424D01*
X79479322Y-65945422D01*
X79267977Y-65888793D01*
X79050002Y-65869723D01*
X79049998Y-65869723D01*
X78904682Y-65882436D01*
X78832023Y-65888793D01*
X78832020Y-65888793D01*
X78620677Y-65945422D01*
X78620668Y-65945426D01*
X78422361Y-66037898D01*
X78422357Y-66037900D01*
X78243121Y-66163402D01*
X78088402Y-66318121D01*
X77962900Y-66497357D01*
X77962898Y-66497361D01*
X77870426Y-66695668D01*
X77870422Y-66695677D01*
X77813793Y-66907020D01*
X77813793Y-66907024D01*
X77794723Y-67124997D01*
X75344296Y-67124997D01*
X75315080Y-67074394D01*
X75310686Y-67070000D01*
X76273872Y-67070000D01*
X76273872Y-67069999D01*
X76221269Y-66873682D01*
X76221265Y-66873673D01*
X76125134Y-66667517D01*
X75994657Y-66481179D01*
X75833820Y-66320342D01*
X75647482Y-66189865D01*
X75589133Y-66162657D01*
X75536694Y-66116484D01*
X75517542Y-66049291D01*
X75537758Y-65982410D01*
X75589129Y-65937895D01*
X75647734Y-65910568D01*
X75834139Y-65780047D01*
X75995047Y-65619139D01*
X76125568Y-65432734D01*
X76221739Y-65226496D01*
X76280635Y-65006692D01*
X76300468Y-64780000D01*
X76280635Y-64553308D01*
X76221739Y-64333504D01*
X76125568Y-64127266D01*
X75995047Y-63940861D01*
X75995045Y-63940858D01*
X75834141Y-63779954D01*
X75647734Y-63649432D01*
X75647728Y-63649429D01*
X75589725Y-63622382D01*
X75537285Y-63576210D01*
X75518133Y-63509017D01*
X75538348Y-63442135D01*
X75589725Y-63397618D01*
X75647734Y-63370568D01*
X75834139Y-63240047D01*
X75995047Y-63079139D01*
X76125568Y-62892734D01*
X76221739Y-62686496D01*
X76280635Y-62466692D01*
X76300468Y-62240000D01*
X76299155Y-62224997D01*
X77794723Y-62224997D01*
X77794723Y-62225002D01*
X77813793Y-62442975D01*
X77813793Y-62442979D01*
X77870422Y-62654322D01*
X77870424Y-62654326D01*
X77870425Y-62654330D01*
X77885425Y-62686497D01*
X77962897Y-62852638D01*
X77962898Y-62852639D01*
X78088402Y-63031877D01*
X78243123Y-63186598D01*
X78422361Y-63312102D01*
X78620670Y-63404575D01*
X78832023Y-63461207D01*
X79014926Y-63477208D01*
X79049998Y-63480277D01*
X79050000Y-63480277D01*
X79050002Y-63480277D01*
X79078254Y-63477805D01*
X79267977Y-63461207D01*
X79479330Y-63404575D01*
X79677639Y-63312102D01*
X79856877Y-63186598D01*
X80011598Y-63031877D01*
X80137102Y-62852639D01*
X80229575Y-62654330D01*
X80286207Y-62442977D01*
X80305277Y-62225000D01*
X80286207Y-62007023D01*
X80229575Y-61795670D01*
X80137102Y-61597362D01*
X80137100Y-61597359D01*
X80137099Y-61597357D01*
X80011599Y-61418124D01*
X79994333Y-61400858D01*
X79856877Y-61263402D01*
X79677639Y-61137898D01*
X79677640Y-61137898D01*
X79677638Y-61137897D01*
X79578484Y-61091661D01*
X79479330Y-61045425D01*
X79479326Y-61045424D01*
X79479322Y-61045422D01*
X79267977Y-60988793D01*
X79050002Y-60969723D01*
X79049998Y-60969723D01*
X78904682Y-60982436D01*
X78832023Y-60988793D01*
X78832020Y-60988793D01*
X78620677Y-61045422D01*
X78620668Y-61045426D01*
X78422361Y-61137898D01*
X78422357Y-61137900D01*
X78243121Y-61263402D01*
X78088402Y-61418121D01*
X77962900Y-61597357D01*
X77962898Y-61597361D01*
X77870426Y-61795668D01*
X77870422Y-61795677D01*
X77813793Y-62007020D01*
X77813793Y-62007024D01*
X77794723Y-62224997D01*
X76299155Y-62224997D01*
X76280635Y-62013313D01*
X76280635Y-62013308D01*
X76221739Y-61793504D01*
X76125568Y-61587266D01*
X76007134Y-61418123D01*
X75995045Y-61400858D01*
X75834141Y-61239954D01*
X75647734Y-61109432D01*
X75647728Y-61109429D01*
X75589725Y-61082382D01*
X75537285Y-61036210D01*
X75518133Y-60969017D01*
X75538348Y-60902135D01*
X75589725Y-60857618D01*
X75647734Y-60830568D01*
X75834139Y-60700047D01*
X75995047Y-60539139D01*
X76125568Y-60352734D01*
X76221739Y-60146496D01*
X76280635Y-59926692D01*
X76300468Y-59700000D01*
X76280635Y-59473308D01*
X76221739Y-59253504D01*
X76125568Y-59047266D01*
X75995047Y-58860861D01*
X75995045Y-58860858D01*
X75834141Y-58699954D01*
X75647734Y-58569432D01*
X75647728Y-58569429D01*
X75620038Y-58556517D01*
X75589724Y-58542381D01*
X75537285Y-58496210D01*
X75518133Y-58429017D01*
X75538348Y-58362135D01*
X75589725Y-58317618D01*
X75647734Y-58290568D01*
X75834139Y-58160047D01*
X75995047Y-57999139D01*
X76125568Y-57812734D01*
X76221739Y-57606496D01*
X76280635Y-57386692D01*
X76300468Y-57160000D01*
X76297406Y-57124998D01*
X77744532Y-57124998D01*
X77744532Y-57125001D01*
X77764364Y-57351686D01*
X77764366Y-57351697D01*
X77823258Y-57571488D01*
X77823261Y-57571497D01*
X77919431Y-57777732D01*
X77919432Y-57777734D01*
X78049954Y-57964141D01*
X78210858Y-58125045D01*
X78235454Y-58142267D01*
X78397266Y-58255568D01*
X78603504Y-58351739D01*
X78603509Y-58351740D01*
X78603511Y-58351741D01*
X78648483Y-58363791D01*
X78823308Y-58410635D01*
X78985230Y-58424801D01*
X79049998Y-58430468D01*
X79050000Y-58430468D01*
X79050002Y-58430468D01*
X79106673Y-58425509D01*
X79276692Y-58410635D01*
X79496496Y-58351739D01*
X79702734Y-58255568D01*
X79889139Y-58125047D01*
X80050047Y-57964139D01*
X80180568Y-57777734D01*
X80187893Y-57762024D01*
X80234064Y-57709586D01*
X80301257Y-57690433D01*
X80368138Y-57710648D01*
X80412657Y-57762024D01*
X80419864Y-57777480D01*
X80470974Y-57850472D01*
X81150000Y-57171446D01*
X81150000Y-57177661D01*
X81177259Y-57279394D01*
X81229920Y-57370606D01*
X81304394Y-57445080D01*
X81395606Y-57497741D01*
X81497339Y-57525000D01*
X81503553Y-57525000D01*
X80824526Y-58204025D01*
X80897513Y-58255132D01*
X80897521Y-58255136D01*
X81103668Y-58351264D01*
X81103682Y-58351269D01*
X81323389Y-58410139D01*
X81323400Y-58410141D01*
X81549998Y-58429966D01*
X81550002Y-58429966D01*
X81776599Y-58410141D01*
X81776610Y-58410139D01*
X81996317Y-58351269D01*
X81996331Y-58351264D01*
X82202478Y-58255136D01*
X82275471Y-58204024D01*
X81596447Y-57525000D01*
X81602661Y-57525000D01*
X81704394Y-57497741D01*
X81795606Y-57445080D01*
X81870080Y-57370606D01*
X81922741Y-57279394D01*
X81950000Y-57177661D01*
X81950000Y-57171447D01*
X82629024Y-57850471D01*
X82680136Y-57777478D01*
X82776264Y-57571331D01*
X82776269Y-57571317D01*
X82835139Y-57351610D01*
X82835141Y-57351599D01*
X82854966Y-57125002D01*
X82854966Y-57124997D01*
X82835141Y-56898400D01*
X82835139Y-56898389D01*
X82776269Y-56678682D01*
X82776264Y-56678668D01*
X82680136Y-56472521D01*
X82680132Y-56472513D01*
X82629025Y-56399526D01*
X81950000Y-57078551D01*
X81950000Y-57072339D01*
X81922741Y-56970606D01*
X81870080Y-56879394D01*
X81795606Y-56804920D01*
X81704394Y-56752259D01*
X81602661Y-56725000D01*
X81596445Y-56725000D01*
X82275472Y-56045974D01*
X82202478Y-55994863D01*
X81996331Y-55898735D01*
X81996317Y-55898730D01*
X81776610Y-55839860D01*
X81776599Y-55839858D01*
X81550002Y-55820034D01*
X81549998Y-55820034D01*
X81323400Y-55839858D01*
X81323389Y-55839860D01*
X81103682Y-55898730D01*
X81103673Y-55898734D01*
X80897516Y-55994866D01*
X80897512Y-55994868D01*
X80824526Y-56045973D01*
X80824526Y-56045974D01*
X81503553Y-56725000D01*
X81497339Y-56725000D01*
X81395606Y-56752259D01*
X81304394Y-56804920D01*
X81229920Y-56879394D01*
X81177259Y-56970606D01*
X81150000Y-57072339D01*
X81150000Y-57078552D01*
X80470974Y-56399526D01*
X80470973Y-56399526D01*
X80419868Y-56472512D01*
X80419867Y-56472514D01*
X80412656Y-56487979D01*
X80366482Y-56540417D01*
X80299288Y-56559567D01*
X80232407Y-56539350D01*
X80187893Y-56487976D01*
X80180568Y-56472266D01*
X80050047Y-56285861D01*
X80050045Y-56285858D01*
X79889141Y-56124954D01*
X79702734Y-55994432D01*
X79702732Y-55994431D01*
X79496497Y-55898261D01*
X79496488Y-55898258D01*
X79276697Y-55839366D01*
X79276693Y-55839365D01*
X79276692Y-55839365D01*
X79276691Y-55839364D01*
X79276686Y-55839364D01*
X79050002Y-55819532D01*
X79049998Y-55819532D01*
X78823313Y-55839364D01*
X78823302Y-55839366D01*
X78603511Y-55898258D01*
X78603502Y-55898261D01*
X78397267Y-55994431D01*
X78397265Y-55994432D01*
X78210858Y-56124954D01*
X78049954Y-56285858D01*
X77919432Y-56472265D01*
X77919431Y-56472267D01*
X77823261Y-56678502D01*
X77823258Y-56678511D01*
X77764366Y-56898302D01*
X77764364Y-56898313D01*
X77744532Y-57124998D01*
X76297406Y-57124998D01*
X76280635Y-56933308D01*
X76221739Y-56713504D01*
X76125568Y-56507266D01*
X75995047Y-56320861D01*
X75995045Y-56320858D01*
X75834141Y-56159954D01*
X75647734Y-56029432D01*
X75647728Y-56029429D01*
X75589725Y-56002382D01*
X75537285Y-55956210D01*
X75518133Y-55889017D01*
X75538348Y-55822135D01*
X75589725Y-55777618D01*
X75647734Y-55750568D01*
X75834139Y-55620047D01*
X75995047Y-55459139D01*
X76125568Y-55272734D01*
X76221739Y-55066496D01*
X76280635Y-54846692D01*
X76300468Y-54620000D01*
X76280635Y-54393308D01*
X76221739Y-54173504D01*
X76125568Y-53967266D01*
X75995047Y-53780861D01*
X75995045Y-53780858D01*
X75834141Y-53619954D01*
X75647734Y-53489432D01*
X75647728Y-53489429D01*
X75589725Y-53462382D01*
X75537285Y-53416210D01*
X75518133Y-53349017D01*
X75538348Y-53282135D01*
X75589725Y-53237618D01*
X75647734Y-53210568D01*
X75834139Y-53080047D01*
X75995047Y-52919139D01*
X76125568Y-52732734D01*
X76221739Y-52526496D01*
X76280635Y-52306692D01*
X76300468Y-52080000D01*
X76280635Y-51853308D01*
X76221739Y-51633504D01*
X76125568Y-51427266D01*
X75995047Y-51240861D01*
X75995045Y-51240858D01*
X75834141Y-51079954D01*
X75647734Y-50949432D01*
X75647732Y-50949431D01*
X75441497Y-50853261D01*
X75441488Y-50853258D01*
X75221697Y-50794366D01*
X75221693Y-50794365D01*
X75221692Y-50794365D01*
X75221691Y-50794364D01*
X75221686Y-50794364D01*
X74995002Y-50774532D01*
X74994998Y-50774532D01*
X74768313Y-50794364D01*
X74768302Y-50794366D01*
X74548511Y-50853258D01*
X74548502Y-50853261D01*
X74342267Y-50949431D01*
X74342265Y-50949432D01*
X74155858Y-51079954D01*
X73994954Y-51240858D01*
X73864432Y-51427265D01*
X73864431Y-51427267D01*
X73768261Y-51633502D01*
X73768258Y-51633511D01*
X73709366Y-51853302D01*
X73709364Y-51853313D01*
X73689532Y-52079998D01*
X73689532Y-52080001D01*
X73709364Y-52306686D01*
X73709366Y-52306697D01*
X73768258Y-52526488D01*
X73768261Y-52526497D01*
X73864431Y-52732732D01*
X73864432Y-52732734D01*
X73994954Y-52919141D01*
X74155858Y-53080045D01*
X74155861Y-53080047D01*
X74342266Y-53210568D01*
X74400275Y-53237618D01*
X74452714Y-53283791D01*
X74471866Y-53350984D01*
X74451650Y-53417865D01*
X74400275Y-53462382D01*
X74342267Y-53489431D01*
X74342265Y-53489432D01*
X74155858Y-53619954D01*
X73994954Y-53780858D01*
X73864432Y-53967265D01*
X73864431Y-53967267D01*
X73768261Y-54173502D01*
X73768258Y-54173511D01*
X73709366Y-54393302D01*
X73709364Y-54393313D01*
X73689532Y-54619998D01*
X73689532Y-54620001D01*
X73709364Y-54846686D01*
X73709366Y-54846697D01*
X73768258Y-55066488D01*
X73768261Y-55066497D01*
X73864431Y-55272732D01*
X73864432Y-55272734D01*
X73994954Y-55459141D01*
X74155858Y-55620045D01*
X74155861Y-55620047D01*
X74342266Y-55750568D01*
X74400275Y-55777618D01*
X74452714Y-55823791D01*
X74471866Y-55890984D01*
X74451650Y-55957865D01*
X74400275Y-56002382D01*
X74342267Y-56029431D01*
X74342265Y-56029432D01*
X74155858Y-56159954D01*
X73994954Y-56320858D01*
X73864432Y-56507265D01*
X73864431Y-56507267D01*
X73768261Y-56713502D01*
X73768258Y-56713511D01*
X73709366Y-56933302D01*
X73709364Y-56933313D01*
X73689532Y-57159998D01*
X73689532Y-57160001D01*
X73709364Y-57386686D01*
X73709366Y-57386697D01*
X73768258Y-57606488D01*
X73768261Y-57606497D01*
X73864431Y-57812732D01*
X73864432Y-57812734D01*
X73994954Y-57999141D01*
X74155858Y-58160045D01*
X74155861Y-58160047D01*
X74342266Y-58290568D01*
X74400275Y-58317618D01*
X74452714Y-58363791D01*
X74471866Y-58430984D01*
X74451650Y-58497865D01*
X74400275Y-58542381D01*
X74383272Y-58550310D01*
X74342267Y-58569431D01*
X74342265Y-58569432D01*
X74155858Y-58699954D01*
X73994954Y-58860858D01*
X73864432Y-59047265D01*
X73864431Y-59047267D01*
X73768261Y-59253502D01*
X73768258Y-59253511D01*
X73709366Y-59473302D01*
X73709364Y-59473313D01*
X73689532Y-59699998D01*
X73689532Y-59700001D01*
X73709364Y-59926686D01*
X73709366Y-59926697D01*
X73768258Y-60146488D01*
X73768261Y-60146497D01*
X73864431Y-60352732D01*
X73864432Y-60352734D01*
X73994954Y-60539141D01*
X74155858Y-60700045D01*
X74155861Y-60700047D01*
X74342266Y-60830568D01*
X74400275Y-60857618D01*
X74452714Y-60903791D01*
X74471866Y-60970984D01*
X74451650Y-61037865D01*
X74400275Y-61082382D01*
X74342267Y-61109431D01*
X74342265Y-61109432D01*
X74155858Y-61239954D01*
X73994954Y-61400858D01*
X73864432Y-61587265D01*
X73864431Y-61587267D01*
X73768261Y-61793502D01*
X73768258Y-61793511D01*
X73709366Y-62013302D01*
X73709364Y-62013313D01*
X73689532Y-62239998D01*
X73689532Y-62240001D01*
X73709364Y-62466686D01*
X73709366Y-62466697D01*
X73768258Y-62686488D01*
X73768261Y-62686497D01*
X73864431Y-62892732D01*
X73864432Y-62892734D01*
X73994954Y-63079141D01*
X74155858Y-63240045D01*
X74155861Y-63240047D01*
X74342266Y-63370568D01*
X74400275Y-63397618D01*
X74452714Y-63443791D01*
X74471866Y-63510984D01*
X74451650Y-63577865D01*
X74400275Y-63622382D01*
X74342267Y-63649431D01*
X74342265Y-63649432D01*
X74155858Y-63779954D01*
X73994954Y-63940858D01*
X73864432Y-64127265D01*
X73864431Y-64127267D01*
X73768261Y-64333502D01*
X73768258Y-64333511D01*
X73709366Y-64553302D01*
X73709364Y-64553313D01*
X73689532Y-64779998D01*
X73689532Y-64780001D01*
X73709364Y-65006686D01*
X73709366Y-65006697D01*
X73768258Y-65226488D01*
X73768261Y-65226497D01*
X73864431Y-65432732D01*
X73864432Y-65432734D01*
X73994954Y-65619141D01*
X74155858Y-65780045D01*
X74155861Y-65780047D01*
X74342266Y-65910568D01*
X74400865Y-65937893D01*
X74453305Y-65984065D01*
X74472457Y-66051258D01*
X74452242Y-66118139D01*
X74400867Y-66162657D01*
X74342515Y-66189867D01*
X74156179Y-66320342D01*
X73995342Y-66481179D01*
X73864865Y-66667517D01*
X73768734Y-66873673D01*
X73768730Y-66873682D01*
X73716127Y-67069999D01*
X73716128Y-67070000D01*
X74679314Y-67070000D01*
X74674920Y-67074394D01*
X74622259Y-67165606D01*
X74595000Y-67267339D01*
X74595000Y-67372661D01*
X74622259Y-67474394D01*
X74674920Y-67565606D01*
X74679314Y-67570000D01*
X73716128Y-67570000D01*
X73768730Y-67766317D01*
X73768734Y-67766326D01*
X73864865Y-67972482D01*
X73995342Y-68158820D01*
X74156179Y-68319657D01*
X74342518Y-68450134D01*
X74342520Y-68450135D01*
X74400865Y-68477342D01*
X74453305Y-68523514D01*
X74472457Y-68590707D01*
X74452242Y-68657589D01*
X74400867Y-68702105D01*
X74344666Y-68728313D01*
X74342264Y-68729433D01*
X74155858Y-68859954D01*
X73994954Y-69020858D01*
X73864432Y-69207265D01*
X73864431Y-69207267D01*
X73768261Y-69413502D01*
X73768258Y-69413511D01*
X73709366Y-69633302D01*
X73709364Y-69633313D01*
X73689532Y-69859998D01*
X73689532Y-69860001D01*
X73709364Y-70086686D01*
X73709366Y-70086697D01*
X73768258Y-70306488D01*
X73768261Y-70306497D01*
X73864431Y-70512732D01*
X73864432Y-70512734D01*
X73994954Y-70699141D01*
X74155858Y-70860045D01*
X74155861Y-70860047D01*
X74342266Y-70990568D01*
X74399681Y-71017341D01*
X74400275Y-71017618D01*
X74452714Y-71063791D01*
X74471866Y-71130984D01*
X74451650Y-71197865D01*
X74400275Y-71242382D01*
X74342267Y-71269431D01*
X74342265Y-71269432D01*
X74155858Y-71399954D01*
X73994954Y-71560858D01*
X73864432Y-71747265D01*
X73864431Y-71747267D01*
X73768261Y-71953502D01*
X73768258Y-71953511D01*
X73709366Y-72173302D01*
X73709364Y-72173313D01*
X73689532Y-72399998D01*
X73689532Y-72400001D01*
X73709364Y-72626686D01*
X73709366Y-72626697D01*
X73768258Y-72846488D01*
X73768261Y-72846497D01*
X73864431Y-73052732D01*
X73864432Y-73052734D01*
X73994954Y-73239141D01*
X74155858Y-73400045D01*
X74170982Y-73410635D01*
X74342266Y-73530568D01*
X74400275Y-73557618D01*
X74452714Y-73603791D01*
X74471866Y-73670984D01*
X74451650Y-73737865D01*
X74400275Y-73782382D01*
X74342267Y-73809431D01*
X74342265Y-73809432D01*
X74155858Y-73939954D01*
X73994954Y-74100858D01*
X73864432Y-74287265D01*
X73864431Y-74287267D01*
X73768261Y-74493502D01*
X73768258Y-74493511D01*
X73709366Y-74713302D01*
X73709364Y-74713313D01*
X73689532Y-74939998D01*
X73689532Y-74940001D01*
X73709364Y-75166686D01*
X73709366Y-75166697D01*
X73768258Y-75386488D01*
X73768261Y-75386497D01*
X73864431Y-75592732D01*
X73864432Y-75592734D01*
X73994954Y-75779141D01*
X74155858Y-75940045D01*
X74155861Y-75940047D01*
X74342266Y-76070568D01*
X74400275Y-76097618D01*
X74452714Y-76143791D01*
X74471866Y-76210984D01*
X74451650Y-76277865D01*
X74400275Y-76322382D01*
X74342267Y-76349431D01*
X74342265Y-76349432D01*
X74155858Y-76479954D01*
X73994954Y-76640858D01*
X73864432Y-76827265D01*
X73864431Y-76827267D01*
X73768261Y-77033502D01*
X73768258Y-77033511D01*
X73709366Y-77253302D01*
X73709364Y-77253313D01*
X73689532Y-77479998D01*
X73689532Y-77480001D01*
X73709364Y-77706686D01*
X73709366Y-77706697D01*
X73768258Y-77926488D01*
X73768261Y-77926497D01*
X73864431Y-78132732D01*
X73864432Y-78132734D01*
X73994954Y-78319141D01*
X74155858Y-78480045D01*
X74155861Y-78480047D01*
X74342266Y-78610568D01*
X74400275Y-78637618D01*
X74452714Y-78683791D01*
X74471866Y-78750984D01*
X74451650Y-78817865D01*
X74400275Y-78862382D01*
X74342267Y-78889431D01*
X74342265Y-78889432D01*
X74155858Y-79019954D01*
X73994954Y-79180858D01*
X73969912Y-79216623D01*
X73915335Y-79260248D01*
X73868337Y-79269500D01*
X72381082Y-79269500D01*
X72367924Y-79272117D01*
X72343733Y-79274500D01*
X72076080Y-79274500D01*
X71931092Y-79303340D01*
X71931082Y-79303343D01*
X71794511Y-79359912D01*
X71794498Y-79359919D01*
X71671584Y-79442048D01*
X71671580Y-79442051D01*
X71567051Y-79546580D01*
X71567048Y-79546584D01*
X71484919Y-79669498D01*
X71484912Y-79669511D01*
X71428343Y-79806082D01*
X71428340Y-79806092D01*
X71399500Y-79951079D01*
X71399500Y-85875500D01*
X71379815Y-85942539D01*
X71327011Y-85988294D01*
X71275500Y-85999500D01*
X68570982Y-85999500D01*
X68503943Y-85979815D01*
X68458188Y-85927011D01*
X68448244Y-85857853D01*
X68469406Y-85804378D01*
X68505568Y-85752734D01*
X68601739Y-85546496D01*
X68660635Y-85326692D01*
X68680468Y-85100000D01*
X68680467Y-85099994D01*
X68674133Y-85027591D01*
X68660635Y-84873308D01*
X68601739Y-84653504D01*
X68505568Y-84447266D01*
X68407839Y-84307693D01*
X68375045Y-84260858D01*
X68214141Y-84099954D01*
X68027734Y-83969432D01*
X68027728Y-83969429D01*
X67969882Y-83942455D01*
X67969724Y-83942381D01*
X67917285Y-83896210D01*
X67898133Y-83829017D01*
X67918348Y-83762135D01*
X67969725Y-83717618D01*
X68027734Y-83690568D01*
X68214139Y-83560047D01*
X68375047Y-83399139D01*
X68505568Y-83212734D01*
X68601739Y-83006496D01*
X68660635Y-82786692D01*
X68680468Y-82560000D01*
X68679375Y-82547512D01*
X68672990Y-82474526D01*
X68660635Y-82333308D01*
X68601739Y-82113504D01*
X68505568Y-81907266D01*
X68375047Y-81720861D01*
X68375045Y-81720858D01*
X68214141Y-81559954D01*
X68027734Y-81429432D01*
X68027728Y-81429429D01*
X67969725Y-81402382D01*
X67917285Y-81356210D01*
X67898133Y-81289017D01*
X67918348Y-81222135D01*
X67969725Y-81177618D01*
X68027734Y-81150568D01*
X68214139Y-81020047D01*
X68375047Y-80859139D01*
X68505568Y-80672734D01*
X68601739Y-80466496D01*
X68660635Y-80246692D01*
X68680468Y-80020000D01*
X68660635Y-79793308D01*
X68601739Y-79573504D01*
X68505568Y-79367266D01*
X68375047Y-79180861D01*
X68375045Y-79180858D01*
X68214141Y-79019954D01*
X68027734Y-78889432D01*
X68027728Y-78889429D01*
X67969725Y-78862382D01*
X67917285Y-78816210D01*
X67898133Y-78749017D01*
X67918348Y-78682135D01*
X67969725Y-78637618D01*
X68027734Y-78610568D01*
X68214139Y-78480047D01*
X68375047Y-78319139D01*
X68505568Y-78132734D01*
X68601739Y-77926496D01*
X68660635Y-77706692D01*
X68680468Y-77480000D01*
X68660635Y-77253308D01*
X68601739Y-77033504D01*
X68505568Y-76827266D01*
X68375047Y-76640861D01*
X68375045Y-76640858D01*
X68214141Y-76479954D01*
X68027734Y-76349432D01*
X68027728Y-76349429D01*
X67969725Y-76322382D01*
X67917285Y-76276210D01*
X67898133Y-76209017D01*
X67918348Y-76142135D01*
X67969725Y-76097618D01*
X68027734Y-76070568D01*
X68214139Y-75940047D01*
X68375047Y-75779139D01*
X68505568Y-75592734D01*
X68601739Y-75386496D01*
X68660635Y-75166692D01*
X68680468Y-74940000D01*
X68660635Y-74713308D01*
X68601739Y-74493504D01*
X68505568Y-74287266D01*
X68375047Y-74100861D01*
X68375045Y-74100858D01*
X68214141Y-73939954D01*
X68027734Y-73809432D01*
X68027728Y-73809429D01*
X67969725Y-73782382D01*
X67917285Y-73736210D01*
X67898133Y-73669017D01*
X67918348Y-73602135D01*
X67969725Y-73557618D01*
X68027734Y-73530568D01*
X68214139Y-73400047D01*
X68375047Y-73239139D01*
X68505568Y-73052734D01*
X68601739Y-72846496D01*
X68660635Y-72626692D01*
X68680468Y-72400000D01*
X68676233Y-72351599D01*
X68669916Y-72279394D01*
X68660635Y-72173308D01*
X68615916Y-72006415D01*
X68601741Y-71953511D01*
X68601738Y-71953502D01*
X68576003Y-71898313D01*
X68505568Y-71747266D01*
X68375047Y-71560861D01*
X68375045Y-71560858D01*
X68214141Y-71399954D01*
X68027734Y-71269432D01*
X68027732Y-71269431D01*
X67969725Y-71242382D01*
X67969132Y-71242105D01*
X67916694Y-71195934D01*
X67897542Y-71128740D01*
X67917758Y-71061859D01*
X67969134Y-71017341D01*
X68027484Y-70990132D01*
X68213820Y-70859657D01*
X68374657Y-70698820D01*
X68505134Y-70512482D01*
X68601265Y-70306326D01*
X68601269Y-70306317D01*
X68653872Y-70110000D01*
X67690686Y-70110000D01*
X67695080Y-70105606D01*
X67747741Y-70014394D01*
X67775000Y-69912661D01*
X67775000Y-69807339D01*
X67747741Y-69705606D01*
X67695080Y-69614394D01*
X67690686Y-69610000D01*
X68653872Y-69610000D01*
X68653872Y-69609999D01*
X68601269Y-69413682D01*
X68601265Y-69413673D01*
X68505134Y-69207517D01*
X68374657Y-69021179D01*
X68213820Y-68860342D01*
X68027482Y-68729865D01*
X67969133Y-68702657D01*
X67916694Y-68656484D01*
X67897542Y-68589291D01*
X67917758Y-68522410D01*
X67969129Y-68477895D01*
X68027734Y-68450568D01*
X68214139Y-68320047D01*
X68375047Y-68159139D01*
X68505568Y-67972734D01*
X68601739Y-67766496D01*
X68660635Y-67546692D01*
X68680468Y-67320000D01*
X68660635Y-67093308D01*
X68601739Y-66873504D01*
X68505568Y-66667266D01*
X68375047Y-66480861D01*
X68375045Y-66480858D01*
X68214141Y-66319954D01*
X68027734Y-66189432D01*
X68027728Y-66189429D01*
X67971915Y-66163403D01*
X67969724Y-66162381D01*
X67917285Y-66116210D01*
X67898133Y-66049017D01*
X67918348Y-65982135D01*
X67969725Y-65937618D01*
X68027734Y-65910568D01*
X68214139Y-65780047D01*
X68375047Y-65619139D01*
X68505568Y-65432734D01*
X68601739Y-65226496D01*
X68660635Y-65006692D01*
X68680468Y-64780000D01*
X68660635Y-64553308D01*
X68601739Y-64333504D01*
X68505568Y-64127266D01*
X68375047Y-63940861D01*
X68375045Y-63940858D01*
X68214141Y-63779954D01*
X68027734Y-63649432D01*
X68027728Y-63649429D01*
X67969725Y-63622382D01*
X67917285Y-63576210D01*
X67898133Y-63509017D01*
X67918348Y-63442135D01*
X67969725Y-63397618D01*
X68027734Y-63370568D01*
X68214139Y-63240047D01*
X68375047Y-63079139D01*
X68505568Y-62892734D01*
X68601739Y-62686496D01*
X68660635Y-62466692D01*
X68680468Y-62240000D01*
X68679155Y-62224997D01*
X68660635Y-62013313D01*
X68660635Y-62013308D01*
X68601739Y-61793504D01*
X68505568Y-61587266D01*
X68387134Y-61418123D01*
X68375045Y-61400858D01*
X68214141Y-61239954D01*
X68027734Y-61109432D01*
X68027728Y-61109429D01*
X67969725Y-61082382D01*
X67917285Y-61036210D01*
X67898133Y-60969017D01*
X67918348Y-60902135D01*
X67969725Y-60857618D01*
X68027734Y-60830568D01*
X68214139Y-60700047D01*
X68375047Y-60539139D01*
X68505568Y-60352734D01*
X68601739Y-60146496D01*
X68660635Y-59926692D01*
X68680468Y-59700000D01*
X68660635Y-59473308D01*
X68601739Y-59253504D01*
X68505568Y-59047266D01*
X68375047Y-58860861D01*
X68375045Y-58860858D01*
X68214141Y-58699954D01*
X68027734Y-58569432D01*
X68027728Y-58569429D01*
X68000038Y-58556517D01*
X67969724Y-58542381D01*
X67917285Y-58496210D01*
X67898133Y-58429017D01*
X67918348Y-58362135D01*
X67969725Y-58317618D01*
X68027734Y-58290568D01*
X68214139Y-58160047D01*
X68375047Y-57999139D01*
X68505568Y-57812734D01*
X68601739Y-57606496D01*
X68660635Y-57386692D01*
X68680468Y-57160000D01*
X68660635Y-56933308D01*
X68601739Y-56713504D01*
X68505568Y-56507266D01*
X68375047Y-56320861D01*
X68375045Y-56320858D01*
X68214141Y-56159954D01*
X68027734Y-56029432D01*
X68027728Y-56029429D01*
X67969725Y-56002382D01*
X67917285Y-55956210D01*
X67898133Y-55889017D01*
X67918348Y-55822135D01*
X67969725Y-55777618D01*
X68027734Y-55750568D01*
X68214139Y-55620047D01*
X68375047Y-55459139D01*
X68505568Y-55272734D01*
X68601739Y-55066496D01*
X68660635Y-54846692D01*
X68680468Y-54620000D01*
X68660635Y-54393308D01*
X68601739Y-54173504D01*
X68505568Y-53967266D01*
X68375047Y-53780861D01*
X68375045Y-53780858D01*
X68214141Y-53619954D01*
X68027734Y-53489432D01*
X68027728Y-53489429D01*
X67969725Y-53462382D01*
X67917285Y-53416210D01*
X67898133Y-53349017D01*
X67918348Y-53282135D01*
X67969725Y-53237618D01*
X68027734Y-53210568D01*
X68214139Y-53080047D01*
X68375047Y-52919139D01*
X68505568Y-52732734D01*
X68601739Y-52526496D01*
X68660635Y-52306692D01*
X68680468Y-52080000D01*
X68660635Y-51853308D01*
X68601739Y-51633504D01*
X68505568Y-51427266D01*
X68375047Y-51240861D01*
X68375045Y-51240858D01*
X68214141Y-51079954D01*
X68027734Y-50949432D01*
X68027732Y-50949431D01*
X67821497Y-50853261D01*
X67821488Y-50853258D01*
X67601697Y-50794366D01*
X67601693Y-50794365D01*
X67601692Y-50794365D01*
X67601691Y-50794364D01*
X67601686Y-50794364D01*
X67375002Y-50774532D01*
X67374998Y-50774532D01*
X67148313Y-50794364D01*
X67148302Y-50794366D01*
X66928511Y-50853258D01*
X66928502Y-50853261D01*
X66722267Y-50949431D01*
X66722265Y-50949432D01*
X66535858Y-51079954D01*
X66374954Y-51240858D01*
X66244432Y-51427265D01*
X66244431Y-51427267D01*
X66148261Y-51633502D01*
X66148258Y-51633511D01*
X66089366Y-51853302D01*
X66089364Y-51853313D01*
X66069532Y-52079998D01*
X66069532Y-52080001D01*
X66089364Y-52306686D01*
X66089366Y-52306697D01*
X66148258Y-52526488D01*
X66148261Y-52526497D01*
X66244431Y-52732732D01*
X66244432Y-52732734D01*
X66374954Y-52919141D01*
X66535858Y-53080045D01*
X66535861Y-53080047D01*
X66722266Y-53210568D01*
X66780275Y-53237618D01*
X66832714Y-53283791D01*
X66851866Y-53350984D01*
X66831650Y-53417865D01*
X66780275Y-53462382D01*
X66722267Y-53489431D01*
X66722265Y-53489432D01*
X66535858Y-53619954D01*
X66374954Y-53780858D01*
X66244432Y-53967265D01*
X66244431Y-53967267D01*
X66148261Y-54173502D01*
X66148258Y-54173511D01*
X66089366Y-54393302D01*
X66089364Y-54393313D01*
X66069532Y-54619998D01*
X66069532Y-54620001D01*
X66089364Y-54846686D01*
X66089366Y-54846697D01*
X66148258Y-55066488D01*
X66148261Y-55066497D01*
X66244431Y-55272732D01*
X66244432Y-55272734D01*
X66374954Y-55459141D01*
X66535858Y-55620045D01*
X66535861Y-55620047D01*
X66722266Y-55750568D01*
X66780275Y-55777618D01*
X66832714Y-55823791D01*
X66851866Y-55890984D01*
X66831650Y-55957865D01*
X66780275Y-56002382D01*
X66722267Y-56029431D01*
X66722265Y-56029432D01*
X66535858Y-56159954D01*
X66374954Y-56320858D01*
X66244432Y-56507265D01*
X66244431Y-56507267D01*
X66148261Y-56713502D01*
X66148258Y-56713511D01*
X66089366Y-56933302D01*
X66089364Y-56933313D01*
X66069532Y-57159998D01*
X66069532Y-57160001D01*
X66089364Y-57386686D01*
X66089366Y-57386697D01*
X66148258Y-57606488D01*
X66148261Y-57606497D01*
X66244431Y-57812732D01*
X66244432Y-57812734D01*
X66374954Y-57999141D01*
X66535858Y-58160045D01*
X66535861Y-58160047D01*
X66722266Y-58290568D01*
X66780275Y-58317618D01*
X66832714Y-58363791D01*
X66851866Y-58430984D01*
X66831650Y-58497865D01*
X66780275Y-58542381D01*
X66763272Y-58550310D01*
X66722267Y-58569431D01*
X66722265Y-58569432D01*
X66535858Y-58699954D01*
X66374954Y-58860858D01*
X66244432Y-59047265D01*
X66244431Y-59047267D01*
X66148261Y-59253502D01*
X66148258Y-59253511D01*
X66089366Y-59473302D01*
X66089364Y-59473313D01*
X66069532Y-59699998D01*
X66069532Y-59700001D01*
X66089364Y-59926686D01*
X66089366Y-59926697D01*
X66148258Y-60146488D01*
X66148261Y-60146497D01*
X66244431Y-60352732D01*
X66244432Y-60352734D01*
X66374954Y-60539141D01*
X66535858Y-60700045D01*
X66535861Y-60700047D01*
X66722266Y-60830568D01*
X66780275Y-60857618D01*
X66832714Y-60903791D01*
X66851866Y-60970984D01*
X66831650Y-61037865D01*
X66780275Y-61082382D01*
X66722267Y-61109431D01*
X66722265Y-61109432D01*
X66535858Y-61239954D01*
X66374954Y-61400858D01*
X66244432Y-61587265D01*
X66244431Y-61587267D01*
X66148261Y-61793502D01*
X66148258Y-61793511D01*
X66089366Y-62013302D01*
X66089364Y-62013313D01*
X66069532Y-62239998D01*
X66069532Y-62240001D01*
X66089364Y-62466686D01*
X66089366Y-62466697D01*
X66148258Y-62686488D01*
X66148261Y-62686497D01*
X66244431Y-62892732D01*
X66244432Y-62892734D01*
X66374954Y-63079141D01*
X66535858Y-63240045D01*
X66535861Y-63240047D01*
X66722266Y-63370568D01*
X66780275Y-63397618D01*
X66832714Y-63443791D01*
X66851866Y-63510984D01*
X66831650Y-63577865D01*
X66780275Y-63622382D01*
X66722267Y-63649431D01*
X66722265Y-63649432D01*
X66535858Y-63779954D01*
X66374954Y-63940858D01*
X66244432Y-64127265D01*
X66244431Y-64127267D01*
X66148261Y-64333502D01*
X66148258Y-64333511D01*
X66089366Y-64553302D01*
X66089364Y-64553313D01*
X66069532Y-64779998D01*
X66069532Y-64780001D01*
X66089364Y-65006686D01*
X66089366Y-65006697D01*
X66148258Y-65226488D01*
X66148261Y-65226497D01*
X66244431Y-65432732D01*
X66244432Y-65432734D01*
X66374954Y-65619141D01*
X66535858Y-65780045D01*
X66535861Y-65780047D01*
X66722266Y-65910568D01*
X66780275Y-65937618D01*
X66832714Y-65983791D01*
X66851866Y-66050984D01*
X66831650Y-66117865D01*
X66780275Y-66162381D01*
X66778085Y-66163403D01*
X66722267Y-66189431D01*
X66722265Y-66189432D01*
X66535858Y-66319954D01*
X66374954Y-66480858D01*
X66244432Y-66667265D01*
X66244431Y-66667267D01*
X66148261Y-66873502D01*
X66148258Y-66873511D01*
X66089366Y-67093302D01*
X66089364Y-67093313D01*
X66069532Y-67319998D01*
X66069532Y-67320001D01*
X66089364Y-67546686D01*
X66089366Y-67546697D01*
X66148258Y-67766488D01*
X66148261Y-67766497D01*
X66244431Y-67972732D01*
X66244432Y-67972734D01*
X66374954Y-68159141D01*
X66535858Y-68320045D01*
X66535861Y-68320047D01*
X66722266Y-68450568D01*
X66780865Y-68477893D01*
X66833305Y-68524065D01*
X66852457Y-68591258D01*
X66832242Y-68658139D01*
X66780867Y-68702657D01*
X66722515Y-68729867D01*
X66536179Y-68860342D01*
X66375342Y-69021179D01*
X66244865Y-69207517D01*
X66148734Y-69413673D01*
X66148730Y-69413682D01*
X66096127Y-69609999D01*
X66096128Y-69610000D01*
X67059314Y-69610000D01*
X67054920Y-69614394D01*
X67002259Y-69705606D01*
X66975000Y-69807339D01*
X66975000Y-69912661D01*
X67002259Y-70014394D01*
X67054920Y-70105606D01*
X67059314Y-70110000D01*
X66096128Y-70110000D01*
X66148730Y-70306317D01*
X66148734Y-70306326D01*
X66244865Y-70512482D01*
X66375342Y-70698820D01*
X66536179Y-70859657D01*
X66722518Y-70990134D01*
X66722520Y-70990135D01*
X66780865Y-71017342D01*
X66833305Y-71063514D01*
X66852457Y-71130707D01*
X66832242Y-71197589D01*
X66780867Y-71242105D01*
X66722268Y-71269431D01*
X66722264Y-71269433D01*
X66535858Y-71399954D01*
X66374954Y-71560858D01*
X66244432Y-71747265D01*
X66244431Y-71747267D01*
X66148261Y-71953502D01*
X66148258Y-71953511D01*
X66089366Y-72173302D01*
X66089364Y-72173313D01*
X66069532Y-72399998D01*
X66069532Y-72400001D01*
X66089364Y-72626686D01*
X66089366Y-72626697D01*
X66148258Y-72846488D01*
X66148261Y-72846497D01*
X66244431Y-73052732D01*
X66244432Y-73052734D01*
X66374954Y-73239141D01*
X66535858Y-73400045D01*
X66550982Y-73410635D01*
X66722266Y-73530568D01*
X66780275Y-73557618D01*
X66832714Y-73603791D01*
X66851866Y-73670984D01*
X66831650Y-73737865D01*
X66780275Y-73782382D01*
X66722267Y-73809431D01*
X66722265Y-73809432D01*
X66535858Y-73939954D01*
X66374954Y-74100858D01*
X66244432Y-74287265D01*
X66244431Y-74287267D01*
X66148261Y-74493502D01*
X66148258Y-74493511D01*
X66089366Y-74713302D01*
X66089364Y-74713313D01*
X66069532Y-74939998D01*
X66069532Y-74940001D01*
X66089364Y-75166686D01*
X66089366Y-75166697D01*
X66148258Y-75386488D01*
X66148261Y-75386497D01*
X66244431Y-75592732D01*
X66244432Y-75592734D01*
X66374954Y-75779141D01*
X66535858Y-75940045D01*
X66535861Y-75940047D01*
X66722266Y-76070568D01*
X66780275Y-76097618D01*
X66832714Y-76143791D01*
X66851866Y-76210984D01*
X66831650Y-76277865D01*
X66780275Y-76322382D01*
X66722267Y-76349431D01*
X66722265Y-76349432D01*
X66535858Y-76479954D01*
X66374954Y-76640858D01*
X66244432Y-76827265D01*
X66244431Y-76827267D01*
X66148261Y-77033502D01*
X66148258Y-77033511D01*
X66089366Y-77253302D01*
X66089364Y-77253313D01*
X66069532Y-77479998D01*
X66069532Y-77480001D01*
X66089364Y-77706686D01*
X66089366Y-77706697D01*
X66148258Y-77926488D01*
X66148261Y-77926497D01*
X66244431Y-78132732D01*
X66244432Y-78132734D01*
X66374954Y-78319141D01*
X66535858Y-78480045D01*
X66535861Y-78480047D01*
X66722266Y-78610568D01*
X66780275Y-78637618D01*
X66832714Y-78683791D01*
X66851866Y-78750984D01*
X66831650Y-78817865D01*
X66780275Y-78862382D01*
X66722267Y-78889431D01*
X66722265Y-78889432D01*
X66535858Y-79019954D01*
X66374954Y-79180858D01*
X66244432Y-79367265D01*
X66244431Y-79367267D01*
X66148261Y-79573502D01*
X66148258Y-79573511D01*
X66089366Y-79793302D01*
X66089364Y-79793313D01*
X66069532Y-80019998D01*
X66069532Y-80020001D01*
X66089364Y-80246686D01*
X66089366Y-80246697D01*
X66148258Y-80466488D01*
X66148261Y-80466497D01*
X66244431Y-80672732D01*
X66244432Y-80672734D01*
X66374954Y-80859141D01*
X66535858Y-81020045D01*
X66535861Y-81020047D01*
X66722266Y-81150568D01*
X66780275Y-81177618D01*
X66832714Y-81223791D01*
X66851866Y-81290984D01*
X66831650Y-81357865D01*
X66780275Y-81402382D01*
X66722267Y-81429431D01*
X66722265Y-81429432D01*
X66535858Y-81559954D01*
X66374954Y-81720858D01*
X66244432Y-81907265D01*
X66244431Y-81907267D01*
X66148261Y-82113502D01*
X66148258Y-82113511D01*
X66089366Y-82333302D01*
X66089364Y-82333313D01*
X66069532Y-82559998D01*
X66069532Y-82560001D01*
X66089364Y-82786686D01*
X66089366Y-82786697D01*
X66148258Y-83006488D01*
X66148261Y-83006497D01*
X66244431Y-83212732D01*
X66244432Y-83212734D01*
X66374954Y-83399141D01*
X66535858Y-83560045D01*
X66575914Y-83588092D01*
X66722266Y-83690568D01*
X66745384Y-83701348D01*
X66780275Y-83717618D01*
X66832714Y-83763791D01*
X66851866Y-83830984D01*
X66831650Y-83897865D01*
X66780275Y-83942381D01*
X66780118Y-83942455D01*
X66722267Y-83969431D01*
X66722265Y-83969432D01*
X66535858Y-84099954D01*
X66374954Y-84260858D01*
X66244432Y-84447265D01*
X66244431Y-84447267D01*
X66148261Y-84653502D01*
X66148258Y-84653511D01*
X66089366Y-84873302D01*
X66089364Y-84873313D01*
X66069532Y-85099998D01*
X66069532Y-85100001D01*
X66089364Y-85326686D01*
X66089366Y-85326697D01*
X66148258Y-85546488D01*
X66148261Y-85546497D01*
X66244431Y-85752732D01*
X66244432Y-85752734D01*
X66374954Y-85939141D01*
X66535858Y-86100045D01*
X66535861Y-86100047D01*
X66722266Y-86230568D01*
X66928504Y-86326739D01*
X67148308Y-86385635D01*
X67288960Y-86397940D01*
X67338765Y-86402298D01*
X67403834Y-86427750D01*
X67444813Y-86484341D01*
X67449575Y-86550017D01*
X67424500Y-86676077D01*
X67424500Y-86823917D01*
X67427117Y-86837073D01*
X67429500Y-86861267D01*
X67429500Y-98232298D01*
X67409815Y-98299337D01*
X67376625Y-98333872D01*
X67308595Y-98381507D01*
X67141505Y-98548597D01*
X67011575Y-98734158D01*
X66956998Y-98777783D01*
X66887500Y-98784977D01*
X66825145Y-98753454D01*
X66808425Y-98734158D01*
X66678494Y-98548597D01*
X66511402Y-98381506D01*
X66511395Y-98381501D01*
X66317834Y-98245967D01*
X66317830Y-98245965D01*
X66181092Y-98182203D01*
X66103663Y-98146097D01*
X66103659Y-98146096D01*
X66103655Y-98146094D01*
X65875413Y-98084938D01*
X65875403Y-98084936D01*
X65640001Y-98064341D01*
X65639999Y-98064341D01*
X65404596Y-98084936D01*
X65404586Y-98084938D01*
X65176344Y-98146094D01*
X65176335Y-98146098D01*
X64962171Y-98245964D01*
X64962169Y-98245965D01*
X64768597Y-98381505D01*
X64601505Y-98548597D01*
X64465965Y-98742169D01*
X64465964Y-98742171D01*
X64366098Y-98956335D01*
X64366094Y-98956344D01*
X64304938Y-99184586D01*
X64304936Y-99184596D01*
X64284341Y-99419999D01*
X45500500Y-99419999D01*
X45500500Y-95339773D01*
X52050000Y-95339773D01*
X52050000Y-96135000D01*
X53381116Y-96135000D01*
X53350000Y-96291433D01*
X53350000Y-96478567D01*
X53381116Y-96635000D01*
X52050001Y-96635000D01*
X52050001Y-97430227D01*
X52060566Y-97564474D01*
X52116423Y-97786152D01*
X52210962Y-97994287D01*
X52210967Y-97994296D01*
X52341151Y-98182203D01*
X52502796Y-98343848D01*
X52690703Y-98474032D01*
X52690712Y-98474037D01*
X52898847Y-98568576D01*
X53120525Y-98624433D01*
X53254780Y-98634999D01*
X54049999Y-98634999D01*
X54050000Y-98634998D01*
X54050000Y-97303883D01*
X54206433Y-97335000D01*
X54393567Y-97335000D01*
X54550000Y-97303883D01*
X54550000Y-98634999D01*
X55345212Y-98634999D01*
X55345227Y-98634998D01*
X55479474Y-98624433D01*
X55701152Y-98568576D01*
X55909287Y-98474037D01*
X55909296Y-98474032D01*
X56097203Y-98343848D01*
X56258848Y-98182203D01*
X56389032Y-97994296D01*
X56389037Y-97994287D01*
X56483576Y-97786152D01*
X56539433Y-97564474D01*
X56549999Y-97430226D01*
X56550000Y-97430213D01*
X56550000Y-96635000D01*
X55218884Y-96635000D01*
X55250000Y-96478567D01*
X55250000Y-96291433D01*
X55218884Y-96135000D01*
X56549999Y-96135000D01*
X56549999Y-95339787D01*
X56549998Y-95339772D01*
X56539433Y-95205525D01*
X56483576Y-94983847D01*
X56389037Y-94775712D01*
X56389032Y-94775703D01*
X56258848Y-94587796D01*
X56097203Y-94426151D01*
X55909296Y-94295967D01*
X55909287Y-94295962D01*
X55701152Y-94201423D01*
X55479474Y-94145566D01*
X55345226Y-94135000D01*
X54550000Y-94135000D01*
X54550000Y-95466116D01*
X54393567Y-95435000D01*
X54206433Y-95435000D01*
X54050000Y-95466116D01*
X54050000Y-94135000D01*
X53254787Y-94135000D01*
X53254772Y-94135001D01*
X53120525Y-94145566D01*
X52898847Y-94201423D01*
X52690712Y-94295962D01*
X52690703Y-94295967D01*
X52502796Y-94426151D01*
X52341151Y-94587796D01*
X52210967Y-94775703D01*
X52210962Y-94775712D01*
X52116423Y-94983847D01*
X52060566Y-95205525D01*
X52050000Y-95339773D01*
X45500500Y-95339773D01*
X45500500Y-92799997D01*
X56235034Y-92799997D01*
X56235034Y-92800002D01*
X56254858Y-93026599D01*
X56254860Y-93026610D01*
X56313730Y-93246317D01*
X56313735Y-93246331D01*
X56409863Y-93452478D01*
X56460974Y-93525472D01*
X57140000Y-92846446D01*
X57140000Y-92852661D01*
X57167259Y-92954394D01*
X57219920Y-93045606D01*
X57294394Y-93120080D01*
X57385606Y-93172741D01*
X57487339Y-93200000D01*
X57493553Y-93200000D01*
X56814526Y-93879025D01*
X56887513Y-93930132D01*
X56887521Y-93930136D01*
X57093668Y-94026264D01*
X57093682Y-94026269D01*
X57313389Y-94085139D01*
X57313400Y-94085141D01*
X57539998Y-94104966D01*
X57540002Y-94104966D01*
X57766599Y-94085141D01*
X57766610Y-94085139D01*
X57986317Y-94026269D01*
X57986331Y-94026264D01*
X58192478Y-93930136D01*
X58265471Y-93879024D01*
X57586447Y-93200000D01*
X57592661Y-93200000D01*
X57694394Y-93172741D01*
X57785606Y-93120080D01*
X57860080Y-93045606D01*
X57912741Y-92954394D01*
X57940000Y-92852661D01*
X57940000Y-92846447D01*
X58619024Y-93525471D01*
X58670134Y-93452481D01*
X58677340Y-93437028D01*
X58723511Y-93384587D01*
X58790704Y-93365433D01*
X58857585Y-93385646D01*
X58902105Y-93437022D01*
X58909430Y-93452730D01*
X58909432Y-93452734D01*
X59039954Y-93639141D01*
X59200858Y-93800045D01*
X59350966Y-93905151D01*
X59394591Y-93959728D01*
X59401785Y-94029226D01*
X59370262Y-94091581D01*
X59310033Y-94126995D01*
X59287953Y-94130460D01*
X59005636Y-94148964D01*
X59005624Y-94148965D01*
X59005620Y-94148966D01*
X59005612Y-94148967D01*
X59005609Y-94148968D01*
X58716283Y-94206518D01*
X58716269Y-94206521D01*
X58436919Y-94301349D01*
X58172334Y-94431828D01*
X57927041Y-94595728D01*
X57705241Y-94790241D01*
X57510728Y-95012041D01*
X57346828Y-95257334D01*
X57216349Y-95521919D01*
X57121521Y-95801269D01*
X57121518Y-95801283D01*
X57063968Y-96090609D01*
X57063964Y-96090636D01*
X57044671Y-96384992D01*
X57044671Y-96385007D01*
X57063964Y-96679363D01*
X57063965Y-96679373D01*
X57063966Y-96679380D01*
X57112125Y-96921497D01*
X57121518Y-96968716D01*
X57121521Y-96968730D01*
X57216349Y-97248080D01*
X57346825Y-97512660D01*
X57346829Y-97512667D01*
X57510725Y-97757955D01*
X57705241Y-97979758D01*
X57927044Y-98174274D01*
X58084218Y-98279294D01*
X58172335Y-98338172D01*
X58436923Y-98468652D01*
X58716278Y-98563481D01*
X59005620Y-98621034D01*
X59033888Y-98622886D01*
X59299993Y-98640329D01*
X59300000Y-98640329D01*
X59300007Y-98640329D01*
X59542522Y-98624433D01*
X59594380Y-98621034D01*
X59883722Y-98563481D01*
X60163077Y-98468652D01*
X60427665Y-98338172D01*
X60672957Y-98174273D01*
X60894758Y-97979758D01*
X61089273Y-97757957D01*
X61253172Y-97512665D01*
X61383652Y-97248077D01*
X61478481Y-96968722D01*
X61536034Y-96679380D01*
X61555329Y-96385000D01*
X61555329Y-96384992D01*
X61536035Y-96090636D01*
X61536034Y-96090620D01*
X61478481Y-95801278D01*
X61383652Y-95521923D01*
X61253172Y-95257336D01*
X61247108Y-95248261D01*
X61198042Y-95174829D01*
X61089273Y-95012043D01*
X61046655Y-94963447D01*
X60894758Y-94790241D01*
X60672955Y-94595725D01*
X60427667Y-94431829D01*
X60427660Y-94431825D01*
X60204824Y-94321934D01*
X60153404Y-94274629D01*
X60135723Y-94207033D01*
X60157393Y-94140609D01*
X60211535Y-94096445D01*
X60248856Y-94087195D01*
X60266692Y-94085635D01*
X60486496Y-94026739D01*
X60597454Y-93974998D01*
X64294532Y-93974998D01*
X64294532Y-93975001D01*
X64314364Y-94201686D01*
X64314366Y-94201697D01*
X64373258Y-94421488D01*
X64373261Y-94421497D01*
X64469431Y-94627732D01*
X64469432Y-94627734D01*
X64599954Y-94814141D01*
X64760858Y-94975045D01*
X64760861Y-94975047D01*
X64947266Y-95105568D01*
X64962387Y-95112619D01*
X65014825Y-95158791D01*
X65033976Y-95225985D01*
X65013760Y-95292866D01*
X64962387Y-95337380D01*
X64947266Y-95344432D01*
X64947264Y-95344433D01*
X64760858Y-95474954D01*
X64599954Y-95635858D01*
X64469432Y-95822265D01*
X64469431Y-95822267D01*
X64373261Y-96028502D01*
X64373258Y-96028511D01*
X64314366Y-96248302D01*
X64314364Y-96248313D01*
X64294532Y-96474998D01*
X64294532Y-96475001D01*
X64314364Y-96701686D01*
X64314366Y-96701697D01*
X64373258Y-96921488D01*
X64373261Y-96921497D01*
X64469431Y-97127732D01*
X64469432Y-97127734D01*
X64599954Y-97314141D01*
X64760858Y-97475045D01*
X64760861Y-97475047D01*
X64947266Y-97605568D01*
X65153504Y-97701739D01*
X65373308Y-97760635D01*
X65535230Y-97774801D01*
X65599998Y-97780468D01*
X65600000Y-97780468D01*
X65600002Y-97780468D01*
X65656673Y-97775509D01*
X65826692Y-97760635D01*
X66046496Y-97701739D01*
X66252734Y-97605568D01*
X66439139Y-97475047D01*
X66600047Y-97314139D01*
X66730568Y-97127734D01*
X66826739Y-96921496D01*
X66885635Y-96701692D01*
X66905468Y-96475000D01*
X66885635Y-96248308D01*
X66826739Y-96028504D01*
X66730568Y-95822266D01*
X66632839Y-95682693D01*
X66600045Y-95635858D01*
X66439141Y-95474954D01*
X66252734Y-95344432D01*
X66237614Y-95337381D01*
X66185176Y-95291211D01*
X66166023Y-95224018D01*
X66186238Y-95157136D01*
X66237614Y-95112618D01*
X66252734Y-95105568D01*
X66439139Y-94975047D01*
X66600047Y-94814139D01*
X66730568Y-94627734D01*
X66826739Y-94421496D01*
X66885635Y-94201692D01*
X66905468Y-93975000D01*
X66885635Y-93748308D01*
X66826739Y-93528504D01*
X66730568Y-93322266D01*
X66600047Y-93135861D01*
X66600045Y-93135858D01*
X66439141Y-92974954D01*
X66252734Y-92844432D01*
X66252732Y-92844431D01*
X66046497Y-92748261D01*
X66046488Y-92748258D01*
X65826697Y-92689366D01*
X65826693Y-92689365D01*
X65826692Y-92689365D01*
X65826691Y-92689364D01*
X65826686Y-92689364D01*
X65600002Y-92669532D01*
X65599998Y-92669532D01*
X65373313Y-92689364D01*
X65373302Y-92689366D01*
X65153511Y-92748258D01*
X65153502Y-92748261D01*
X64947267Y-92844431D01*
X64947265Y-92844432D01*
X64760858Y-92974954D01*
X64599954Y-93135858D01*
X64469432Y-93322265D01*
X64469431Y-93322267D01*
X64373261Y-93528502D01*
X64373258Y-93528511D01*
X64314366Y-93748302D01*
X64314364Y-93748313D01*
X64294532Y-93974998D01*
X60597454Y-93974998D01*
X60692734Y-93930568D01*
X60879139Y-93800047D01*
X61040047Y-93639139D01*
X61170568Y-93452734D01*
X61266739Y-93246496D01*
X61325635Y-93026692D01*
X61345468Y-92800000D01*
X61325635Y-92573308D01*
X61266739Y-92353504D01*
X61170568Y-92147266D01*
X61040047Y-91960861D01*
X61040045Y-91960858D01*
X60879141Y-91799954D01*
X60692734Y-91669432D01*
X60692732Y-91669431D01*
X60486497Y-91573261D01*
X60486488Y-91573258D01*
X60266697Y-91514366D01*
X60266693Y-91514365D01*
X60266692Y-91514365D01*
X60266691Y-91514364D01*
X60266686Y-91514364D01*
X60040002Y-91494532D01*
X60039998Y-91494532D01*
X59813313Y-91514364D01*
X59813302Y-91514366D01*
X59593511Y-91573258D01*
X59593502Y-91573261D01*
X59387267Y-91669431D01*
X59387265Y-91669432D01*
X59200858Y-91799954D01*
X59039954Y-91960858D01*
X58909432Y-92147265D01*
X58909429Y-92147270D01*
X58902104Y-92162979D01*
X58855929Y-92215417D01*
X58788735Y-92234566D01*
X58721855Y-92214347D01*
X58677341Y-92162973D01*
X58670133Y-92147515D01*
X58670132Y-92147513D01*
X58619025Y-92074526D01*
X57940000Y-92753551D01*
X57940000Y-92747339D01*
X57912741Y-92645606D01*
X57860080Y-92554394D01*
X57785606Y-92479920D01*
X57694394Y-92427259D01*
X57592661Y-92400000D01*
X57586445Y-92400000D01*
X58265472Y-91720974D01*
X58192478Y-91669863D01*
X57986331Y-91573735D01*
X57986317Y-91573730D01*
X57766610Y-91514860D01*
X57766599Y-91514858D01*
X57540002Y-91495034D01*
X57539998Y-91495034D01*
X57313400Y-91514858D01*
X57313389Y-91514860D01*
X57093682Y-91573730D01*
X57093673Y-91573734D01*
X56887516Y-91669866D01*
X56887512Y-91669868D01*
X56814526Y-91720973D01*
X56814526Y-91720974D01*
X57493553Y-92400000D01*
X57487339Y-92400000D01*
X57385606Y-92427259D01*
X57294394Y-92479920D01*
X57219920Y-92554394D01*
X57167259Y-92645606D01*
X57140000Y-92747339D01*
X57140000Y-92753552D01*
X56460974Y-92074526D01*
X56460973Y-92074526D01*
X56409868Y-92147512D01*
X56409866Y-92147516D01*
X56313734Y-92353673D01*
X56313730Y-92353682D01*
X56254860Y-92573389D01*
X56254858Y-92573400D01*
X56235034Y-92799997D01*
X45500500Y-92799997D01*
X45500500Y-91114999D01*
X62744341Y-91114999D01*
X62744341Y-91115000D01*
X62764936Y-91350403D01*
X62764938Y-91350413D01*
X62826094Y-91578655D01*
X62826096Y-91578659D01*
X62826097Y-91578663D01*
X62892458Y-91720974D01*
X62925965Y-91792830D01*
X62925967Y-91792834D01*
X62930953Y-91799954D01*
X63061505Y-91986401D01*
X63228599Y-92153495D01*
X63242144Y-92162979D01*
X63422165Y-92289032D01*
X63422167Y-92289033D01*
X63422170Y-92289035D01*
X63636337Y-92388903D01*
X63864592Y-92450063D01*
X64052918Y-92466539D01*
X64099999Y-92470659D01*
X64100000Y-92470659D01*
X64100001Y-92470659D01*
X64139234Y-92467226D01*
X64335408Y-92450063D01*
X64563663Y-92388903D01*
X64777830Y-92289035D01*
X64971401Y-92153495D01*
X65138495Y-91986401D01*
X65274035Y-91792830D01*
X65373903Y-91578663D01*
X65435063Y-91350408D01*
X65455659Y-91115000D01*
X65435063Y-90879592D01*
X65373903Y-90651337D01*
X65274035Y-90437171D01*
X65267427Y-90427734D01*
X65138496Y-90243600D01*
X65116384Y-90221488D01*
X65016567Y-90121671D01*
X64983084Y-90060351D01*
X64988068Y-89990659D01*
X65029939Y-89934725D01*
X65060915Y-89917810D01*
X65192331Y-89868796D01*
X65307546Y-89782546D01*
X65393796Y-89667331D01*
X65444091Y-89532483D01*
X65450500Y-89472873D01*
X65450499Y-87677128D01*
X65444091Y-87617517D01*
X65421177Y-87556082D01*
X65393797Y-87482671D01*
X65393793Y-87482664D01*
X65307547Y-87367455D01*
X65307544Y-87367452D01*
X65192335Y-87281206D01*
X65192328Y-87281202D01*
X65057482Y-87230908D01*
X65057483Y-87230908D01*
X64997883Y-87224501D01*
X64997881Y-87224500D01*
X64997873Y-87224500D01*
X64997864Y-87224500D01*
X63202129Y-87224500D01*
X63202123Y-87224501D01*
X63142516Y-87230908D01*
X63007671Y-87281202D01*
X63007664Y-87281206D01*
X62892455Y-87367452D01*
X62892452Y-87367455D01*
X62806206Y-87482664D01*
X62806202Y-87482671D01*
X62755908Y-87617517D01*
X62749501Y-87677116D01*
X62749501Y-87677123D01*
X62749500Y-87677135D01*
X62749500Y-89472870D01*
X62749501Y-89472876D01*
X62755908Y-89532483D01*
X62806202Y-89667328D01*
X62806206Y-89667335D01*
X62892452Y-89782544D01*
X62892455Y-89782547D01*
X63007664Y-89868793D01*
X63007671Y-89868797D01*
X63139081Y-89917810D01*
X63195015Y-89959681D01*
X63219432Y-90025145D01*
X63204580Y-90093418D01*
X63183430Y-90121673D01*
X63061503Y-90243600D01*
X62925965Y-90437169D01*
X62925964Y-90437171D01*
X62826098Y-90651335D01*
X62826094Y-90651344D01*
X62764938Y-90879586D01*
X62764936Y-90879596D01*
X62744341Y-91114999D01*
X45500500Y-91114999D01*
X45500500Y-83199997D01*
X56235034Y-83199997D01*
X56235034Y-83200002D01*
X56254858Y-83426599D01*
X56254860Y-83426610D01*
X56313730Y-83646317D01*
X56313735Y-83646331D01*
X56409863Y-83852478D01*
X56460974Y-83925472D01*
X57140000Y-83246446D01*
X57140000Y-83252661D01*
X57167259Y-83354394D01*
X57219920Y-83445606D01*
X57294394Y-83520080D01*
X57385606Y-83572741D01*
X57487339Y-83600000D01*
X57493553Y-83600000D01*
X56814526Y-84279025D01*
X56887513Y-84330132D01*
X56887521Y-84330136D01*
X57093668Y-84426264D01*
X57093682Y-84426269D01*
X57313389Y-84485139D01*
X57313400Y-84485141D01*
X57539998Y-84504966D01*
X57540002Y-84504966D01*
X57766599Y-84485141D01*
X57766610Y-84485139D01*
X57986317Y-84426269D01*
X57986331Y-84426264D01*
X58192478Y-84330136D01*
X58265471Y-84279024D01*
X57586447Y-83600000D01*
X57592661Y-83600000D01*
X57694394Y-83572741D01*
X57785606Y-83520080D01*
X57860080Y-83445606D01*
X57912741Y-83354394D01*
X57940000Y-83252661D01*
X57940000Y-83246447D01*
X58619024Y-83925471D01*
X58670134Y-83852481D01*
X58677340Y-83837028D01*
X58723511Y-83784587D01*
X58790704Y-83765433D01*
X58857585Y-83785646D01*
X58902105Y-83837022D01*
X58909430Y-83852730D01*
X58909432Y-83852734D01*
X59039954Y-84039141D01*
X59200858Y-84200045D01*
X59200861Y-84200047D01*
X59387266Y-84330568D01*
X59593504Y-84426739D01*
X59813308Y-84485635D01*
X59975230Y-84499801D01*
X60039998Y-84505468D01*
X60040000Y-84505468D01*
X60040002Y-84505468D01*
X60096673Y-84500509D01*
X60266692Y-84485635D01*
X60486496Y-84426739D01*
X60692734Y-84330568D01*
X60879139Y-84200047D01*
X61040047Y-84039139D01*
X61170568Y-83852734D01*
X61266739Y-83646496D01*
X61325635Y-83426692D01*
X61345468Y-83200000D01*
X61325635Y-82973308D01*
X61266739Y-82753504D01*
X61170568Y-82547266D01*
X61040047Y-82360861D01*
X61040045Y-82360858D01*
X60879141Y-82199954D01*
X60692734Y-82069432D01*
X60692732Y-82069431D01*
X60486497Y-81973261D01*
X60486488Y-81973258D01*
X60266697Y-81914366D01*
X60266693Y-81914365D01*
X60266692Y-81914365D01*
X60266691Y-81914364D01*
X60266686Y-81914364D01*
X60040002Y-81894532D01*
X60039998Y-81894532D01*
X59813313Y-81914364D01*
X59813302Y-81914366D01*
X59593511Y-81973258D01*
X59593502Y-81973261D01*
X59387267Y-82069431D01*
X59387265Y-82069432D01*
X59200858Y-82199954D01*
X59039954Y-82360858D01*
X58909432Y-82547265D01*
X58909429Y-82547270D01*
X58902104Y-82562979D01*
X58855929Y-82615417D01*
X58788735Y-82634566D01*
X58721855Y-82614347D01*
X58677341Y-82562973D01*
X58670133Y-82547515D01*
X58670132Y-82547513D01*
X58619025Y-82474526D01*
X57940000Y-83153551D01*
X57940000Y-83147339D01*
X57912741Y-83045606D01*
X57860080Y-82954394D01*
X57785606Y-82879920D01*
X57694394Y-82827259D01*
X57592661Y-82800000D01*
X57586445Y-82800000D01*
X58265472Y-82120974D01*
X58192478Y-82069863D01*
X57986331Y-81973735D01*
X57986317Y-81973730D01*
X57766610Y-81914860D01*
X57766599Y-81914858D01*
X57540002Y-81895034D01*
X57539998Y-81895034D01*
X57313400Y-81914858D01*
X57313389Y-81914860D01*
X57093682Y-81973730D01*
X57093673Y-81973734D01*
X56887516Y-82069866D01*
X56887512Y-82069868D01*
X56814526Y-82120973D01*
X56814526Y-82120974D01*
X57493553Y-82800000D01*
X57487339Y-82800000D01*
X57385606Y-82827259D01*
X57294394Y-82879920D01*
X57219920Y-82954394D01*
X57167259Y-83045606D01*
X57140000Y-83147339D01*
X57140000Y-83153552D01*
X56460974Y-82474526D01*
X56460973Y-82474526D01*
X56409868Y-82547512D01*
X56409866Y-82547516D01*
X56313734Y-82753673D01*
X56313730Y-82753682D01*
X56254860Y-82973389D01*
X56254858Y-82973400D01*
X56235034Y-83199997D01*
X45500500Y-83199997D01*
X45500500Y-77599997D01*
X55245034Y-77599997D01*
X55245034Y-77600002D01*
X55264858Y-77826599D01*
X55264860Y-77826610D01*
X55323730Y-78046317D01*
X55323735Y-78046331D01*
X55419863Y-78252478D01*
X55470974Y-78325472D01*
X56150000Y-77646446D01*
X56150000Y-77652661D01*
X56177259Y-77754394D01*
X56229920Y-77845606D01*
X56304394Y-77920080D01*
X56395606Y-77972741D01*
X56497339Y-78000000D01*
X56503553Y-78000000D01*
X55824526Y-78679025D01*
X55897513Y-78730132D01*
X55897521Y-78730136D01*
X56103668Y-78826264D01*
X56103682Y-78826269D01*
X56323389Y-78885139D01*
X56323400Y-78885141D01*
X56549998Y-78904966D01*
X56550002Y-78904966D01*
X56776599Y-78885141D01*
X56776610Y-78885139D01*
X56996317Y-78826269D01*
X56996331Y-78826264D01*
X57202478Y-78730136D01*
X57275471Y-78679024D01*
X56596447Y-78000000D01*
X56602661Y-78000000D01*
X56704394Y-77972741D01*
X56795606Y-77920080D01*
X56870080Y-77845606D01*
X56922741Y-77754394D01*
X56950000Y-77652661D01*
X56950000Y-77646447D01*
X57629024Y-78325471D01*
X57680136Y-78252478D01*
X57776264Y-78046331D01*
X57776269Y-78046317D01*
X57835139Y-77826610D01*
X57835141Y-77826599D01*
X57854966Y-77600002D01*
X57854966Y-77599998D01*
X58744532Y-77599998D01*
X58744532Y-77600001D01*
X58764364Y-77826686D01*
X58764366Y-77826697D01*
X58823258Y-78046488D01*
X58823261Y-78046497D01*
X58919431Y-78252732D01*
X58919432Y-78252734D01*
X59049954Y-78439141D01*
X59210858Y-78600045D01*
X59257693Y-78632839D01*
X59397266Y-78730568D01*
X59603504Y-78826739D01*
X59823308Y-78885635D01*
X59985230Y-78899801D01*
X60049998Y-78905468D01*
X60050000Y-78905468D01*
X60050002Y-78905468D01*
X60106673Y-78900509D01*
X60276692Y-78885635D01*
X60496496Y-78826739D01*
X60702734Y-78730568D01*
X60889139Y-78600047D01*
X61050047Y-78439139D01*
X61180568Y-78252734D01*
X61276739Y-78046496D01*
X61335635Y-77826692D01*
X61355468Y-77600000D01*
X61335635Y-77373308D01*
X61276739Y-77153504D01*
X61180568Y-76947266D01*
X61050047Y-76760861D01*
X61050045Y-76760858D01*
X60889141Y-76599954D01*
X60702734Y-76469432D01*
X60702732Y-76469431D01*
X60496497Y-76373261D01*
X60496488Y-76373258D01*
X60276697Y-76314366D01*
X60276693Y-76314365D01*
X60276692Y-76314365D01*
X60276691Y-76314364D01*
X60276686Y-76314364D01*
X60050002Y-76294532D01*
X60049998Y-76294532D01*
X59823313Y-76314364D01*
X59823302Y-76314366D01*
X59603511Y-76373258D01*
X59603502Y-76373261D01*
X59397267Y-76469431D01*
X59397265Y-76469432D01*
X59210858Y-76599954D01*
X59049954Y-76760858D01*
X58919432Y-76947265D01*
X58919431Y-76947267D01*
X58823261Y-77153502D01*
X58823258Y-77153511D01*
X58764366Y-77373302D01*
X58764364Y-77373313D01*
X58744532Y-77599998D01*
X57854966Y-77599998D01*
X57854966Y-77599997D01*
X57835141Y-77373400D01*
X57835139Y-77373389D01*
X57776269Y-77153682D01*
X57776264Y-77153668D01*
X57680136Y-76947521D01*
X57680132Y-76947513D01*
X57629025Y-76874526D01*
X56950000Y-77553551D01*
X56950000Y-77547339D01*
X56922741Y-77445606D01*
X56870080Y-77354394D01*
X56795606Y-77279920D01*
X56704394Y-77227259D01*
X56602661Y-77200000D01*
X56596445Y-77200000D01*
X57275472Y-76520974D01*
X57202478Y-76469863D01*
X56996331Y-76373735D01*
X56996317Y-76373730D01*
X56776610Y-76314860D01*
X56776599Y-76314858D01*
X56550002Y-76295034D01*
X56549998Y-76295034D01*
X56323400Y-76314858D01*
X56323389Y-76314860D01*
X56103682Y-76373730D01*
X56103673Y-76373734D01*
X55897516Y-76469866D01*
X55897512Y-76469868D01*
X55824526Y-76520973D01*
X55824526Y-76520974D01*
X56503553Y-77200000D01*
X56497339Y-77200000D01*
X56395606Y-77227259D01*
X56304394Y-77279920D01*
X56229920Y-77354394D01*
X56177259Y-77445606D01*
X56150000Y-77547339D01*
X56150000Y-77553552D01*
X55470974Y-76874526D01*
X55470973Y-76874526D01*
X55419868Y-76947512D01*
X55419866Y-76947516D01*
X55323734Y-77153673D01*
X55323730Y-77153682D01*
X55264860Y-77373389D01*
X55264858Y-77373400D01*
X55245034Y-77599997D01*
X45500500Y-77599997D01*
X45500500Y-71499993D01*
X50644700Y-71499993D01*
X50644700Y-71500006D01*
X50663864Y-71731297D01*
X50663866Y-71731308D01*
X50720842Y-71956300D01*
X50814075Y-72168848D01*
X50941018Y-72363150D01*
X51036167Y-72466510D01*
X51067089Y-72529164D01*
X51059228Y-72598590D01*
X51015081Y-72652746D01*
X50988271Y-72666674D01*
X50907911Y-72696646D01*
X50907906Y-72696649D01*
X50792812Y-72782809D01*
X50792809Y-72782812D01*
X50706649Y-72897906D01*
X50706645Y-72897913D01*
X50656403Y-73032620D01*
X50656401Y-73032627D01*
X50650000Y-73092155D01*
X50650000Y-73790000D01*
X51674722Y-73790000D01*
X51630667Y-73866306D01*
X51600000Y-73980756D01*
X51600000Y-74099244D01*
X51630667Y-74213694D01*
X51674722Y-74290000D01*
X50650000Y-74290000D01*
X50650000Y-74987844D01*
X50656401Y-75047372D01*
X50656403Y-75047379D01*
X50706645Y-75182086D01*
X50706649Y-75182093D01*
X50792809Y-75297187D01*
X50792812Y-75297190D01*
X50907906Y-75383350D01*
X50907913Y-75383354D01*
X51042620Y-75433596D01*
X51042627Y-75433598D01*
X51102155Y-75439999D01*
X51102172Y-75440000D01*
X51800000Y-75440000D01*
X51800000Y-74415277D01*
X51876306Y-74459333D01*
X51990756Y-74490000D01*
X52109244Y-74490000D01*
X52223694Y-74459333D01*
X52300000Y-74415277D01*
X52300000Y-75440000D01*
X52997828Y-75440000D01*
X52997844Y-75439999D01*
X53057372Y-75433598D01*
X53057379Y-75433596D01*
X53192086Y-75383354D01*
X53192093Y-75383350D01*
X53307187Y-75297190D01*
X53307190Y-75297187D01*
X53393350Y-75182093D01*
X53393354Y-75182086D01*
X53443596Y-75047379D01*
X53443598Y-75047372D01*
X53449999Y-74987844D01*
X53450000Y-74987827D01*
X53450000Y-74290000D01*
X52425278Y-74290000D01*
X52469333Y-74213694D01*
X52500000Y-74099244D01*
X52500000Y-73980756D01*
X52469333Y-73866306D01*
X52425278Y-73790000D01*
X53450000Y-73790000D01*
X53450000Y-73092172D01*
X53449999Y-73092155D01*
X53443598Y-73032627D01*
X53443596Y-73032620D01*
X53393354Y-72897913D01*
X53393350Y-72897906D01*
X53307190Y-72782812D01*
X53307187Y-72782809D01*
X53192093Y-72696649D01*
X53192086Y-72696645D01*
X53111729Y-72666674D01*
X53055795Y-72624803D01*
X53031378Y-72559338D01*
X53046230Y-72491065D01*
X53063826Y-72466516D01*
X53158979Y-72363153D01*
X53285924Y-72168849D01*
X53379157Y-71956300D01*
X53436134Y-71731305D01*
X53436135Y-71731297D01*
X53455300Y-71500006D01*
X53455300Y-71499993D01*
X53436135Y-71268702D01*
X53436133Y-71268691D01*
X53379157Y-71043699D01*
X53285924Y-70831151D01*
X53158983Y-70636852D01*
X53158980Y-70636849D01*
X53158979Y-70636847D01*
X53001784Y-70466087D01*
X53001779Y-70466083D01*
X53001777Y-70466081D01*
X52818634Y-70323535D01*
X52818628Y-70323531D01*
X52738066Y-70279933D01*
X52688476Y-70230713D01*
X52673368Y-70162496D01*
X52697539Y-70096941D01*
X52725955Y-70069308D01*
X52889139Y-69955047D01*
X53050047Y-69794139D01*
X53180568Y-69607734D01*
X53276739Y-69401496D01*
X53335635Y-69181692D01*
X53355468Y-68955000D01*
X53335635Y-68728308D01*
X53314652Y-68649997D01*
X55245034Y-68649997D01*
X55245034Y-68650002D01*
X55264858Y-68876599D01*
X55264860Y-68876610D01*
X55323730Y-69096317D01*
X55323735Y-69096331D01*
X55419863Y-69302478D01*
X55470974Y-69375472D01*
X56150000Y-68696446D01*
X56150000Y-68702661D01*
X56177259Y-68804394D01*
X56229920Y-68895606D01*
X56304394Y-68970080D01*
X56395606Y-69022741D01*
X56497339Y-69050000D01*
X56503553Y-69050000D01*
X55824526Y-69729025D01*
X55897513Y-69780132D01*
X55897521Y-69780136D01*
X56103668Y-69876264D01*
X56103682Y-69876269D01*
X56323389Y-69935139D01*
X56323400Y-69935141D01*
X56549998Y-69954966D01*
X56550002Y-69954966D01*
X56776599Y-69935141D01*
X56776610Y-69935139D01*
X56996317Y-69876269D01*
X56996331Y-69876264D01*
X57202478Y-69780136D01*
X57275471Y-69729024D01*
X56596447Y-69050000D01*
X56602661Y-69050000D01*
X56704394Y-69022741D01*
X56795606Y-68970080D01*
X56870080Y-68895606D01*
X56922741Y-68804394D01*
X56950000Y-68702661D01*
X56950000Y-68696447D01*
X57629024Y-69375471D01*
X57680136Y-69302478D01*
X57776264Y-69096331D01*
X57776269Y-69096317D01*
X57835139Y-68876610D01*
X57835141Y-68876599D01*
X57854966Y-68650002D01*
X57854966Y-68649998D01*
X58744532Y-68649998D01*
X58744532Y-68650001D01*
X58764364Y-68876686D01*
X58764366Y-68876697D01*
X58823258Y-69096488D01*
X58823261Y-69096497D01*
X58919431Y-69302732D01*
X58919432Y-69302734D01*
X59049954Y-69489141D01*
X59210858Y-69650045D01*
X59210861Y-69650047D01*
X59397266Y-69780568D01*
X59603504Y-69876739D01*
X59823308Y-69935635D01*
X59985230Y-69949801D01*
X60049998Y-69955468D01*
X60050000Y-69955468D01*
X60050002Y-69955468D01*
X60106673Y-69950509D01*
X60276692Y-69935635D01*
X60496496Y-69876739D01*
X60702734Y-69780568D01*
X60889139Y-69650047D01*
X61050047Y-69489139D01*
X61180568Y-69302734D01*
X61276739Y-69096496D01*
X61335635Y-68876692D01*
X61355468Y-68650000D01*
X61335635Y-68423308D01*
X61276739Y-68203504D01*
X61180568Y-67997266D01*
X61082839Y-67857693D01*
X61050045Y-67810858D01*
X60889141Y-67649954D01*
X60702734Y-67519432D01*
X60702732Y-67519431D01*
X60496497Y-67423261D01*
X60496488Y-67423258D01*
X60276697Y-67364366D01*
X60276693Y-67364365D01*
X60276692Y-67364365D01*
X60276691Y-67364364D01*
X60276686Y-67364364D01*
X60050002Y-67344532D01*
X60049998Y-67344532D01*
X59823313Y-67364364D01*
X59823302Y-67364366D01*
X59603511Y-67423258D01*
X59603502Y-67423261D01*
X59397267Y-67519431D01*
X59397265Y-67519432D01*
X59210858Y-67649954D01*
X59049954Y-67810858D01*
X58919432Y-67997265D01*
X58919431Y-67997267D01*
X58823261Y-68203502D01*
X58823258Y-68203511D01*
X58764366Y-68423302D01*
X58764364Y-68423313D01*
X58744532Y-68649998D01*
X57854966Y-68649998D01*
X57854966Y-68649997D01*
X57835141Y-68423400D01*
X57835139Y-68423389D01*
X57776269Y-68203682D01*
X57776264Y-68203668D01*
X57680136Y-67997521D01*
X57680132Y-67997513D01*
X57629025Y-67924526D01*
X56950000Y-68603551D01*
X56950000Y-68597339D01*
X56922741Y-68495606D01*
X56870080Y-68404394D01*
X56795606Y-68329920D01*
X56704394Y-68277259D01*
X56602661Y-68250000D01*
X56596445Y-68250000D01*
X57275472Y-67570974D01*
X57202478Y-67519863D01*
X56996331Y-67423735D01*
X56996317Y-67423730D01*
X56776610Y-67364860D01*
X56776599Y-67364858D01*
X56550002Y-67345034D01*
X56549998Y-67345034D01*
X56323400Y-67364858D01*
X56323389Y-67364860D01*
X56103682Y-67423730D01*
X56103673Y-67423734D01*
X55897516Y-67519866D01*
X55897512Y-67519868D01*
X55824526Y-67570973D01*
X55824526Y-67570974D01*
X56503553Y-68250000D01*
X56497339Y-68250000D01*
X56395606Y-68277259D01*
X56304394Y-68329920D01*
X56229920Y-68404394D01*
X56177259Y-68495606D01*
X56150000Y-68597339D01*
X56150000Y-68603552D01*
X55470974Y-67924526D01*
X55470973Y-67924526D01*
X55419868Y-67997512D01*
X55419866Y-67997516D01*
X55323734Y-68203673D01*
X55323730Y-68203682D01*
X55264860Y-68423389D01*
X55264858Y-68423400D01*
X55245034Y-68649997D01*
X53314652Y-68649997D01*
X53280465Y-68522410D01*
X53276741Y-68508511D01*
X53276738Y-68508502D01*
X53180568Y-68302266D01*
X53050047Y-68115861D01*
X53050045Y-68115858D01*
X52889141Y-67954954D01*
X52702734Y-67824432D01*
X52702732Y-67824431D01*
X52496497Y-67728261D01*
X52496488Y-67728258D01*
X52276697Y-67669366D01*
X52276693Y-67669365D01*
X52276692Y-67669365D01*
X52276691Y-67669364D01*
X52276686Y-67669364D01*
X52050002Y-67649532D01*
X52049998Y-67649532D01*
X51823313Y-67669364D01*
X51823302Y-67669366D01*
X51603511Y-67728258D01*
X51603502Y-67728261D01*
X51397267Y-67824431D01*
X51397265Y-67824432D01*
X51210858Y-67954954D01*
X51049954Y-68115858D01*
X50919432Y-68302265D01*
X50919431Y-68302267D01*
X50823261Y-68508502D01*
X50823258Y-68508511D01*
X50764366Y-68728302D01*
X50764364Y-68728313D01*
X50744532Y-68954998D01*
X50744532Y-68955001D01*
X50764364Y-69181686D01*
X50764366Y-69181697D01*
X50823258Y-69401488D01*
X50823261Y-69401497D01*
X50919431Y-69607732D01*
X50919432Y-69607734D01*
X51049954Y-69794141D01*
X51210858Y-69955045D01*
X51210861Y-69955047D01*
X51374039Y-70069304D01*
X51417663Y-70123879D01*
X51424857Y-70193377D01*
X51393335Y-70255732D01*
X51361933Y-70279932D01*
X51281380Y-70323525D01*
X51281365Y-70323535D01*
X51098222Y-70466081D01*
X51098219Y-70466084D01*
X50941016Y-70636852D01*
X50814075Y-70831151D01*
X50720842Y-71043699D01*
X50663866Y-71268691D01*
X50663864Y-71268702D01*
X50644700Y-71499993D01*
X45500500Y-71499993D01*
X45500500Y-58794998D01*
X50744532Y-58794998D01*
X50744532Y-58795001D01*
X50764364Y-59021686D01*
X50764366Y-59021697D01*
X50823258Y-59241488D01*
X50823261Y-59241497D01*
X50919431Y-59447732D01*
X50919432Y-59447734D01*
X51049954Y-59634141D01*
X51210858Y-59795045D01*
X51210861Y-59795047D01*
X51397266Y-59925568D01*
X51603504Y-60021739D01*
X51823308Y-60080635D01*
X51985230Y-60094801D01*
X52049998Y-60100468D01*
X52050000Y-60100468D01*
X52050002Y-60100468D01*
X52106673Y-60095509D01*
X52276692Y-60080635D01*
X52496496Y-60021739D01*
X52702734Y-59925568D01*
X52889139Y-59795047D01*
X53050047Y-59634139D01*
X53180568Y-59447734D01*
X53276739Y-59241496D01*
X53335635Y-59021692D01*
X53355468Y-58795000D01*
X53335635Y-58568308D01*
X53329045Y-58543713D01*
X55499500Y-58543713D01*
X55499500Y-59006287D01*
X55532754Y-59216243D01*
X55544860Y-59253502D01*
X55598444Y-59418414D01*
X55694951Y-59607820D01*
X55819890Y-59779786D01*
X55970213Y-59930109D01*
X56142179Y-60055048D01*
X56142181Y-60055049D01*
X56142184Y-60055051D01*
X56331588Y-60151557D01*
X56533757Y-60217246D01*
X56743713Y-60250500D01*
X56743714Y-60250500D01*
X56956286Y-60250500D01*
X56956287Y-60250500D01*
X57166243Y-60217246D01*
X57368412Y-60151557D01*
X57557816Y-60055051D01*
X57603668Y-60021738D01*
X57729786Y-59930109D01*
X57729788Y-59930106D01*
X57729792Y-59930104D01*
X57880104Y-59779792D01*
X57999683Y-59615204D01*
X58055011Y-59572540D01*
X58124624Y-59566561D01*
X58186420Y-59599166D01*
X58200313Y-59615199D01*
X58261925Y-59700001D01*
X58319896Y-59779792D01*
X58470213Y-59930109D01*
X58642179Y-60055048D01*
X58642181Y-60055049D01*
X58642184Y-60055051D01*
X58831588Y-60151557D01*
X59033757Y-60217246D01*
X59243713Y-60250500D01*
X59243714Y-60250500D01*
X59456286Y-60250500D01*
X59456287Y-60250500D01*
X59666243Y-60217246D01*
X59868412Y-60151557D01*
X60057816Y-60055051D01*
X60115141Y-60013402D01*
X60229784Y-59930110D01*
X60229784Y-59930109D01*
X60229792Y-59930104D01*
X60368967Y-59790928D01*
X60430286Y-59757446D01*
X60499978Y-59762430D01*
X60555912Y-59804301D01*
X60562184Y-59813515D01*
X60657684Y-59968345D01*
X60781654Y-60092315D01*
X60930875Y-60184356D01*
X60930880Y-60184358D01*
X61097302Y-60239505D01*
X61097309Y-60239506D01*
X61200019Y-60249999D01*
X61599999Y-60249999D01*
X61600000Y-60249998D01*
X61600000Y-59179145D01*
X61666657Y-59217630D01*
X61787465Y-59250000D01*
X61912535Y-59250000D01*
X62033343Y-59217630D01*
X62100000Y-59179145D01*
X62100000Y-60249999D01*
X62499972Y-60249999D01*
X62499986Y-60249998D01*
X62602697Y-60239505D01*
X62769119Y-60184358D01*
X62769124Y-60184356D01*
X62918345Y-60092315D01*
X63042315Y-59968345D01*
X63134356Y-59819124D01*
X63134358Y-59819119D01*
X63189505Y-59652697D01*
X63189506Y-59652690D01*
X63199999Y-59549986D01*
X63200000Y-59549973D01*
X63200000Y-59025000D01*
X62254146Y-59025000D01*
X62292630Y-58958343D01*
X62325000Y-58837535D01*
X62325000Y-58712465D01*
X62292630Y-58591657D01*
X62254146Y-58525000D01*
X63199999Y-58525000D01*
X63199999Y-58000028D01*
X63199998Y-58000013D01*
X63189505Y-57897302D01*
X63134358Y-57730880D01*
X63134356Y-57730875D01*
X63042315Y-57581654D01*
X62918345Y-57457684D01*
X62769124Y-57365643D01*
X62769119Y-57365641D01*
X62602697Y-57310494D01*
X62602690Y-57310493D01*
X62499986Y-57300000D01*
X62100000Y-57300000D01*
X62100000Y-58370854D01*
X62033343Y-58332370D01*
X61912535Y-58300000D01*
X61787465Y-58300000D01*
X61666657Y-58332370D01*
X61600000Y-58370854D01*
X61600000Y-57300000D01*
X61200028Y-57300000D01*
X61200012Y-57300001D01*
X61097302Y-57310494D01*
X60930880Y-57365641D01*
X60930875Y-57365643D01*
X60781654Y-57457684D01*
X60657683Y-57581655D01*
X60657680Y-57581659D01*
X60562183Y-57736484D01*
X60510235Y-57783209D01*
X60441273Y-57794430D01*
X60377191Y-57766587D01*
X60368964Y-57759068D01*
X60229786Y-57619890D01*
X60057820Y-57494951D01*
X59868414Y-57398444D01*
X59868413Y-57398443D01*
X59868412Y-57398443D01*
X59666243Y-57332754D01*
X59666241Y-57332753D01*
X59666240Y-57332753D01*
X59504957Y-57307208D01*
X59456287Y-57299500D01*
X59243713Y-57299500D01*
X59195042Y-57307208D01*
X59033760Y-57332753D01*
X58831585Y-57398444D01*
X58642179Y-57494951D01*
X58470213Y-57619890D01*
X58319894Y-57770209D01*
X58319890Y-57770214D01*
X58200318Y-57934793D01*
X58144989Y-57977459D01*
X58075375Y-57983438D01*
X58013580Y-57950833D01*
X57999682Y-57934793D01*
X57880109Y-57770214D01*
X57880105Y-57770209D01*
X57729786Y-57619890D01*
X57557820Y-57494951D01*
X57368414Y-57398444D01*
X57368413Y-57398443D01*
X57368412Y-57398443D01*
X57166243Y-57332754D01*
X57166241Y-57332753D01*
X57166240Y-57332753D01*
X57004957Y-57307208D01*
X56956287Y-57299500D01*
X56743713Y-57299500D01*
X56695042Y-57307208D01*
X56533760Y-57332753D01*
X56331585Y-57398444D01*
X56142179Y-57494951D01*
X55970213Y-57619890D01*
X55819890Y-57770213D01*
X55694951Y-57942179D01*
X55598444Y-58131585D01*
X55598443Y-58131587D01*
X55598443Y-58131588D01*
X55594973Y-58142267D01*
X55532753Y-58333760D01*
X55509062Y-58483343D01*
X55499500Y-58543713D01*
X53329045Y-58543713D01*
X53276739Y-58348504D01*
X53180568Y-58142266D01*
X53050047Y-57955861D01*
X53050045Y-57955858D01*
X52889141Y-57794954D01*
X52702734Y-57664432D01*
X52702732Y-57664431D01*
X52496497Y-57568261D01*
X52496488Y-57568258D01*
X52276697Y-57509366D01*
X52276693Y-57509365D01*
X52276692Y-57509365D01*
X52276691Y-57509364D01*
X52276686Y-57509364D01*
X52050002Y-57489532D01*
X52049998Y-57489532D01*
X51823313Y-57509364D01*
X51823302Y-57509366D01*
X51603511Y-57568258D01*
X51603502Y-57568261D01*
X51397267Y-57664431D01*
X51397265Y-57664432D01*
X51210858Y-57794954D01*
X51049954Y-57955858D01*
X50919432Y-58142265D01*
X50919431Y-58142267D01*
X50823261Y-58348502D01*
X50823258Y-58348511D01*
X50764366Y-58568302D01*
X50764364Y-58568313D01*
X50744532Y-58794998D01*
X45500500Y-58794998D01*
X45500500Y-50624500D01*
X45520185Y-50557461D01*
X45572989Y-50511706D01*
X45624500Y-50500500D01*
X47350500Y-50500500D01*
X47417539Y-50520185D01*
G37*
%TD.AperFunction*%
%TD*%
M02*
